<svg xmlns="http://www.w3.org/2000/svg" viewBox="-10 -20 770.0 355.8076211353316" font-family="sans-serif">
<style>.g{fill:none;stroke:#8a7a00;stroke-width:1.1;stroke-linecap:round;opacity:0.55}.grid{fill:none;stroke:#555;stroke-width:.7}.mis{fill:none;stroke:#d22;stroke-width:3.4;stroke-linecap:round;opacity:.9}.num{font-size:8px;fill:#111;text-anchor:middle;font-weight:bold}.ul{stroke:#111;stroke-width:1.0}.rdot{fill:#7a1020;stroke:none}.flb{font-size:13px;fill:#000;text-anchor:middle;font-weight:bold}</style>
<text x="375.0" y="-6" class="flb">Category A record: 142/160 tiles, physical colours + tile numbers (empty slots hatched)</text>
<defs><pattern id="hx" width="6" height="6" patternUnits="userSpaceOnUse"><path d="M0,6L6,0" stroke="#b33" stroke-width="1.6"/></pattern></defs>
<path d="M131.2,127.4L112.5,159.9L150.0,159.9Z
M93.8,127.4L75.0,159.9L112.5,159.9Z
M56.2,62.5L37.5,95.0L75.0,95.0Z
M75.0,95.0L93.8,62.5L56.2,62.5Z
M243.8,127.4L225.0,159.9L262.5,159.9Z
M168.8,127.4L150.0,159.9L187.5,159.9Z
M225.0,95.0L206.2,127.4L243.8,127.4Z
M356.2,127.4L337.5,159.9L375.0,159.9Z
M337.5,95.0L318.8,127.4L356.2,127.4Z
M393.8,62.5L375.0,95.0L412.5,95.0Z
M356.2,62.5L337.5,95.0L375.0,95.0Z
M393.8,127.4L412.5,95.0L375.0,95.0Z
M543.8,127.4L525.0,159.9L562.5,159.9Z
M562.5,95.0L543.8,127.4L581.2,127.4Z
M525.0,95.0L506.2,127.4L543.8,127.4Z
M506.2,62.5L487.5,95.0L525.0,95.0Z
M693.8,127.4L675.0,159.9L712.5,159.9Z
M712.5,95.0L693.8,127.4L731.2,127.4Z
M656.2,127.4L675.0,95.0L637.5,95.0Z
M37.5,159.9L18.8,192.4L56.2,192.4Z
M206.2,192.4L225.0,159.9L187.5,159.9Z
M187.5,159.9L168.8,192.4L206.2,192.4Z
M262.5,159.9L243.8,192.4L281.2,192.4Z
M412.5,159.9L393.8,192.4L431.2,192.4Z
M468.8,192.4L487.5,159.9L450.0,159.9Z
M543.8,192.4L562.5,159.9L525.0,159.9Z
M506.2,257.3L525.0,224.9L487.5,224.9Z
M693.8,192.4L712.5,159.9L675.0,159.9Z" fill="#c9c9c9" stroke="none"/>
<path d="M18.8,127.4L0.0,159.9L37.5,159.9Z
M112.5,95.0L93.8,127.4L131.2,127.4Z
M93.8,62.5L75.0,95.0L112.5,95.0Z
M75.0,30.0L56.2,62.5L93.8,62.5Z
M37.5,159.9L56.2,127.4L18.8,127.4Z
M187.5,95.0L168.8,127.4L206.2,127.4Z
M206.2,127.4L225.0,95.0L187.5,95.0Z
M318.8,127.4L300.0,159.9L337.5,159.9Z
M375.0,159.9L393.8,127.4L356.2,127.4Z
M506.2,127.4L487.5,159.9L525.0,159.9Z
M468.8,127.4L450.0,159.9L487.5,159.9Z
M543.8,62.5L525.0,95.0L562.5,95.0Z
M525.0,30.0L506.2,62.5L543.8,62.5Z
M562.5,159.9L581.2,127.4L543.8,127.4Z
M525.0,159.9L543.8,127.4L506.2,127.4Z
M487.5,159.9L506.2,127.4L468.8,127.4Z
M543.8,127.4L562.5,95.0L525.0,95.0Z
M656.2,62.5L637.5,95.0L675.0,95.0Z
M675.0,30.0L656.2,62.5L693.8,62.5Z
M712.5,159.9L731.2,127.4L693.8,127.4Z
M675.0,159.9L693.8,127.4L656.2,127.4Z
M112.5,224.9L131.2,192.4L93.8,192.4Z
M93.8,257.3L112.5,224.9L75.0,224.9Z
M75.0,289.8L93.8,257.3L56.2,257.3Z
M281.2,192.4L300.0,159.9L262.5,159.9Z
M206.2,257.3L225.0,224.9L187.5,224.9Z
M243.8,257.3L262.5,224.9L225.0,224.9Z
M225.0,289.8L243.8,257.3L206.2,257.3Z
M243.8,192.4L225.0,224.9L262.5,224.9Z
M225.0,224.9L206.2,257.3L243.8,257.3Z
M356.2,192.4L375.0,159.9L337.5,159.9Z
M337.5,224.9L356.2,192.4L318.8,192.4Z
M356.2,192.4L337.5,224.9L375.0,224.9Z
M393.8,192.4L375.0,224.9L412.5,224.9Z
M375.0,224.9L356.2,257.3L393.8,257.3Z
M525.0,224.9L543.8,192.4L506.2,192.4Z
M525.0,159.9L506.2,192.4L543.8,192.4Z
M731.2,192.4L750.0,159.9L712.5,159.9Z
M693.8,192.4L675.0,224.9L712.5,224.9Z" fill="#eda3a3" stroke="none"/>
<path d="M75.0,95.0L56.2,127.4L93.8,127.4Z
M37.5,95.0L18.8,127.4L56.2,127.4Z
M112.5,159.9L131.2,127.4L93.8,127.4Z
M75.0,159.9L93.8,127.4L56.2,127.4Z
M93.8,127.4L112.5,95.0L75.0,95.0Z
M56.2,127.4L75.0,95.0L37.5,95.0Z
M281.2,127.4L262.5,159.9L300.0,159.9Z
M206.2,127.4L187.5,159.9L225.0,159.9Z
M262.5,95.0L243.8,127.4L281.2,127.4Z
M243.8,62.5L225.0,95.0L262.5,95.0Z
M206.2,62.5L187.5,95.0L225.0,95.0Z
M225.0,30.0L206.2,62.5L243.8,62.5Z
M262.5,159.9L281.2,127.4L243.8,127.4Z
M225.0,159.9L243.8,127.4L206.2,127.4Z
M187.5,159.9L206.2,127.4L168.8,127.4Z
M243.8,127.4L262.5,95.0L225.0,95.0Z
M225.0,95.0L243.8,62.5L206.2,62.5Z
M431.2,127.4L412.5,159.9L450.0,159.9Z
M393.8,127.4L375.0,159.9L412.5,159.9Z
M412.5,95.0L393.8,127.4L431.2,127.4Z
M375.0,95.0L356.2,127.4L393.8,127.4Z
M375.0,30.0L356.2,62.5L393.8,62.5Z
M412.5,159.9L431.2,127.4L393.8,127.4Z
M337.5,159.9L356.2,127.4L318.8,127.4Z
M356.2,127.4L375.0,95.0L337.5,95.0Z
M375.0,95.0L393.8,62.5L356.2,62.5Z
M581.2,127.4L562.5,159.9L600.0,159.9Z
M487.5,95.0L468.8,127.4L506.2,127.4Z
M506.2,127.4L525.0,95.0L487.5,95.0Z
M525.0,95.0L543.8,62.5L506.2,62.5Z
M731.2,127.4L712.5,159.9L750.0,159.9Z
M656.2,127.4L637.5,159.9L675.0,159.9Z
M618.8,127.4L600.0,159.9L637.5,159.9Z
M675.0,95.0L656.2,127.4L693.8,127.4Z
M637.5,95.0L618.8,127.4L656.2,127.4Z
M693.8,62.5L675.0,95.0L712.5,95.0Z
M637.5,159.9L656.2,127.4L618.8,127.4Z
M693.8,127.4L712.5,95.0L675.0,95.0Z
M675.0,95.0L693.8,62.5L656.2,62.5Z
M18.8,192.4L37.5,159.9L0.0,159.9Z
M56.2,192.4L75.0,159.9L37.5,159.9Z
M131.2,192.4L150.0,159.9L112.5,159.9Z
M37.5,224.9L56.2,192.4L18.8,192.4Z
M56.2,257.3L75.0,224.9L37.5,224.9Z
M75.0,159.9L56.2,192.4L93.8,192.4Z
M112.5,159.9L93.8,192.4L131.2,192.4Z
M56.2,192.4L37.5,224.9L75.0,224.9Z
M93.8,192.4L75.0,224.9L112.5,224.9Z
M168.8,192.4L187.5,159.9L150.0,159.9Z
M243.8,192.4L262.5,159.9L225.0,159.9Z
M187.5,224.9L206.2,192.4L168.8,192.4Z
M225.0,224.9L243.8,192.4L206.2,192.4Z
M225.0,159.9L206.2,192.4L243.8,192.4Z
M393.8,192.4L412.5,159.9L375.0,159.9Z
M412.5,224.9L431.2,192.4L393.8,192.4Z
M356.2,257.3L375.0,224.9L337.5,224.9Z
M393.8,257.3L412.5,224.9L375.0,224.9Z
M375.0,289.8L393.8,257.3L356.2,257.3Z
M337.5,159.9L318.8,192.4L356.2,192.4Z
M375.0,159.9L356.2,192.4L393.8,192.4Z
M581.2,192.4L600.0,159.9L562.5,159.9Z
M562.5,224.9L581.2,192.4L543.8,192.4Z
M487.5,159.9L468.8,192.4L506.2,192.4Z
M506.2,192.4L487.5,224.9L525.0,224.9Z
M543.8,192.4L525.0,224.9L562.5,224.9Z
M525.0,224.9L506.2,257.3L543.8,257.3Z
M656.2,192.4L675.0,159.9L637.5,159.9Z
M637.5,224.9L656.2,192.4L618.8,192.4Z
M675.0,224.9L693.8,192.4L656.2,192.4Z
M712.5,224.9L731.2,192.4L693.8,192.4Z
M656.2,257.3L675.0,224.9L637.5,224.9Z
M693.8,257.3L712.5,224.9L675.0,224.9Z
M675.0,289.8L693.8,257.3L656.2,257.3Z
M637.5,159.9L618.8,192.4L656.2,192.4Z
M656.2,192.4L637.5,224.9L675.0,224.9Z" fill="#9cc2e8" stroke="none"/>
<path d="M56.2,127.4L37.5,159.9L75.0,159.9Z
M93.8,192.4L112.5,159.9L75.0,159.9Z
M75.0,224.9L93.8,192.4L56.2,192.4Z
M75.0,224.9L56.2,257.3L93.8,257.3Z
M262.5,224.9L281.2,192.4L243.8,192.4Z
M206.2,192.4L187.5,224.9L225.0,224.9Z
M318.8,192.4L337.5,159.9L300.0,159.9Z
M431.2,192.4L450.0,159.9L412.5,159.9Z
M375.0,224.9L393.8,192.4L356.2,192.4Z
M506.2,192.4L525.0,159.9L487.5,159.9Z
M487.5,224.9L506.2,192.4L468.8,192.4Z
M543.8,257.3L562.5,224.9L525.0,224.9Z
M525.0,289.8L543.8,257.3L506.2,257.3Z
M562.5,159.9L543.8,192.4L581.2,192.4Z
M618.8,192.4L637.5,159.9L600.0,159.9Z
M675.0,159.9L656.2,192.4L693.8,192.4Z
M712.5,159.9L693.8,192.4L731.2,192.4Z
M675.0,224.9L656.2,257.3L693.8,257.3Z" fill="url(#hx)" stroke="#b33" stroke-width="1"/>
<path class="grid" d="M131.2,127.4L112.5,159.9L150.0,159.9Z
M93.8,127.4L75.0,159.9L112.5,159.9Z
M56.2,127.4L37.5,159.9L75.0,159.9Z
M18.8,127.4L0.0,159.9L37.5,159.9Z
M112.5,95.0L93.8,127.4L131.2,127.4Z
M75.0,95.0L56.2,127.4L93.8,127.4Z
M37.5,95.0L18.8,127.4L56.2,127.4Z
M93.8,62.5L75.0,95.0L112.5,95.0Z
M56.2,62.5L37.5,95.0L75.0,95.0Z
M75.0,30.0L56.2,62.5L93.8,62.5Z
M112.5,159.9L131.2,127.4L93.8,127.4Z
M75.0,159.9L93.8,127.4L56.2,127.4Z
M37.5,159.9L56.2,127.4L18.8,127.4Z
M93.8,127.4L112.5,95.0L75.0,95.0Z
M56.2,127.4L75.0,95.0L37.5,95.0Z
M75.0,95.0L93.8,62.5L56.2,62.5Z
M281.2,127.4L262.5,159.9L300.0,159.9Z
M243.8,127.4L225.0,159.9L262.5,159.9Z
M206.2,127.4L187.5,159.9L225.0,159.9Z
M168.8,127.4L150.0,159.9L187.5,159.9Z
M262.5,95.0L243.8,127.4L281.2,127.4Z
M225.0,95.0L206.2,127.4L243.8,127.4Z
M187.5,95.0L168.8,127.4L206.2,127.4Z
M243.8,62.5L225.0,95.0L262.5,95.0Z
M206.2,62.5L187.5,95.0L225.0,95.0Z
M225.0,30.0L206.2,62.5L243.8,62.5Z
M262.5,159.9L281.2,127.4L243.8,127.4Z
M225.0,159.9L243.8,127.4L206.2,127.4Z
M187.5,159.9L206.2,127.4L168.8,127.4Z
M243.8,127.4L262.5,95.0L225.0,95.0Z
M206.2,127.4L225.0,95.0L187.5,95.0Z
M225.0,95.0L243.8,62.5L206.2,62.5Z
M431.2,127.4L412.5,159.9L450.0,159.9Z
M393.8,127.4L375.0,159.9L412.5,159.9Z
M356.2,127.4L337.5,159.9L375.0,159.9Z
M318.8,127.4L300.0,159.9L337.5,159.9Z
M412.5,95.0L393.8,127.4L431.2,127.4Z
M375.0,95.0L356.2,127.4L393.8,127.4Z
M337.5,95.0L318.8,127.4L356.2,127.4Z
M393.8,62.5L375.0,95.0L412.5,95.0Z
M356.2,62.5L337.5,95.0L375.0,95.0Z
M375.0,30.0L356.2,62.5L393.8,62.5Z
M412.5,159.9L431.2,127.4L393.8,127.4Z
M375.0,159.9L393.8,127.4L356.2,127.4Z
M337.5,159.9L356.2,127.4L318.8,127.4Z
M393.8,127.4L412.5,95.0L375.0,95.0Z
M356.2,127.4L375.0,95.0L337.5,95.0Z
M375.0,95.0L393.8,62.5L356.2,62.5Z
M581.2,127.4L562.5,159.9L600.0,159.9Z
M543.8,127.4L525.0,159.9L562.5,159.9Z
M506.2,127.4L487.5,159.9L525.0,159.9Z
M468.8,127.4L450.0,159.9L487.5,159.9Z
M562.5,95.0L543.8,127.4L581.2,127.4Z
M525.0,95.0L506.2,127.4L543.8,127.4Z
M487.5,95.0L468.8,127.4L506.2,127.4Z
M543.8,62.5L525.0,95.0L562.5,95.0Z
M506.2,62.5L487.5,95.0L525.0,95.0Z
M525.0,30.0L506.2,62.5L543.8,62.5Z
M562.5,159.9L581.2,127.4L543.8,127.4Z
M525.0,159.9L543.8,127.4L506.2,127.4Z
M487.5,159.9L506.2,127.4L468.8,127.4Z
M543.8,127.4L562.5,95.0L525.0,95.0Z
M506.2,127.4L525.0,95.0L487.5,95.0Z
M525.0,95.0L543.8,62.5L506.2,62.5Z
M731.2,127.4L712.5,159.9L750.0,159.9Z
M693.8,127.4L675.0,159.9L712.5,159.9Z
M656.2,127.4L637.5,159.9L675.0,159.9Z
M618.8,127.4L600.0,159.9L637.5,159.9Z
M712.5,95.0L693.8,127.4L731.2,127.4Z
M675.0,95.0L656.2,127.4L693.8,127.4Z
M637.5,95.0L618.8,127.4L656.2,127.4Z
M693.8,62.5L675.0,95.0L712.5,95.0Z
M656.2,62.5L637.5,95.0L675.0,95.0Z
M675.0,30.0L656.2,62.5L693.8,62.5Z
M712.5,159.9L731.2,127.4L693.8,127.4Z
M675.0,159.9L693.8,127.4L656.2,127.4Z
M637.5,159.9L656.2,127.4L618.8,127.4Z
M693.8,127.4L712.5,95.0L675.0,95.0Z
M656.2,127.4L675.0,95.0L637.5,95.0Z
M675.0,95.0L693.8,62.5L656.2,62.5Z
M18.8,192.4L37.5,159.9L0.0,159.9Z
M56.2,192.4L75.0,159.9L37.5,159.9Z
M93.8,192.4L112.5,159.9L75.0,159.9Z
M131.2,192.4L150.0,159.9L112.5,159.9Z
M37.5,224.9L56.2,192.4L18.8,192.4Z
M75.0,224.9L93.8,192.4L56.2,192.4Z
M112.5,224.9L131.2,192.4L93.8,192.4Z
M56.2,257.3L75.0,224.9L37.5,224.9Z
M93.8,257.3L112.5,224.9L75.0,224.9Z
M75.0,289.8L93.8,257.3L56.2,257.3Z
M37.5,159.9L18.8,192.4L56.2,192.4Z
M75.0,159.9L56.2,192.4L93.8,192.4Z
M112.5,159.9L93.8,192.4L131.2,192.4Z
M56.2,192.4L37.5,224.9L75.0,224.9Z
M93.8,192.4L75.0,224.9L112.5,224.9Z
M75.0,224.9L56.2,257.3L93.8,257.3Z
M168.8,192.4L187.5,159.9L150.0,159.9Z
M206.2,192.4L225.0,159.9L187.5,159.9Z
M243.8,192.4L262.5,159.9L225.0,159.9Z
M281.2,192.4L300.0,159.9L262.5,159.9Z
M187.5,224.9L206.2,192.4L168.8,192.4Z
M225.0,224.9L243.8,192.4L206.2,192.4Z
M262.5,224.9L281.2,192.4L243.8,192.4Z
M206.2,257.3L225.0,224.9L187.5,224.9Z
M243.8,257.3L262.5,224.9L225.0,224.9Z
M225.0,289.8L243.8,257.3L206.2,257.3Z
M187.5,159.9L168.8,192.4L206.2,192.4Z
M225.0,159.9L206.2,192.4L243.8,192.4Z
M262.5,159.9L243.8,192.4L281.2,192.4Z
M206.2,192.4L187.5,224.9L225.0,224.9Z
M243.8,192.4L225.0,224.9L262.5,224.9Z
M225.0,224.9L206.2,257.3L243.8,257.3Z
M318.8,192.4L337.5,159.9L300.0,159.9Z
M356.2,192.4L375.0,159.9L337.5,159.9Z
M393.8,192.4L412.5,159.9L375.0,159.9Z
M431.2,192.4L450.0,159.9L412.5,159.9Z
M337.5,224.9L356.2,192.4L318.8,192.4Z
M375.0,224.9L393.8,192.4L356.2,192.4Z
M412.5,224.9L431.2,192.4L393.8,192.4Z
M356.2,257.3L375.0,224.9L337.5,224.9Z
M393.8,257.3L412.5,224.9L375.0,224.9Z
M375.0,289.8L393.8,257.3L356.2,257.3Z
M337.5,159.9L318.8,192.4L356.2,192.4Z
M375.0,159.9L356.2,192.4L393.8,192.4Z
M412.5,159.9L393.8,192.4L431.2,192.4Z
M356.2,192.4L337.5,224.9L375.0,224.9Z
M393.8,192.4L375.0,224.9L412.5,224.9Z
M375.0,224.9L356.2,257.3L393.8,257.3Z
M468.8,192.4L487.5,159.9L450.0,159.9Z
M506.2,192.4L525.0,159.9L487.5,159.9Z
M543.8,192.4L562.5,159.9L525.0,159.9Z
M581.2,192.4L600.0,159.9L562.5,159.9Z
M487.5,224.9L506.2,192.4L468.8,192.4Z
M525.0,224.9L543.8,192.4L506.2,192.4Z
M562.5,224.9L581.2,192.4L543.8,192.4Z
M506.2,257.3L525.0,224.9L487.5,224.9Z
M543.8,257.3L562.5,224.9L525.0,224.9Z
M525.0,289.8L543.8,257.3L506.2,257.3Z
M487.5,159.9L468.8,192.4L506.2,192.4Z
M525.0,159.9L506.2,192.4L543.8,192.4Z
M562.5,159.9L543.8,192.4L581.2,192.4Z
M506.2,192.4L487.5,224.9L525.0,224.9Z
M543.8,192.4L525.0,224.9L562.5,224.9Z
M525.0,224.9L506.2,257.3L543.8,257.3Z
M618.8,192.4L637.5,159.9L600.0,159.9Z
M656.2,192.4L675.0,159.9L637.5,159.9Z
M693.8,192.4L712.5,159.9L675.0,159.9Z
M731.2,192.4L750.0,159.9L712.5,159.9Z
M637.5,224.9L656.2,192.4L618.8,192.4Z
M675.0,224.9L693.8,192.4L656.2,192.4Z
M712.5,224.9L731.2,192.4L693.8,192.4Z
M656.2,257.3L675.0,224.9L637.5,224.9Z
M693.8,257.3L712.5,224.9L675.0,224.9Z
M675.0,289.8L693.8,257.3L656.2,257.3Z
M637.5,159.9L618.8,192.4L656.2,192.4Z
M675.0,159.9L656.2,192.4L693.8,192.4Z
M712.5,159.9L693.8,192.4L731.2,192.4Z
M656.2,192.4L637.5,224.9L675.0,224.9Z
M693.8,192.4L675.0,224.9L712.5,224.9Z
M675.0,224.9L656.2,257.3L693.8,257.3Z"/>
<path class="g" d="M118.8,149.1Q127.4,142.4 132.8,130.1
M117.2,151.8Q129.1,147.2 139.1,141.0
M146.9,159.9Q141.1,152.9 143.8,149.1
M84.4,159.9Q93.2,150.0 101.6,141.0
M31.2,159.9Q25.3,149.1 25.0,138.3
M128.1,127.4Q116.9,114.7 109.4,100.4
M117.2,103.1Q113.6,105.2 110.9,97.7
M62.5,127.4Q71.7,124.2 78.1,127.4
M68.8,105.8Q67.9,113.8 60.9,119.3
M34.4,127.4Q30.4,123.2 20.3,124.7
M46.9,127.4Q37.5,118.5 28.1,111.2
M95.3,65.2Q92.1,81.3 87.5,95.0
M107.8,86.8Q97.6,88.9 90.6,95.0
M68.8,95.0Q65.5,88.9 70.3,86.8
M46.9,95.0Q56.2,86.0 65.6,78.7
M64.1,48.9Q72.8,46.0 79.7,38.1
M60.9,54.4Q72.3,56.4 81.2,62.5
M87.5,62.5Q82.7,53.5 84.4,46.2
M101.6,141.0Q110.3,143.9 117.2,151.8
M118.8,149.1Q120.2,138.3 128.1,127.4
M78.1,127.4Q71.7,130.7 62.5,127.4
M46.9,143.7Q44.1,136.4 46.9,127.4
M34.4,127.4Q32.0,134.5 25.0,138.3
M90.6,95.0Q90.5,98.2 87.5,95.0
M109.4,100.4Q105.2,101.0 110.9,97.7
M60.9,119.3Q54.6,106.7 46.9,95.0
M68.8,105.8Q65.0,102.0 68.8,95.0
M87.5,62.5Q77.7,74.2 70.3,86.8
M81.2,62.5Q73.9,71.4 65.6,78.7
M296.9,159.9Q292.7,155.7 298.4,157.2
M271.9,159.9Q276.3,148.1 276.6,135.5
M245.3,130.1Q242.7,137.7 239.1,135.5
M257.8,151.8Q254.1,153.8 259.4,159.9
M231.2,149.1Q242.7,152.9 253.1,159.9
M196.9,159.9Q197.0,155.7 189.1,157.2
M215.6,159.9Q213.4,151.9 217.2,146.4
M210.9,135.5Q202.4,146.2 190.6,154.5
M167.2,130.1Q172.6,142.4 181.2,149.1
M160.9,141.0Q172.0,149.1 185.9,157.2
M156.2,149.1Q160.0,152.9 156.2,159.9
M265.6,100.4Q269.1,114.7 278.1,127.4
M231.2,105.8Q230.5,116.6 234.4,127.4
M214.1,113.9Q221.2,119.4 225.0,127.4
M182.8,103.1Q182.6,115.7 178.1,127.4
M196.9,127.4Q191.9,114.7 190.6,100.4
M248.4,70.6Q242.1,77.5 234.4,78.7
M231.2,84.1Q238.3,87.9 240.6,95.0
M204.7,65.2Q200.8,78.4 192.2,86.8
M220.3,86.8Q212.8,80.3 210.9,70.6
M239.1,54.4Q231.6,47.9 229.7,38.1
M220.3,38.1Q220.1,45.0 215.6,46.2
M276.6,135.5Q265.8,142.0 257.8,151.8
M278.1,127.4Q262.0,131.6 245.3,130.1
M234.4,127.4Q233.2,133.5 239.1,135.5
M225.0,127.4Q220.1,133.5 210.9,135.5
M217.2,146.4Q224.5,144.9 231.2,149.1
M196.9,127.4Q191.9,140.1 190.6,154.5
M178.1,127.4Q182.0,138.3 181.2,149.1
M185.9,157.2Q187.5,151.5 189.1,157.2
M240.6,95.0Q238.3,102.0 231.2,105.8
M190.6,100.4Q203.5,106.7 214.1,113.9
M210.9,70.6Q223.4,74.2 234.4,78.7
M220.3,86.8Q225.5,81.8 231.2,84.1
M435.9,135.5Q436.2,148.1 440.6,159.9
M414.1,157.2Q419.8,155.7 415.6,159.9
M423.4,141.0Q425.2,150.0 421.9,159.9
M395.3,130.1Q388.3,145.3 376.6,157.2
M407.8,151.8Q402.0,153.8 403.1,159.9
M403.1,143.7Q399.2,151.0 400.0,159.9
M359.4,159.9Q363.4,155.7 373.4,157.2
M365.6,143.7Q359.0,140.6 354.7,130.1
M321.9,132.8Q313.8,146.2 301.6,157.2
M315.6,159.9Q323.1,156.7 334.4,159.9
M415.6,127.4Q409.2,120.4 400.0,116.6
M423.4,113.9Q412.5,114.7 401.6,113.9
M378.1,100.4Q379.4,114.7 384.4,127.4
M321.9,127.4Q330.9,114.7 334.4,100.4
M353.1,127.4Q347.3,120.4 350.0,116.6
M406.2,95.0Q403.6,89.8 409.4,89.5
M384.4,95.0Q384.5,90.8 376.6,92.2
M403.1,95.0Q394.8,84.1 387.5,73.3
M351.6,70.6Q356.2,74.7 360.9,70.6
M371.9,95.0Q366.6,88.9 370.3,86.8
M370.3,38.1Q368.4,47.9 360.9,54.4
M392.2,59.8Q383.2,50.7 381.2,40.8
M395.3,130.1Q407.6,131.6 415.6,127.4
M403.1,143.7Q413.0,141.1 423.4,141.0
M407.8,151.8Q411.4,149.6 414.1,157.2
M373.4,157.2Q375.0,151.5 376.6,157.2
M365.6,143.7Q375.0,136.4 384.4,127.4
M354.7,130.1Q349.0,131.6 353.1,127.4
M321.9,127.4Q326.6,132.6 321.9,132.8
M378.1,100.4Q385.0,100.1 384.4,95.0
M400.0,116.6Q399.2,105.8 403.1,95.0
M401.6,113.9Q400.9,104.8 406.2,95.0
M350.0,116.6Q359.5,105.8 371.9,95.0
M360.9,70.6Q368.4,77.1 370.3,86.8
M376.6,92.2Q379.9,79.9 387.5,73.3
M589.1,141.0Q578.0,149.1 564.1,157.2
M542.2,130.1Q541.6,137.7 539.1,135.5
M529.7,151.8Q533.4,153.8 528.1,159.9
M559.4,159.9Q553.0,151.9 554.7,146.4
M518.8,149.1Q516.1,152.9 521.9,159.9
M490.6,154.5Q497.5,154.8 496.9,159.9
M500.0,138.3Q504.1,149.1 506.2,159.9
M485.9,157.2Q472.6,155.7 462.5,159.9
M476.6,141.0Q472.6,140.6 471.9,132.8
M464.1,135.5Q461.6,148.1 453.1,159.9
M546.9,122.0Q551.6,122.3 546.9,127.4
M553.1,127.4Q564.1,121.3 576.6,119.3
M531.2,105.8Q521.7,114.7 509.4,122.0
M487.5,127.4Q489.7,116.6 493.8,105.8
M492.2,103.1Q485.3,110.9 476.6,113.9
M556.2,95.0Q543.8,87.9 531.2,84.1
M559.4,95.0Q547.0,84.1 537.5,73.3
M490.6,89.5Q503.5,83.2 514.1,76.0
M518.8,95.0Q515.5,88.9 520.3,86.8
M507.8,59.8Q520.1,58.3 528.1,62.5
M518.8,40.8Q527.2,47.9 537.5,51.7
M540.6,62.5Q535.4,56.4 539.1,54.4
M546.9,127.4Q554.3,137.3 554.7,146.4
M553.1,127.4Q559.8,141.1 564.1,157.2
M518.8,149.1Q528.8,139.2 542.2,130.1
M529.7,151.8Q531.6,142.0 539.1,135.5
M490.6,154.5Q488.0,150.6 485.9,157.2
M500.0,138.3Q488.0,139.2 476.6,141.0
M487.5,127.4Q482.0,132.6 471.9,132.8
M546.9,122.0Q550.3,107.7 559.4,95.0
M556.2,95.0Q543.8,102.0 531.2,105.8
M509.4,122.0Q503.0,111.5 493.8,105.8
M518.8,95.0Q505.7,101.0 492.2,103.1
M540.6,62.5Q534.8,69.5 537.5,73.3
M528.1,62.5Q522.3,70.5 514.1,76.0
M520.3,86.8Q525.5,81.8 531.2,84.1
M718.8,149.1Q724.7,152.9 725.0,159.9
M678.1,159.9Q687.2,147.2 690.6,132.8
M706.2,159.9Q703.0,153.8 707.8,151.8
M696.9,159.9Q696.5,148.1 698.4,135.5
M671.9,154.5Q665.0,154.8 665.6,159.9
M664.1,141.0Q655.7,144.3 646.9,143.7
M643.8,159.9Q651.9,156.7 656.2,159.9
M629.7,146.4Q628.0,151.9 634.4,159.9
M625.0,138.3Q618.2,142.4 610.9,141.0
M696.9,127.4Q705.9,114.7 709.4,100.4
M729.7,124.7Q721.8,117.5 721.9,111.2
M657.8,124.7Q674.5,123.2 690.6,127.4
M668.8,105.8Q677.2,112.8 687.5,116.6
M623.4,119.3Q638.0,121.3 653.1,127.4
M648.4,113.9Q641.9,109.0 639.1,97.7
M692.2,65.2Q697.6,81.3 706.2,95.0
M679.7,86.8Q688.8,88.9 693.8,95.0
M671.9,95.0Q662.8,82.2 659.4,67.9
M653.1,95.0Q655.7,81.3 657.8,65.2
M662.5,51.7Q665.7,52.6 660.9,54.4
M689.1,54.4Q683.8,51.7 685.9,48.9
M718.8,149.1Q713.0,146.8 707.8,151.8
M696.9,127.4Q702.1,133.5 698.4,135.5
M690.6,127.4Q676.6,135.4 664.1,141.0
M671.9,154.5Q679.4,142.0 690.6,132.8
M625.0,138.3Q638.6,134.5 653.1,127.4
M629.7,146.4Q638.0,143.0 646.9,143.7
M687.5,116.6Q691.6,105.8 693.8,95.0
M709.4,100.4Q703.6,100.1 706.2,95.0
M639.1,97.7Q649.1,99.1 653.1,95.0
M648.4,113.9Q654.1,115.2 657.8,124.7
M668.8,105.8Q666.1,102.0 671.9,95.0
M657.8,65.2Q675.0,67.6 692.2,65.2
M659.4,67.9Q671.2,76.1 679.7,86.8
M21.9,187.0Q13.8,173.6 1.6,162.6
M31.2,170.7Q27.5,166.9 31.2,159.9
M60.9,184.3Q55.7,179.3 50.0,181.6
M62.5,181.6Q63.9,170.7 71.9,159.9
M50.0,159.9Q49.7,166.9 43.8,170.7
M115.6,165.3Q131.2,165.0 146.9,159.9
M121.9,176.1Q129.6,177.4 135.9,184.3
M51.6,200.5Q46.8,198.5 50.0,192.4
M37.5,192.4Q36.4,205.1 34.4,219.4
M128.1,197.8Q118.0,197.5 112.5,192.4
M109.4,192.4Q108.7,202.3 104.7,211.3
M57.8,254.6Q50.8,239.5 39.1,227.6
M62.5,246.5Q59.5,235.7 59.4,224.9
M78.1,230.3Q83.9,230.0 81.2,224.9
M84.4,241.1Q88.3,233.8 87.5,224.9
M82.8,276.3Q73.9,271.9 64.1,270.9
M71.9,257.3Q68.4,262.5 59.4,262.7
M50.0,192.4Q46.2,185.3 50.0,181.6
M37.5,192.4Q32.0,187.2 21.9,187.0
M43.8,170.7Q37.5,174.0 31.2,170.7
M65.6,192.4Q66.8,186.3 60.9,184.3
M71.9,192.4Q78.3,185.3 87.5,181.6
M85.9,178.8Q74.5,180.6 62.5,181.6
M109.4,192.4Q106.5,186.3 98.4,184.3
M112.5,192.4Q115.8,183.4 121.9,176.1
M115.6,165.3Q109.8,174.9 101.6,178.8
M51.6,200.5Q57.3,206.5 64.1,205.9
M59.4,224.9Q61.2,216.9 67.2,211.3
M92.2,195.1Q97.0,206.5 104.7,211.3
M78.1,219.4Q83.9,219.7 81.2,224.9
M82.8,211.3Q87.7,216.9 87.5,224.9
M164.1,184.3Q167.7,182.1 170.3,189.7
M175.0,181.6Q166.6,170.7 156.2,159.9
M196.9,176.1Q199.7,168.8 196.9,159.9
M198.4,178.8Q204.6,179.3 209.4,187.0
M212.5,181.6Q211.7,170.7 215.6,159.9
M237.5,181.6Q243.2,179.3 248.4,184.3
M259.4,159.9Q252.5,163.2 253.1,159.9
M296.9,159.9Q292.7,164.1 298.4,162.6
M271.9,159.9Q273.6,166.9 268.8,170.7
M273.4,178.8Q284.0,171.7 296.9,165.3
M190.6,219.4Q183.1,207.0 171.9,197.8
M195.3,211.3Q196.2,203.2 204.7,195.1
M218.8,192.4Q217.3,197.5 209.4,197.8
M214.1,205.9Q222.3,209.8 228.1,219.4
M214.1,243.8Q214.5,234.7 221.9,224.9
M203.1,224.9Q200.8,228.1 193.8,224.9
M253.1,224.9Q248.7,236.6 248.4,249.2
M237.5,246.5Q240.5,245.2 240.6,251.9
M257.8,233.0Q254.1,232.8 259.4,230.3
M226.6,287.1Q222.3,271.0 215.6,257.3
M235.9,270.9Q232.1,265.3 234.4,257.3
M209.4,257.3Q216.8,267.2 217.2,276.3
M198.4,178.8Q194.6,178.7 196.9,176.1
M175.0,181.6Q177.1,184.4 170.3,189.7
M218.8,192.4Q217.3,187.2 209.4,187.0
M237.5,181.6Q225.0,181.6 212.5,181.6
M273.4,178.8Q268.5,176.8 268.8,170.7
M248.4,184.3Q259.8,186.3 268.8,192.4
M228.1,219.4Q242.7,215.9 256.2,214.0
M253.1,224.9Q252.5,219.7 259.4,219.4
M209.4,257.3Q215.7,249.3 214.1,243.8
M215.6,257.3Q226.1,250.3 237.5,246.5
M234.4,257.3Q233.8,252.2 240.6,251.9
M359.4,159.9Q362.3,166.0 370.3,168.0
M345.3,173.4Q355.7,173.6 365.6,176.1
M376.6,162.6Q389.9,164.1 400.0,159.9
M404.7,173.4Q400.9,167.9 403.1,159.9
M339.1,222.1Q332.6,207.9 321.9,197.8
M340.6,219.4Q339.7,205.1 340.6,192.4
M421.9,208.6Q414.7,210.8 409.4,219.4
M396.9,192.4Q402.1,198.5 398.4,200.5
M421.9,192.4Q412.5,195.6 403.1,192.4
M370.3,233.0Q359.5,239.5 351.6,249.2
M340.6,224.9Q345.3,230.0 340.6,230.3
M353.1,224.9Q350.2,230.9 342.2,233.0
M376.6,227.6Q383.9,233.8 382.8,238.4
M384.4,241.1Q395.9,235.7 409.4,230.3
M378.1,257.3Q379.9,265.3 385.9,270.9
M368.8,257.3Q369.0,265.3 364.1,270.9
M373.4,287.1Q376.1,279.5 379.7,281.7
M345.3,173.4Q339.1,173.0 334.4,165.3
M321.9,187.0Q333.1,187.2 340.6,192.4
M370.3,168.0Q376.6,180.6 384.4,192.4
M365.6,176.1Q368.4,183.4 365.6,192.4
M390.6,192.4Q381.0,178.7 376.6,162.6
M396.9,192.4Q404.3,182.5 404.7,173.4
M403.1,192.4Q411.4,181.6 418.8,170.7
M421.9,192.4Q419.1,183.4 421.9,176.1
M340.6,219.4Q351.9,210.2 359.4,197.8
M339.1,222.1Q344.8,220.7 340.6,224.9
M353.1,224.9Q359.0,216.9 367.2,211.3
M409.4,219.4Q394.3,216.9 379.7,216.7
M398.4,200.5Q394.8,202.7 392.2,195.1
M370.3,233.0Q373.9,235.1 376.6,227.6
M368.8,257.3Q373.9,254.1 378.1,257.3
M384.4,241.1Q381.0,241.8 382.8,238.4
M465.6,187.0Q469.3,181.1 473.4,184.3
M460.9,178.8Q460.5,169.8 453.1,159.9
M478.1,176.1Q469.8,168.8 462.5,159.9
M559.4,159.9Q548.1,172.6 540.6,187.0
M528.1,159.9Q533.4,166.0 529.7,168.0
M582.8,189.7Q578.5,179.3 571.9,176.1
M596.9,165.3Q580.7,166.0 564.1,162.6
M521.9,192.4Q522.3,204.2 520.3,216.7
M509.4,192.4Q513.5,196.6 507.8,195.1
M565.6,192.4Q569.6,196.6 579.7,195.1
M553.1,192.4Q554.8,199.4 550.0,203.2
M557.8,216.7Q566.3,206.0 578.1,197.8
M490.6,230.3Q503.0,237.6 512.5,246.5
M521.9,230.3Q509.5,230.0 500.0,224.9
M478.1,176.1Q489.7,183.4 503.1,192.4
M473.4,184.3Q478.2,186.3 475.0,192.4
M540.6,187.0Q529.4,187.2 521.9,192.4
M529.7,168.0Q522.3,176.8 512.5,181.6
M509.4,187.0Q514.1,187.2 509.4,192.4
M500.0,224.9Q509.0,218.8 520.3,216.7
M507.8,195.1Q506.2,200.8 504.7,195.1
M534.4,224.9Q543.8,221.6 553.1,224.9
M557.8,216.7Q550.9,211.2 550.0,203.2
M521.9,230.3Q524.5,234.2 526.6,227.6
M512.5,246.5Q515.2,250.3 509.4,257.3
M528.1,257.3Q528.3,246.5 531.2,235.7
M643.8,159.9Q648.6,168.8 646.9,176.1
M665.6,159.9Q659.5,163.2 656.2,159.9
M657.8,189.7Q659.5,180.2 664.1,178.8
M685.9,178.8Q685.5,169.8 678.1,159.9
M687.5,181.6Q692.7,170.7 696.9,159.9
M701.6,178.8Q700.9,169.8 706.2,159.9
M725.0,159.9Q725.8,168.8 721.9,176.1
M725.0,181.6Q735.1,171.7 748.4,162.6
M620.3,195.1Q626.0,198.5 621.9,197.8
M640.6,219.4Q641.9,205.1 646.9,192.4
M690.6,192.4Q686.5,196.6 692.2,195.1
M668.8,192.4Q670.1,202.3 667.2,211.3
M682.8,211.3Q681.0,207.9 684.4,208.6
M715.6,219.4Q712.5,214.6 709.4,219.4
M725.0,192.4Q712.5,195.6 700.0,192.4
M653.1,251.9Q659.0,242.3 667.2,238.4
M646.9,241.1Q648.6,233.8 643.8,224.9
M671.9,230.3Q658.4,230.0 646.9,224.9
M687.5,224.9Q688.3,228.1 684.4,224.9
M689.1,249.2Q698.1,237.6 710.9,227.6
M690.6,262.7Q680.5,262.5 675.0,257.3
M685.9,270.9Q677.2,273.8 670.3,281.7
M659.4,257.3Q666.8,267.2 667.2,276.3
M646.9,176.1Q639.1,174.9 632.8,168.0
M628.1,176.1Q637.5,183.4 646.9,192.4
M667.2,211.3Q656.8,216.9 646.9,224.9
M640.6,219.4Q646.4,219.7 643.8,224.9
M684.4,224.9Q686.6,216.9 682.8,211.3
M687.5,224.9Q688.3,215.9 684.4,208.6
M709.4,219.4Q698.7,209.3 692.2,195.1"/>
<circle cx="123.8" cy="144.7" r="2.1" class="rdot"/><text x="131.2" y="150.7" class="num">24</text><line x1="126.7" y1="152.4" x2="135.8" y2="152.4" class="ul"/>
<circle cx="93.8" cy="157.7" r="2.1" class="rdot"/><text x="93.8" y="150.7" class="num">28</text><line x1="89.2" y1="152.4" x2="98.3" y2="152.4" class="ul"/>
<circle cx="18.8" cy="157.7" r="2.1" class="rdot"/><text x="18.8" y="150.7" class="num">37</text><line x1="14.2" y1="152.4" x2="23.4" y2="152.4" class="ul"/>
<circle cx="112.5" cy="125.3" r="2.1" class="rdot"/><text x="112.5" y="118.2" class="num">42</text><line x1="107.9" y1="119.9" x2="117.1" y2="119.9" class="ul"/>
<circle cx="75.0" cy="125.3" r="2.1" class="rdot"/><text x="75.0" y="118.2" class="num">91</text><line x1="70.4" y1="119.9" x2="79.6" y2="119.9" class="ul"/>
<circle cx="37.5" cy="125.3" r="2.1" class="rdot"/><text x="37.5" y="118.2" class="num">104</text><line x1="30.6" y1="119.9" x2="44.4" y2="119.9" class="ul"/>
<circle cx="101.2" cy="79.8" r="2.1" class="rdot"/><text x="93.8" y="85.7" class="num">74</text><line x1="89.2" y1="87.4" x2="98.3" y2="87.4" class="ul"/>
<circle cx="56.2" cy="92.8" r="2.1" class="rdot"/><text x="56.2" y="85.7" class="num">17</text><line x1="51.6" y1="87.4" x2="60.9" y2="87.4" class="ul"/>
<circle cx="67.5" cy="47.3" r="2.1" class="rdot"/><text x="75.0" y="53.3" class="num">71</text><line x1="70.4" y1="55.0" x2="79.6" y2="55.0" class="ul"/>
<circle cx="105.0" cy="142.6" r="2.1" class="rdot"/><text x="112.5" y="139.9" class="num">130</text><line x1="105.6" y1="141.6" x2="119.4" y2="141.6" class="ul"/>
<circle cx="67.5" cy="142.6" r="2.1" class="rdot"/><text x="75.0" y="139.9" class="num">90</text><line x1="70.4" y1="141.6" x2="79.6" y2="141.6" class="ul"/>
<circle cx="45.0" cy="142.6" r="2.1" class="rdot"/><text x="37.5" y="139.9" class="num">58</text><line x1="32.9" y1="141.6" x2="42.1" y2="141.6" class="ul"/>
<circle cx="93.8" cy="97.1" r="2.1" class="rdot"/><text x="93.8" y="107.4" class="num">141</text><line x1="86.8" y1="109.1" x2="100.7" y2="109.1" class="ul"/>
<circle cx="63.8" cy="110.1" r="2.1" class="rdot"/><text x="56.2" y="107.4" class="num">115</text><line x1="49.4" y1="109.1" x2="63.1" y2="109.1" class="ul"/>
<circle cx="82.5" cy="77.6" r="2.1" class="rdot"/><text x="75.0" y="74.9" class="num">11</text><line x1="70.4" y1="76.6" x2="79.6" y2="76.6" class="ul"/>
<circle cx="281.2" cy="157.7" r="2.1" class="rdot"/><text x="281.2" y="150.7" class="num">150</text><line x1="274.4" y1="152.4" x2="288.1" y2="152.4" class="ul"/>
<circle cx="251.2" cy="144.7" r="2.1" class="rdot"/><text x="243.8" y="150.7" class="num">8</text><line x1="241.4" y1="152.4" x2="246.1" y2="152.4" class="ul"/>
<circle cx="206.2" cy="157.7" r="2.1" class="rdot"/><text x="206.2" y="150.7" class="num">125</text><line x1="199.3" y1="152.4" x2="213.2" y2="152.4" class="ul"/>
<circle cx="161.2" cy="144.7" r="2.1" class="rdot"/><text x="168.8" y="150.7" class="num">26</text><line x1="164.2" y1="152.4" x2="173.3" y2="152.4" class="ul"/>
<circle cx="270.0" cy="112.3" r="2.1" class="rdot"/><text x="262.5" y="118.2" class="num">93</text><line x1="257.9" y1="119.9" x2="267.1" y2="119.9" class="ul"/>
<circle cx="232.5" cy="112.3" r="2.1" class="rdot"/><text x="225.0" y="118.2" class="num">3</text><line x1="222.7" y1="119.9" x2="227.3" y2="119.9" class="ul"/>
<circle cx="180.0" cy="112.3" r="2.1" class="rdot"/><text x="187.5" y="118.2" class="num">34</text><line x1="182.9" y1="119.9" x2="192.1" y2="119.9" class="ul"/>
<circle cx="251.2" cy="79.8" r="2.1" class="rdot"/><text x="243.8" y="85.7" class="num">110</text><line x1="236.8" y1="87.4" x2="250.7" y2="87.4" class="ul"/>
<circle cx="198.8" cy="79.8" r="2.1" class="rdot"/><text x="206.2" y="85.7" class="num">99</text><line x1="201.7" y1="87.4" x2="210.8" y2="87.4" class="ul"/>
<circle cx="232.5" cy="47.3" r="2.1" class="rdot"/><text x="225.0" y="53.3" class="num">131</text><line x1="218.1" y1="55.0" x2="231.9" y2="55.0" class="ul"/>
<circle cx="270.0" cy="142.6" r="2.1" class="rdot"/><text x="262.5" y="139.9" class="num">148</text><line x1="255.6" y1="141.6" x2="269.4" y2="141.6" class="ul"/>
<circle cx="225.0" cy="129.6" r="2.1" class="rdot"/><text x="225.0" y="139.9" class="num">85</text><line x1="220.4" y1="141.6" x2="229.6" y2="141.6" class="ul"/>
<circle cx="187.5" cy="129.6" r="2.1" class="rdot"/><text x="187.5" y="139.9" class="num">143</text><line x1="180.6" y1="141.6" x2="194.4" y2="141.6" class="ul"/>
<circle cx="243.8" cy="97.1" r="2.1" class="rdot"/><text x="243.8" y="107.4" class="num">120</text><line x1="236.8" y1="109.1" x2="250.7" y2="109.1" class="ul"/>
<circle cx="198.8" cy="110.1" r="2.1" class="rdot"/><text x="206.2" y="107.4" class="num">66</text><line x1="201.7" y1="109.1" x2="210.8" y2="109.1" class="ul"/>
<circle cx="217.5" cy="77.6" r="2.1" class="rdot"/><text x="225.0" y="74.9" class="num">106</text><line x1="218.1" y1="76.6" x2="231.9" y2="76.6" class="ul"/>
<circle cx="438.8" cy="144.7" r="2.1" class="rdot"/><text x="431.2" y="150.7" class="num">154</text><line x1="424.4" y1="152.4" x2="438.1" y2="152.4" class="ul"/>
<circle cx="401.2" cy="144.7" r="2.1" class="rdot"/><text x="393.8" y="150.7" class="num">116</text><line x1="386.9" y1="152.4" x2="400.6" y2="152.4" class="ul"/>
<circle cx="356.2" cy="157.7" r="2.1" class="rdot"/><text x="356.2" y="150.7" class="num">5</text><line x1="353.9" y1="152.4" x2="358.6" y2="152.4" class="ul"/>
<circle cx="326.2" cy="144.7" r="2.1" class="rdot"/><text x="318.8" y="150.7" class="num">53</text><line x1="314.1" y1="152.4" x2="323.4" y2="152.4" class="ul"/>
<circle cx="412.5" cy="125.3" r="2.1" class="rdot"/><text x="412.5" y="118.2" class="num">149</text><line x1="405.6" y1="119.9" x2="419.4" y2="119.9" class="ul"/>
<circle cx="382.5" cy="112.3" r="2.1" class="rdot"/><text x="375.0" y="118.2" class="num">112</text><line x1="368.1" y1="119.9" x2="381.9" y2="119.9" class="ul"/>
<circle cx="337.5" cy="125.3" r="2.1" class="rdot"/><text x="337.5" y="118.2" class="num">20</text><line x1="332.9" y1="119.9" x2="342.1" y2="119.9" class="ul"/>
<circle cx="393.8" cy="92.8" r="2.1" class="rdot"/><text x="393.8" y="85.7" class="num">2</text><line x1="391.4" y1="87.4" x2="396.1" y2="87.4" class="ul"/>
<circle cx="348.8" cy="79.8" r="2.1" class="rdot"/><text x="356.2" y="85.7" class="num">4</text><line x1="353.9" y1="87.4" x2="358.6" y2="87.4" class="ul"/>
<circle cx="367.5" cy="47.3" r="2.1" class="rdot"/><text x="375.0" y="53.3" class="num">155</text><line x1="368.1" y1="55.0" x2="381.9" y2="55.0" class="ul"/>
<circle cx="405.0" cy="142.6" r="2.1" class="rdot"/><text x="412.5" y="139.9" class="num">128</text><line x1="405.6" y1="141.6" x2="419.4" y2="141.6" class="ul"/>
<circle cx="367.5" cy="142.6" r="2.1" class="rdot"/><text x="375.0" y="139.9" class="num">60</text><line x1="370.4" y1="141.6" x2="379.6" y2="141.6" class="ul"/>
<circle cx="345.0" cy="142.6" r="2.1" class="rdot"/><text x="337.5" y="139.9" class="num">101</text><line x1="330.6" y1="141.6" x2="344.4" y2="141.6" class="ul"/>
<circle cx="386.2" cy="110.1" r="2.1" class="rdot"/><text x="393.8" y="107.4" class="num">18</text><line x1="389.1" y1="109.1" x2="398.4" y2="109.1" class="ul"/>
<circle cx="348.8" cy="110.1" r="2.1" class="rdot"/><text x="356.2" y="107.4" class="num">97</text><line x1="351.6" y1="109.1" x2="360.9" y2="109.1" class="ul"/>
<circle cx="367.5" cy="77.6" r="2.1" class="rdot"/><text x="375.0" y="74.9" class="num">118</text><line x1="368.1" y1="76.6" x2="381.9" y2="76.6" class="ul"/>
<circle cx="581.2" cy="157.7" r="2.1" class="rdot"/><text x="581.2" y="150.7" class="num">105</text><line x1="574.4" y1="152.4" x2="588.1" y2="152.4" class="ul"/>
<circle cx="536.2" cy="144.7" r="2.1" class="rdot"/><text x="543.8" y="150.7" class="num">12</text><line x1="539.1" y1="152.4" x2="548.4" y2="152.4" class="ul"/>
<circle cx="513.8" cy="144.7" r="2.1" class="rdot"/><text x="506.2" y="150.7" class="num">59</text><line x1="501.6" y1="152.4" x2="510.9" y2="152.4" class="ul"/>
<circle cx="476.2" cy="144.7" r="2.1" class="rdot"/><text x="468.8" y="150.7" class="num">35</text><line x1="464.1" y1="152.4" x2="473.4" y2="152.4" class="ul"/>
<circle cx="555.0" cy="112.3" r="2.1" class="rdot"/><text x="562.5" y="118.2" class="num">27</text><line x1="557.9" y1="119.9" x2="567.1" y2="119.9" class="ul"/>
<circle cx="532.5" cy="112.3" r="2.1" class="rdot"/><text x="525.0" y="118.2" class="num">10</text><line x1="520.4" y1="119.9" x2="529.6" y2="119.9" class="ul"/>
<circle cx="487.5" cy="125.3" r="2.1" class="rdot"/><text x="487.5" y="118.2" class="num">102</text><line x1="480.6" y1="119.9" x2="494.4" y2="119.9" class="ul"/>
<circle cx="543.8" cy="92.8" r="2.1" class="rdot"/><text x="543.8" y="85.7" class="num">67</text><line x1="539.1" y1="87.4" x2="548.4" y2="87.4" class="ul"/>
<circle cx="498.8" cy="79.8" r="2.1" class="rdot"/><text x="506.2" y="85.7" class="num">7</text><line x1="503.9" y1="87.4" x2="508.6" y2="87.4" class="ul"/>
<circle cx="517.5" cy="47.3" r="2.1" class="rdot"/><text x="525.0" y="53.3" class="num">46</text><line x1="520.4" y1="55.0" x2="529.6" y2="55.0" class="ul"/>
<circle cx="562.5" cy="129.6" r="2.1" class="rdot"/><text x="562.5" y="139.9" class="num">54</text><line x1="557.9" y1="141.6" x2="567.1" y2="141.6" class="ul"/>
<circle cx="517.5" cy="142.6" r="2.1" class="rdot"/><text x="525.0" y="139.9" class="num">79</text><line x1="520.4" y1="141.6" x2="529.6" y2="141.6" class="ul"/>
<circle cx="495.0" cy="142.6" r="2.1" class="rdot"/><text x="487.5" y="139.9" class="num">39</text><line x1="482.9" y1="141.6" x2="492.1" y2="141.6" class="ul"/>
<circle cx="551.2" cy="110.1" r="2.1" class="rdot"/><text x="543.8" y="107.4" class="num">36</text><line x1="539.1" y1="109.1" x2="548.4" y2="109.1" class="ul"/>
<circle cx="513.8" cy="110.1" r="2.1" class="rdot"/><text x="506.2" y="107.4" class="num">86</text><line x1="501.6" y1="109.1" x2="510.9" y2="109.1" class="ul"/>
<circle cx="525.0" cy="64.6" r="2.1" class="rdot"/><text x="525.0" y="74.9" class="num">139</text><line x1="518.1" y1="76.6" x2="531.9" y2="76.6" class="ul"/>
<circle cx="723.8" cy="144.7" r="2.1" class="rdot"/><text x="731.2" y="150.7" class="num">126</text><line x1="724.4" y1="152.4" x2="738.1" y2="152.4" class="ul"/>
<circle cx="693.8" cy="157.7" r="2.1" class="rdot"/><text x="693.8" y="150.7" class="num">25</text><line x1="689.1" y1="152.4" x2="698.4" y2="152.4" class="ul"/>
<circle cx="663.8" cy="144.7" r="2.1" class="rdot"/><text x="656.2" y="150.7" class="num">127</text><line x1="649.4" y1="152.4" x2="663.1" y2="152.4" class="ul"/>
<circle cx="626.2" cy="144.7" r="2.1" class="rdot"/><text x="618.8" y="150.7" class="num">156</text><line x1="611.9" y1="152.4" x2="625.6" y2="152.4" class="ul"/>
<circle cx="712.5" cy="125.3" r="2.1" class="rdot"/><text x="712.5" y="118.2" class="num">9</text><line x1="710.2" y1="119.9" x2="714.8" y2="119.9" class="ul"/>
<circle cx="667.5" cy="112.3" r="2.1" class="rdot"/><text x="675.0" y="118.2" class="num">111</text><line x1="668.1" y1="119.9" x2="681.9" y2="119.9" class="ul"/>
<circle cx="630.0" cy="112.3" r="2.1" class="rdot"/><text x="637.5" y="118.2" class="num">96</text><line x1="632.9" y1="119.9" x2="642.1" y2="119.9" class="ul"/>
<circle cx="701.2" cy="79.8" r="2.1" class="rdot"/><text x="693.8" y="85.7" class="num">114</text><line x1="686.9" y1="87.4" x2="700.6" y2="87.4" class="ul"/>
<circle cx="656.2" cy="92.8" r="2.1" class="rdot"/><text x="656.2" y="85.7" class="num">49</text><line x1="651.6" y1="87.4" x2="660.9" y2="87.4" class="ul"/>
<circle cx="667.5" cy="47.3" r="2.1" class="rdot"/><text x="675.0" y="53.3" class="num">75</text><line x1="670.4" y1="55.0" x2="679.6" y2="55.0" class="ul"/>
<circle cx="720.0" cy="142.6" r="2.1" class="rdot"/><text x="712.5" y="139.9" class="num">40</text><line x1="707.9" y1="141.6" x2="717.1" y2="141.6" class="ul"/>
<circle cx="675.0" cy="129.6" r="2.1" class="rdot"/><text x="675.0" y="139.9" class="num">50</text><line x1="670.4" y1="141.6" x2="679.6" y2="141.6" class="ul"/>
<circle cx="630.0" cy="142.6" r="2.1" class="rdot"/><text x="637.5" y="139.9" class="num">109</text><line x1="630.6" y1="141.6" x2="644.4" y2="141.6" class="ul"/>
<circle cx="686.2" cy="110.1" r="2.1" class="rdot"/><text x="693.8" y="107.4" class="num">147</text><line x1="686.9" y1="109.1" x2="700.6" y2="109.1" class="ul"/>
<circle cx="648.8" cy="110.1" r="2.1" class="rdot"/><text x="656.2" y="107.4" class="num">13</text><line x1="651.6" y1="109.1" x2="660.9" y2="109.1" class="ul"/>
<circle cx="667.5" cy="77.6" r="2.1" class="rdot"/><text x="675.0" y="74.9" class="num">132</text><line x1="668.1" y1="76.6" x2="681.9" y2="76.6" class="ul"/>
<circle cx="26.2" cy="175.1" r="2.1" class="rdot"/><text x="18.8" y="172.3" class="num">88</text><line x1="14.2" y1="174.0" x2="23.4" y2="174.0" class="ul"/>
<circle cx="63.8" cy="175.1" r="2.1" class="rdot"/><text x="56.2" y="172.3" class="num">83</text><line x1="51.6" y1="174.0" x2="60.9" y2="174.0" class="ul"/>
<circle cx="123.8" cy="175.1" r="2.1" class="rdot"/><text x="131.2" y="172.3" class="num">100</text><line x1="124.3" y1="174.0" x2="138.2" y2="174.0" class="ul"/>
<circle cx="45.0" cy="207.5" r="2.1" class="rdot"/><text x="37.5" y="204.8" class="num">89</text><line x1="32.9" y1="206.5" x2="42.1" y2="206.5" class="ul"/>
<circle cx="120.0" cy="207.5" r="2.1" class="rdot"/><text x="112.5" y="204.8" class="num">38</text><line x1="107.9" y1="206.5" x2="117.1" y2="206.5" class="ul"/>
<circle cx="63.8" cy="240.0" r="2.1" class="rdot"/><text x="56.2" y="237.3" class="num">137</text><line x1="49.4" y1="239.0" x2="63.1" y2="239.0" class="ul"/>
<circle cx="86.2" cy="240.0" r="2.1" class="rdot"/><text x="93.8" y="237.3" class="num">44</text><line x1="89.2" y1="239.0" x2="98.3" y2="239.0" class="ul"/>
<circle cx="82.5" cy="272.5" r="2.1" class="rdot"/><text x="75.0" y="269.8" class="num">76</text><line x1="70.4" y1="271.5" x2="79.6" y2="271.5" class="ul"/>
<circle cx="37.5" cy="190.2" r="2.1" class="rdot"/><text x="37.5" y="183.2" class="num">15</text><line x1="32.9" y1="184.9" x2="42.1" y2="184.9" class="ul"/>
<circle cx="75.0" cy="190.2" r="2.1" class="rdot"/><text x="75.0" y="183.2" class="num">119</text><line x1="68.1" y1="184.9" x2="81.9" y2="184.9" class="ul"/>
<circle cx="112.5" cy="190.2" r="2.1" class="rdot"/><text x="112.5" y="183.2" class="num">133</text><line x1="105.6" y1="184.9" x2="119.4" y2="184.9" class="ul"/>
<circle cx="48.8" cy="209.7" r="2.1" class="rdot"/><text x="56.2" y="215.6" class="num">153</text><line x1="49.4" y1="217.3" x2="63.1" y2="217.3" class="ul"/>
<circle cx="86.2" cy="209.7" r="2.1" class="rdot"/><text x="93.8" y="215.6" class="num">145</text><line x1="86.8" y1="217.3" x2="100.7" y2="217.3" class="ul"/>
<circle cx="161.2" cy="175.1" r="2.1" class="rdot"/><text x="168.8" y="172.3" class="num">152</text><line x1="161.8" y1="174.0" x2="175.7" y2="174.0" class="ul"/>
<circle cx="198.8" cy="175.1" r="2.1" class="rdot"/><text x="206.2" y="172.3" class="num">14</text><line x1="201.7" y1="174.0" x2="210.8" y2="174.0" class="ul"/>
<circle cx="236.2" cy="175.1" r="2.1" class="rdot"/><text x="243.8" y="172.3" class="num">117</text><line x1="236.8" y1="174.0" x2="250.7" y2="174.0" class="ul"/>
<circle cx="281.2" cy="162.1" r="2.1" class="rdot"/><text x="281.2" y="172.3" class="num">77</text><line x1="276.6" y1="174.0" x2="285.9" y2="174.0" class="ul"/>
<circle cx="195.0" cy="207.5" r="2.1" class="rdot"/><text x="187.5" y="204.8" class="num">84</text><line x1="182.9" y1="206.5" x2="192.1" y2="206.5" class="ul"/>
<circle cx="225.0" cy="194.5" r="2.1" class="rdot"/><text x="225.0" y="204.8" class="num">103</text><line x1="218.1" y1="206.5" x2="231.9" y2="206.5" class="ul"/>
<circle cx="213.8" cy="240.0" r="2.1" class="rdot"/><text x="206.2" y="237.3" class="num">41</text><line x1="201.7" y1="239.0" x2="210.8" y2="239.0" class="ul"/>
<circle cx="243.8" cy="227.0" r="2.1" class="rdot"/><text x="243.8" y="237.3" class="num">51</text><line x1="239.2" y1="239.0" x2="248.3" y2="239.0" class="ul"/>
<circle cx="232.5" cy="272.5" r="2.1" class="rdot"/><text x="225.0" y="269.8" class="num">70</text><line x1="220.4" y1="271.5" x2="229.6" y2="271.5" class="ul"/>
<circle cx="195.0" cy="177.2" r="2.1" class="rdot"/><text x="187.5" y="183.2" class="num">30</text><line x1="182.9" y1="184.9" x2="192.1" y2="184.9" class="ul"/>
<circle cx="225.0" cy="190.2" r="2.1" class="rdot"/><text x="225.0" y="183.2" class="num">144</text><line x1="218.1" y1="184.9" x2="231.9" y2="184.9" class="ul"/>
<circle cx="270.0" cy="177.2" r="2.1" class="rdot"/><text x="262.5" y="183.2" class="num">21</text><line x1="257.9" y1="184.9" x2="267.1" y2="184.9" class="ul"/>
<circle cx="236.2" cy="209.7" r="2.1" class="rdot"/><text x="243.8" y="215.6" class="num">52</text><line x1="239.2" y1="217.3" x2="248.3" y2="217.3" class="ul"/>
<circle cx="225.0" cy="255.2" r="2.1" class="rdot"/><text x="225.0" y="248.1" class="num">61</text><line x1="220.4" y1="249.8" x2="229.6" y2="249.8" class="ul"/>
<circle cx="356.2" cy="162.1" r="2.1" class="rdot"/><text x="356.2" y="172.3" class="num">69</text><line x1="351.6" y1="174.0" x2="360.9" y2="174.0" class="ul"/>
<circle cx="386.2" cy="175.1" r="2.1" class="rdot"/><text x="393.8" y="172.3" class="num">146</text><line x1="386.9" y1="174.0" x2="400.6" y2="174.0" class="ul"/>
<circle cx="345.0" cy="207.5" r="2.1" class="rdot"/><text x="337.5" y="204.8" class="num">55</text><line x1="332.9" y1="206.5" x2="342.1" y2="206.5" class="ul"/>
<circle cx="420.0" cy="207.5" r="2.1" class="rdot"/><text x="412.5" y="204.8" class="num">159</text><line x1="405.6" y1="206.5" x2="419.4" y2="206.5" class="ul"/>
<circle cx="363.8" cy="240.0" r="2.1" class="rdot"/><text x="356.2" y="237.3" class="num">92</text><line x1="351.6" y1="239.0" x2="360.9" y2="239.0" class="ul"/>
<circle cx="386.2" cy="240.0" r="2.1" class="rdot"/><text x="393.8" y="237.3" class="num">151</text><line x1="386.9" y1="239.0" x2="400.6" y2="239.0" class="ul"/>
<circle cx="375.0" cy="259.5" r="2.1" class="rdot"/><text x="375.0" y="269.8" class="num">113</text><line x1="368.1" y1="271.5" x2="381.9" y2="271.5" class="ul"/>
<circle cx="345.0" cy="177.2" r="2.1" class="rdot"/><text x="337.5" y="183.2" class="num">142</text><line x1="330.6" y1="184.9" x2="344.4" y2="184.9" class="ul"/>
<circle cx="367.5" cy="177.2" r="2.1" class="rdot"/><text x="375.0" y="183.2" class="num">129</text><line x1="368.1" y1="184.9" x2="381.9" y2="184.9" class="ul"/>
<circle cx="412.5" cy="190.2" r="2.1" class="rdot"/><text x="412.5" y="183.2" class="num">32</text><line x1="407.9" y1="184.9" x2="417.1" y2="184.9" class="ul"/>
<circle cx="348.8" cy="209.7" r="2.1" class="rdot"/><text x="356.2" y="215.6" class="num">63</text><line x1="351.6" y1="217.3" x2="360.9" y2="217.3" class="ul"/>
<circle cx="393.8" cy="222.7" r="2.1" class="rdot"/><text x="393.8" y="215.6" class="num">68</text><line x1="389.1" y1="217.3" x2="398.4" y2="217.3" class="ul"/>
<circle cx="367.5" cy="242.2" r="2.1" class="rdot"/><text x="375.0" y="248.1" class="num">48</text><line x1="370.4" y1="249.8" x2="379.6" y2="249.8" class="ul"/>
<circle cx="461.2" cy="175.1" r="2.1" class="rdot"/><text x="468.8" y="172.3" class="num">22</text><line x1="464.1" y1="174.0" x2="473.4" y2="174.0" class="ul"/>
<circle cx="543.8" cy="162.1" r="2.1" class="rdot"/><text x="543.8" y="172.3" class="num">29</text><line x1="539.1" y1="174.0" x2="548.4" y2="174.0" class="ul"/>
<circle cx="588.8" cy="175.1" r="2.1" class="rdot"/><text x="581.2" y="172.3" class="num">122</text><line x1="574.4" y1="174.0" x2="588.1" y2="174.0" class="ul"/>
<circle cx="525.0" cy="194.5" r="2.1" class="rdot"/><text x="525.0" y="204.8" class="num">80</text><line x1="520.4" y1="206.5" x2="529.6" y2="206.5" class="ul"/>
<circle cx="562.5" cy="194.5" r="2.1" class="rdot"/><text x="562.5" y="204.8" class="num">135</text><line x1="555.6" y1="206.5" x2="569.4" y2="206.5" class="ul"/>
<circle cx="498.8" cy="240.0" r="2.1" class="rdot"/><text x="506.2" y="237.3" class="num">6</text><line x1="503.9" y1="239.0" x2="508.6" y2="239.0" class="ul"/>
<circle cx="495.0" cy="177.2" r="2.1" class="rdot"/><text x="487.5" y="183.2" class="num">107</text><line x1="480.6" y1="184.9" x2="494.4" y2="184.9" class="ul"/>
<circle cx="532.5" cy="177.2" r="2.1" class="rdot"/><text x="525.0" y="183.2" class="num">57</text><line x1="520.4" y1="184.9" x2="529.6" y2="184.9" class="ul"/>
<circle cx="506.2" cy="222.7" r="2.1" class="rdot"/><text x="506.2" y="215.6" class="num">124</text><line x1="499.4" y1="217.3" x2="513.1" y2="217.3" class="ul"/>
<circle cx="536.2" cy="209.7" r="2.1" class="rdot"/><text x="543.8" y="215.6" class="num">82</text><line x1="539.1" y1="217.3" x2="548.4" y2="217.3" class="ul"/>
<circle cx="517.5" cy="242.2" r="2.1" class="rdot"/><text x="525.0" y="248.1" class="num">160</text><line x1="518.1" y1="249.8" x2="531.9" y2="249.8" class="ul"/>
<circle cx="656.2" cy="162.1" r="2.1" class="rdot"/><text x="656.2" y="172.3" class="num">95</text><line x1="651.6" y1="174.0" x2="660.9" y2="174.0" class="ul"/>
<circle cx="686.2" cy="175.1" r="2.1" class="rdot"/><text x="693.8" y="172.3" class="num">19</text><line x1="689.1" y1="174.0" x2="698.4" y2="174.0" class="ul"/>
<circle cx="731.2" cy="162.1" r="2.1" class="rdot"/><text x="731.2" y="172.3" class="num">62</text><line x1="726.6" y1="174.0" x2="735.9" y2="174.0" class="ul"/>
<circle cx="630.0" cy="207.5" r="2.1" class="rdot"/><text x="637.5" y="204.8" class="num">157</text><line x1="630.6" y1="206.5" x2="644.4" y2="206.5" class="ul"/>
<circle cx="675.0" cy="194.5" r="2.1" class="rdot"/><text x="675.0" y="204.8" class="num">108</text><line x1="668.1" y1="206.5" x2="681.9" y2="206.5" class="ul"/>
<circle cx="720.0" cy="207.5" r="2.1" class="rdot"/><text x="712.5" y="204.8" class="num">81</text><line x1="707.9" y1="206.5" x2="717.1" y2="206.5" class="ul"/>
<circle cx="648.8" cy="240.0" r="2.1" class="rdot"/><text x="656.2" y="237.3" class="num">87</text><line x1="651.6" y1="239.0" x2="660.9" y2="239.0" class="ul"/>
<circle cx="693.8" cy="227.0" r="2.1" class="rdot"/><text x="693.8" y="237.3" class="num">134</text><line x1="686.9" y1="239.0" x2="700.6" y2="239.0" class="ul"/>
<circle cx="682.5" cy="272.5" r="2.1" class="rdot"/><text x="675.0" y="269.8" class="num">158</text><line x1="668.1" y1="271.5" x2="681.9" y2="271.5" class="ul"/>
<circle cx="645.0" cy="177.2" r="2.1" class="rdot"/><text x="637.5" y="183.2" class="num">136</text><line x1="630.6" y1="184.9" x2="644.4" y2="184.9" class="ul"/>
<circle cx="663.8" cy="209.7" r="2.1" class="rdot"/><text x="656.2" y="215.6" class="num">140</text><line x1="649.4" y1="217.3" x2="663.1" y2="217.3" class="ul"/>
<circle cx="693.8" cy="222.7" r="2.1" class="rdot"/><text x="693.8" y="215.6" class="num">45</text><line x1="689.1" y1="217.3" x2="698.4" y2="217.3" class="ul"/>
<text x="75.0" y="22.0" class="flb">T0</text>
<text x="75.0" y="305.8" class="flb">B0</text>
<text x="225.0" y="22.0" class="flb">T1</text>
<text x="225.0" y="305.8" class="flb">B1</text>
<text x="375.0" y="22.0" class="flb">T2</text>
<text x="375.0" y="305.8" class="flb">B2</text>
<text x="525.0" y="22.0" class="flb">T3</text>
<text x="525.0" y="305.8" class="flb">B3</text>
<text x="675.0" y="22.0" class="flb">T4</text>
<text x="675.0" y="305.8" class="flb">B4</text>
</svg>