<svg xmlns="http://www.w3.org/2000/svg" width="608" height="1794" viewBox="0 0 608 1794" font-family="sans-serif">
<style>.tri{stroke:#666;stroke-width:.8;}.ln{fill:none;stroke:#747604;stroke-width:1.5;stroke-linecap:round}.halo{fill:none;stroke:#333;stroke-width:2.6;stroke-linecap:round;opacity:.5}.num{font-size:9px;fill:#111;text-anchor:middle;font-weight:bold}.hdr{font-size:15px;fill:#000;font-weight:bold}.ttl{font-size:16px;fill:#000;font-weight:bold}</style>
<rect x="0" y="0" width="608" height="1794" fill="#fff"/>
<text x="16.0" y="24" class="ttl">Diamond Dilemma, all 160 tiles, GOLD lines (Jaap's sheet order)</text>
<text x="16.0" y="60" class="hdr">Silver tiles 1 to 32</text>
<path class="tri" fill="#e9e9e9" d="M80.8,137.9L23.2,137.9L52.0,88.0Z"/>
<path class="ln" d="M66.4,137.9Q62.6,125.5 68.8,117.1 M47.2,137.9Q46.3,122.7 40.0,108.8 M49.6,92.2Q54.4,105.7 61.6,104.6"/>
<text x="52.0" y="84.0" class="num">1</text>
<path class="tri" fill="#e9e9e9" d="M152.8,137.9L95.2,137.9L124.0,88.0Z"/>
<path class="ln" d="M104.8,137.9Q109.3,129.7 100.0,129.6 M138.4,137.9Q137.9,131.1 150.4,133.7 M109.6,137.9Q122.4,121.3 133.6,104.6"/>
<text x="124.0" y="84.0" class="num">2</text>
<path class="tri" fill="#e9e9e9" d="M224.8,137.9L167.2,137.9L196.0,88.0Z"/>
<path class="ln" d="M186.4,137.9Q200.1,128.3 217.6,125.4 M184.0,108.8Q196.8,114.2 210.4,112.9"/>
<text x="196.0" y="84.0" class="num">3</text>
<path class="tri" fill="#e9e9e9" d="M296.8,137.9L239.2,137.9L268.0,88.0Z"/>
<path class="ln" d="M282.4,137.9Q280.2,128.3 289.6,125.4 M265.6,92.2Q269.6,104.3 275.2,100.5"/>
<text x="268.0" y="84.0" class="num">4</text>
<path class="tri" fill="#e9e9e9" d="M368.8,137.9L311.2,137.9L340.0,88.0Z"/>
<path class="ln" d="M335.2,137.9Q329.4,131.1 313.6,133.7 M325.6,112.9Q335.9,108.5 342.4,92.2"/>
<text x="340.0" y="84.0" class="num">5</text>
<path class="tri" fill="#e9e9e9" d="M440.8,137.9L383.2,137.9L412.0,88.0Z"/>
<path class="ln" d="M431.2,137.9Q412.0,126.9 392.8,121.3 M407.2,96.3Q416.9,112.8 431.2,121.3"/>
<text x="412.0" y="84.0" class="num">6</text>
<path class="tri" fill="#e9e9e9" d="M512.8,137.9L455.2,137.9L484.0,88.0Z"/>
<path class="ln" d="M464.8,137.9Q483.2,125.5 500.8,117.1 M479.2,96.3Q484.8,105.7 491.2,100.5"/>
<text x="484.0" y="84.0" class="num">7</text>
<path class="tri" fill="#e9e9e9" d="M584.8,137.9L527.2,137.9L556.0,88.0Z"/>
<path class="ln" d="M532.0,137.9Q540.5,128.3 534.4,125.4 M570.4,137.9Q569.9,131.1 582.4,133.7 M546.4,104.6Q560.1,117.0 577.6,125.4"/>
<text x="556.0" y="84.0" class="num">8</text>
<path class="tri" fill="#e9e9e9" d="M80.8,219.9L23.2,219.9L52.0,170.0Z"/>
<path class="ln" d="M76.0,219.9Q61.8,200.4 56.8,178.3 M25.6,215.7Q38.1,204.7 37.6,194.9"/>
<text x="52.0" y="166.0" class="num">9</text>
<path class="tri" fill="#e9e9e9" d="M152.8,219.9L95.2,219.9L124.0,170.0Z"/>
<path class="ln" d="M114.4,219.9Q119.1,200.4 119.2,178.3"/>
<text x="124.0" y="166.0" class="num">10</text>
<path class="tri" fill="#e9e9e9" d="M224.8,219.9L167.2,219.9L196.0,170.0Z"/>
<path class="ln" d="M172.0,211.6Q195.2,207.5 217.6,207.4 M176.8,203.3Q194.4,200.4 210.4,194.9"/>
<text x="196.0" y="166.0" class="num">11</text>
<path class="tri" fill="#e9e9e9" d="M296.8,219.9L239.2,219.9L268.0,170.0Z"/>
<path class="ln" d="M292.0,219.9Q281.1,214.6 282.4,219.9 M253.6,219.9Q254.1,213.1 241.6,215.7 M265.6,174.2Q271.3,189.1 280.0,190.8"/>
<text x="268.0" y="166.0" class="num">12</text>
<path class="tri" fill="#e9e9e9" d="M368.8,219.9L311.2,219.9L340.0,170.0Z"/>
<path class="ln" d="M364.0,219.9Q353.9,207.5 356.8,199.1 M335.2,219.9Q329.4,213.1 313.6,215.7 M330.4,186.6Q337.6,187.7 342.4,174.2"/>
<text x="340.0" y="166.0" class="num">13</text>
<path class="tri" fill="#e9e9e9" d="M440.8,219.9L383.2,219.9L412.0,170.0Z"/>
<path class="ln" d="M412.0,219.9Q419.3,210.3 433.6,207.4 M407.2,219.9Q402.2,211.7 388.0,211.6 M392.8,203.3Q407.9,196.2 419.2,182.5"/>
<text x="412.0" y="166.0" class="num">14</text>
<path class="tri" fill="#e9e9e9" d="M512.8,219.9L455.2,219.9L484.0,170.0Z"/>
<path class="ln" d="M464.8,219.9Q470.9,208.9 464.8,203.3 M484.0,219.9Q492.2,211.7 508.0,211.6 M474.4,186.6Q484.0,191.9 493.6,186.6"/>
<text x="484.0" y="166.0" class="num">15</text>
<path class="tri" fill="#e9e9e9" d="M584.8,219.9L527.2,219.9L556.0,170.0Z"/>
<path class="ln" d="M556.0,219.9Q547.8,211.7 532.0,211.6 M539.2,199.1Q549.5,191.9 553.6,174.2"/>
<text x="556.0" y="166.0" class="num">16</text>
<path class="tri" fill="#e9e9e9" d="M80.8,301.9L23.2,301.9L52.0,252.0Z"/>
<path class="ln" d="M32.8,301.9Q38.1,292.3 30.4,289.4 M66.4,301.9Q52.0,288.1 37.6,276.9"/>
<text x="52.0" y="248.0" class="num">17</text>
<path class="tri" fill="#e9e9e9" d="M152.8,301.9L95.2,301.9L124.0,252.0Z"/>
<path class="ln" d="M143.2,301.9Q137.9,292.3 145.6,289.4 M104.8,285.3Q119.9,278.2 131.2,264.5 M107.2,281.1Q119.9,275.4 128.8,260.3"/>
<text x="124.0" y="248.0" class="num">18</text>
<path class="tri" fill="#e9e9e9" d="M224.8,301.9L167.2,301.9L196.0,252.0Z"/>
<path class="ln" d="M191.2,301.9Q203.3,295.1 222.4,297.7 M186.4,301.9Q196.8,286.7 208.0,272.8 M179.2,281.1Q191.9,275.4 200.8,260.3"/>
<text x="196.0" y="248.0" class="num">19</text>
<path class="tri" fill="#e9e9e9" d="M296.8,301.9L239.2,301.9L268.0,252.0Z"/>
<path class="ln" d="M292.0,301.9Q277.8,282.4 272.8,260.3 M244.0,301.9Q253.3,290.9 248.8,285.3"/>
<text x="268.0" y="248.0" class="num">20</text>
<path class="tri" fill="#e9e9e9" d="M368.8,301.9L311.2,301.9L340.0,252.0Z"/>
<path class="ln" d="M344.8,301.9Q338.4,296.6 330.4,301.9 M332.8,264.5Q344.1,278.2 359.2,285.3"/>
<text x="340.0" y="248.0" class="num">21</text>
<path class="tri" fill="#e9e9e9" d="M440.8,301.9L383.2,301.9L412.0,252.0Z"/>
<path class="ln" d="M392.8,301.9Q398.1,292.3 390.4,289.4 M407.2,301.9Q419.3,295.1 438.4,297.7 M397.6,276.9Q413.6,282.4 431.2,285.3"/>
<text x="412.0" y="248.0" class="num">22</text>
<path class="tri" fill="#e9e9e9" d="M512.8,301.9L455.2,301.9L484.0,252.0Z"/>
<path class="ln" d="M479.2,301.9Q486.4,286.7 496.0,272.8 M469.6,301.9Q471.8,292.3 462.4,289.4 M474.4,268.6Q483.2,272.5 491.2,264.5"/>
<text x="484.0" y="248.0" class="num">23</text>
<path class="tri" fill="#e9e9e9" d="M584.8,301.9L527.2,301.9L556.0,252.0Z"/>
<path class="ln" d="M546.4,301.9Q561.7,295.1 582.4,297.7 M541.6,301.9Q556.8,289.5 572.8,281.1 M553.6,256.2Q558.4,269.7 565.6,268.6"/>
<text x="556.0" y="248.0" class="num">24</text>
<path class="tri" fill="#e9e9e9" d="M80.8,383.9L23.2,383.9L52.0,334.0Z"/>
<path class="ln" d="M76.0,383.9Q61.8,364.4 56.8,342.3 M32.8,383.9Q38.1,374.3 30.4,371.4 M47.2,383.9Q47.9,365.8 44.8,346.5"/>
<text x="52.0" y="330.0" class="num">25</text>
<path class="tri" fill="#e9e9e9" d="M152.8,383.9L95.2,383.9L124.0,334.0Z"/>
<path class="ln" d="M148.0,383.9Q135.4,367.3 133.6,350.6 M128.8,383.9Q126.4,363.0 126.4,338.2 M114.4,383.9Q112.6,375.7 100.0,375.6"/>
<text x="124.0" y="330.0" class="num">26</text>
<path class="tri" fill="#e9e9e9" d="M224.8,383.9L167.2,383.9L196.0,334.0Z"/>
<path class="ln" d="M176.8,383.9Q180.5,377.1 169.6,379.7 M174.4,371.4Q191.1,361.6 203.2,346.5"/>
<text x="196.0" y="330.0" class="num">27</text>
<path class="tri" fill="#e9e9e9" d="M296.8,383.9L239.2,383.9L268.0,334.0Z"/>
<path class="ln" d="M282.4,383.9Q268.8,368.7 256.0,354.8"/>
<text x="268.0" y="330.0" class="num">28</text>
<path class="tri" fill="#e9e9e9" d="M368.8,383.9L311.2,383.9L340.0,334.0Z"/>
<path class="ln" d="M364.0,383.9Q346.5,364.4 335.2,342.3 M316.0,383.9Q324.5,374.3 318.4,371.4"/>
<text x="340.0" y="330.0" class="num">29</text>
<path class="tri" fill="#e9e9e9" d="M440.8,383.9L383.2,383.9L412.0,334.0Z"/>
<path class="ln" d="M416.8,383.9Q413.6,378.6 412.0,383.9 M402.4,350.6Q407.9,351.7 409.6,338.2"/>
<text x="412.0" y="330.0" class="num">30</text>
<path class="tri" fill="#e9e9e9" d="M512.8,383.9L455.2,383.9L484.0,334.0Z"/>
<path class="ln" d="M493.6,383.9Q491.3,368.7 496.0,354.8 M484.0,383.9Q485.6,364.4 488.8,342.3"/>
<text x="484.0" y="330.0" class="num">31</text>
<path class="tri" fill="#e9e9e9" d="M584.8,383.9L527.2,383.9L556.0,334.0Z"/>
<path class="ln" d="M580.0,383.9Q568.2,368.7 568.0,354.8 M570.4,383.9Q557.6,367.3 546.4,350.6 M541.6,383.9Q546.2,370.1 541.6,358.9"/>
<text x="556.0" y="330.0" class="num">32</text>
<text x="16.0" y="408" class="hdr">Red tiles 33 to 80</text>
<path class="tri" fill="#f4d3d3" d="M80.8,485.9L23.2,485.9L52.0,436.0Z"/>
<path class="ln" d="M28.0,485.9Q41.4,467.8 44.8,448.5 M66.4,460.9Q64.2,467.8 73.6,473.4"/>
<text x="52.0" y="432.0" class="num">33</text>
<path class="tri" fill="#f4d3d3" d="M152.8,485.9L95.2,485.9L124.0,436.0Z"/>
<path class="ln" d="M138.4,485.9Q121.6,476.3 102.4,473.4 M116.8,448.5Q129.7,465.0 148.0,477.6"/>
<text x="124.0" y="432.0" class="num">34</text>
<path class="tri" fill="#f4d3d3" d="M224.8,485.9L167.2,485.9L196.0,436.0Z"/>
<path class="ln" d="M220.0,485.9Q207.4,469.3 205.6,452.6 M191.2,485.9Q187.8,480.6 176.8,485.9 M174.4,473.4Q189.5,460.8 198.4,440.2"/>
<text x="196.0" y="432.0" class="num">35</text>
<path class="tri" fill="#f4d3d3" d="M296.8,485.9L239.2,485.9L268.0,436.0Z"/>
<path class="ln" d="M287.2,485.9Q265.6,479.1 241.6,481.7 M244.0,477.6Q263.1,466.4 277.6,452.6"/>
<text x="268.0" y="432.0" class="num">36</text>
<path class="tri" fill="#f4d3d3" d="M368.8,485.9L311.2,485.9L340.0,436.0Z"/>
<path class="ln" d="M320.8,485.9Q330.2,469.3 330.4,452.6"/>
<text x="340.0" y="432.0" class="num">37</text>
<path class="tri" fill="#f4d3d3" d="M440.8,485.9L383.2,485.9L412.0,436.0Z"/>
<path class="ln" d="M392.8,485.9Q400.6,472.1 397.6,460.9 M400.0,456.8Q413.6,463.6 428.8,465.1"/>
<text x="412.0" y="432.0" class="num">38</text>
<path class="tri" fill="#f4d3d3" d="M512.8,485.9L455.2,485.9L484.0,436.0Z"/>
<path class="ln" d="M503.2,485.9Q499.5,479.1 510.4,481.7 M474.4,485.9Q484.8,470.7 496.0,456.8 M469.6,460.9Q480.7,457.9 488.8,444.3"/>
<text x="484.0" y="432.0" class="num">39</text>
<path class="tri" fill="#f4d3d3" d="M584.8,485.9L527.2,485.9L556.0,436.0Z"/>
<path class="ln" d="M565.6,485.9Q566.6,476.3 577.6,473.4 M553.6,440.2Q557.6,452.3 563.2,448.5"/>
<text x="556.0" y="432.0" class="num">40</text>
<path class="tri" fill="#f4d3d3" d="M80.8,567.9L23.2,567.9L52.0,518.0Z"/>
<path class="ln" d="M56.8,567.9Q44.7,561.1 25.6,563.7 M40.0,538.8Q46.3,538.5 47.2,526.3"/>
<text x="52.0" y="514.0" class="num">41</text>
<path class="tri" fill="#f4d3d3" d="M152.8,567.9L95.2,567.9L124.0,518.0Z"/>
<path class="ln" d="M100.0,567.9Q117.5,548.4 128.8,526.3 M116.8,530.5Q122.4,534.3 126.4,522.2"/>
<text x="124.0" y="514.0" class="num">42</text>
<path class="tri" fill="#f4d3d3" d="M224.8,567.9L167.2,567.9L196.0,518.0Z"/>
<path class="ln" d="M205.6,567.9Q208.2,561.1 222.4,563.7 M186.4,567.9Q185.4,558.3 174.4,555.4 M193.6,522.2Q200.9,539.9 212.8,547.1"/>
<text x="196.0" y="514.0" class="num">43</text>
<path class="tri" fill="#f4d3d3" d="M296.8,567.9L239.2,567.9L268.0,518.0Z"/>
<path class="ln" d="M287.2,567.9Q282.7,559.7 292.0,559.6 M268.0,567.9Q274.5,556.9 287.2,551.3"/>
<text x="268.0" y="514.0" class="num">44</text>
<path class="tri" fill="#f4d3d3" d="M368.8,567.9L311.2,567.9L340.0,518.0Z"/>
<path class="ln" d="M354.4,567.9Q350.6,555.5 356.8,547.1 M349.6,567.9Q348.2,554.1 354.4,542.9 M316.0,559.6Q332.7,544.2 342.4,522.2"/>
<text x="340.0" y="514.0" class="num">45</text>
<path class="tri" fill="#f4d3d3" d="M440.8,567.9L383.2,567.9L412.0,518.0Z"/>
<path class="ln" d="M388.0,567.9Q399.8,552.7 400.0,538.8 M421.6,567.9Q418.5,551.3 421.6,534.6 M409.6,522.2Q413.6,534.3 419.2,530.5"/>
<text x="412.0" y="514.0" class="num">46</text>
<path class="tri" fill="#f4d3d3" d="M512.8,567.9L455.2,567.9L484.0,518.0Z"/>
<path class="ln" d="M464.8,567.9Q470.1,558.3 462.4,555.4 M484.0,567.9Q478.3,555.5 467.2,547.1"/>
<text x="484.0" y="514.0" class="num">47</text>
<path class="tri" fill="#f4d3d3" d="M584.8,567.9L527.2,567.9L556.0,518.0Z"/>
<path class="ln" d="M570.4,567.9Q569.9,561.1 582.4,563.7 M536.8,551.3Q545.4,547.0 544.0,538.8 M570.4,542.9Q566.6,547.0 572.8,547.1"/>
<text x="556.0" y="514.0" class="num">48</text>
<path class="tri" fill="#f4d3d3" d="M80.8,649.9L23.2,649.9L52.0,600.0Z"/>
<path class="ln" d="M28.0,649.9Q42.2,630.4 47.2,608.3 M56.8,649.9Q52.8,629.0 49.6,604.2"/>
<text x="52.0" y="596.0" class="num">49</text>
<path class="tri" fill="#f4d3d3" d="M152.8,649.9L95.2,649.9L124.0,600.0Z"/>
<path class="ln" d="M148.0,649.9Q126.4,637.5 107.2,629.1 M119.2,608.3Q130.5,627.6 148.0,641.6"/>
<text x="124.0" y="596.0" class="num">50</text>
<path class="tri" fill="#f4d3d3" d="M224.8,649.9L167.2,649.9L196.0,600.0Z"/>
<path class="ln" d="M210.4,649.9Q203.3,631.8 203.2,612.5 M186.4,616.6Q191.1,619.1 191.2,608.3 M217.6,637.4Q211.5,637.5 220.0,641.6"/>
<text x="196.0" y="596.0" class="num">51</text>
<path class="tri" fill="#f4d3d3" d="M296.8,649.9L239.2,649.9L268.0,600.0Z"/>
<path class="ln" d="M248.8,649.9Q264.7,633.3 277.6,616.6 M260.8,612.5Q267.2,617.7 272.8,608.3"/>
<text x="268.0" y="596.0" class="num">52</text>
<path class="tri" fill="#f4d3d3" d="M368.8,649.9L311.2,649.9L340.0,600.0Z"/>
<path class="ln" d="M320.8,649.9Q332.7,629.0 337.6,604.2 M352.0,620.8Q353.1,633.3 366.4,645.7"/>
<text x="340.0" y="596.0" class="num">53</text>
<path class="tri" fill="#f4d3d3" d="M440.8,649.9L383.2,649.9L412.0,600.0Z"/>
<path class="ln" d="M388.0,649.9Q399.8,634.7 400.0,620.8 M397.6,649.9Q407.9,629.0 414.4,604.2"/>
<text x="412.0" y="596.0" class="num">54</text>
<path class="tri" fill="#f4d3d3" d="M512.8,649.9L455.2,649.9L484.0,600.0Z"/>
<path class="ln" d="M508.0,649.9Q493.8,630.4 488.8,608.3 M503.2,649.9Q484.8,637.5 467.2,629.1"/>
<text x="484.0" y="596.0" class="num">55</text>
<path class="tri" fill="#f4d3d3" d="M584.8,649.9L527.2,649.9L556.0,600.0Z"/>
<path class="ln" d="M560.8,649.9Q565.0,640.3 577.6,637.4 M546.4,649.9Q547.0,637.5 539.2,629.1 M544.0,620.8Q552.7,619.1 558.4,604.2"/>
<text x="556.0" y="596.0" class="num">56</text>
<path class="tri" fill="#f4d3d3" d="M80.8,731.9L23.2,731.9L52.0,682.0Z"/>
<path class="ln" d="M71.2,731.9Q62.6,716.7 64.0,702.8 M37.6,731.9Q43.8,715.3 42.4,698.6 M47.2,690.3Q51.2,696.9 54.4,686.2"/>
<text x="52.0" y="678.0" class="num">57</text>
<path class="tri" fill="#f4d3d3" d="M152.8,731.9L95.2,731.9L124.0,682.0Z"/>
<path class="ln" d="M124.0,731.9Q116.7,722.3 102.4,719.4 M112.0,702.8Q123.2,705.4 133.6,698.6"/>
<text x="124.0" y="678.0" class="num">58</text>
<path class="tri" fill="#f4d3d3" d="M224.8,731.9L167.2,731.9L196.0,682.0Z"/>
<path class="ln" d="M205.6,731.9Q208.2,725.1 222.4,727.7 M191.2,690.3Q196.8,699.7 203.2,694.5 M176.8,715.3Q194.4,712.4 210.4,706.9"/>
<text x="196.0" y="678.0" class="num">59</text>
<path class="tri" fill="#f4d3d3" d="M296.8,731.9L239.2,731.9L268.0,682.0Z"/>
<path class="ln" d="M244.0,731.9Q250.9,725.1 241.6,727.7 M268.0,731.9Q270.4,713.8 275.2,694.5"/>
<text x="268.0" y="678.0" class="num">60</text>
<path class="tri" fill="#f4d3d3" d="M368.8,731.9L311.2,731.9L340.0,682.0Z"/>
<path class="ln" d="M364.0,731.9Q353.9,719.5 356.8,711.1 M354.4,731.9Q338.4,720.9 320.8,715.3 M325.6,731.9Q326.9,723.7 316.0,723.6"/>
<text x="340.0" y="678.0" class="num">61</text>
<path class="tri" fill="#f4d3d3" d="M440.8,731.9L383.2,731.9L412.0,682.0Z"/>
<path class="ln" d="M402.4,731.9Q403.8,718.1 397.6,706.9 M402.4,698.6Q417.7,713.8 438.4,727.7"/>
<text x="412.0" y="678.0" class="num">62</text>
<path class="tri" fill="#f4d3d3" d="M512.8,731.9L455.2,731.9L484.0,682.0Z"/>
<path class="ln" d="M464.8,731.9Q485.6,723.7 508.0,723.6 M460.0,731.9Q466.9,725.1 457.6,727.7 M467.2,711.1Q482.4,709.6 496.0,702.8"/>
<text x="484.0" y="678.0" class="num">63</text>
<path class="tri" fill="#f4d3d3" d="M584.8,731.9L527.2,731.9L556.0,682.0Z"/>
<path class="ln" d="M580.0,731.9Q566.6,713.8 563.2,694.5 M560.8,731.9Q553.6,716.7 544.0,702.8"/>
<text x="556.0" y="678.0" class="num">64</text>
<path class="tri" fill="#f4d3d3" d="M80.8,813.9L23.2,813.9L52.0,764.0Z"/>
<path class="ln" d="M61.6,813.9Q62.6,804.3 73.6,801.4 M52.0,813.9Q47.1,800.1 37.6,788.9 M47.2,772.3Q52.8,781.7 59.2,776.5"/>
<text x="52.0" y="760.0" class="num">65</text>
<path class="tri" fill="#f4d3d3" d="M152.8,813.9L95.2,813.9L124.0,764.0Z"/>
<path class="ln" d="M143.2,813.9Q124.8,801.5 107.2,793.1"/>
<text x="124.0" y="760.0" class="num">66</text>
<path class="tri" fill="#f4d3d3" d="M224.8,813.9L167.2,813.9L196.0,764.0Z"/>
<path class="ln" d="M176.8,813.9Q196.0,802.9 215.2,797.3 M172.0,813.9Q191.1,797.3 205.6,780.6"/>
<text x="196.0" y="760.0" class="num">67</text>
<path class="tri" fill="#f4d3d3" d="M296.8,813.9L239.2,813.9L268.0,764.0Z"/>
<path class="ln" d="M244.0,805.6Q267.2,801.5 289.6,801.4 M260.8,776.5Q266.4,780.3 270.4,768.2"/>
<text x="268.0" y="760.0" class="num">68</text>
<path class="tri" fill="#f4d3d3" d="M368.8,813.9L311.2,813.9L340.0,764.0Z"/>
<path class="ln" d="M344.8,813.9Q349.0,804.3 361.6,801.4 M323.2,793.1Q339.2,793.0 354.4,788.9"/>
<text x="340.0" y="760.0" class="num">69</text>
<path class="tri" fill="#f4d3d3" d="M440.8,813.9L383.2,813.9L412.0,764.0Z"/>
<path class="ln" d="M436.0,813.9Q417.7,795.8 404.8,776.5 M407.2,813.9Q403.0,804.3 390.4,801.4 M409.6,768.2Q416.9,785.9 428.8,793.1"/>
<text x="412.0" y="760.0" class="num">70</text>
<path class="tri" fill="#f4d3d3" d="M512.8,813.9L455.2,813.9L484.0,764.0Z"/>
<path class="ln" d="M479.2,813.9Q489.7,804.3 505.6,801.4 M469.6,813.9Q475.8,797.3 474.4,780.6 M479.2,772.3Q487.3,785.9 498.4,788.9"/>
<text x="484.0" y="760.0" class="num">71</text>
<path class="tri" fill="#f4d3d3" d="M584.8,813.9L527.2,813.9L556.0,764.0Z"/>
<path class="ln" d="M560.8,813.9Q562.5,800.1 570.4,788.9 M532.0,805.6Q542.9,797.3 541.6,788.9 M548.8,776.5Q555.2,781.7 560.8,772.3"/>
<text x="556.0" y="760.0" class="num">72</text>
<path class="tri" fill="#f4d3d3" d="M80.8,895.9L23.2,895.9L52.0,846.0Z"/>
<path class="ln" d="M61.6,895.9Q61.0,883.5 68.8,875.1 M37.6,895.9Q45.5,876.4 47.2,854.3"/>
<text x="52.0" y="842.0" class="num">73</text>
<path class="tri" fill="#f4d3d3" d="M152.8,895.9L95.2,895.9L124.0,846.0Z"/>
<path class="ln" d="M100.0,895.9Q119.1,879.3 133.6,862.6 M138.4,895.9Q133.0,880.7 136.0,866.8"/>
<text x="124.0" y="842.0" class="num">74</text>
<path class="tri" fill="#f4d3d3" d="M224.8,895.9L167.2,895.9L196.0,846.0Z"/>
<path class="ln" d="M186.4,895.9Q187.8,890.6 181.6,895.9 M203.2,858.5Q202.5,867.9 208.0,866.8"/>
<text x="196.0" y="842.0" class="num">75</text>
<path class="tri" fill="#f4d3d3" d="M296.8,895.9L239.2,895.9L268.0,846.0Z"/>
<path class="ln" d="M272.8,895.9Q273.7,880.7 280.0,866.8 M256.0,866.8Q265.6,866.5 272.8,854.3"/>
<text x="268.0" y="842.0" class="num">76</text>
<path class="tri" fill="#f4d3d3" d="M368.8,895.9L311.2,895.9L340.0,846.0Z"/>
<path class="ln" d="M364.0,895.9Q357.1,889.1 366.4,891.7 M325.6,895.9Q328.6,884.9 320.8,879.3 M328.0,866.8Q344.1,877.8 364.0,887.6"/>
<text x="340.0" y="842.0" class="num">77</text>
<path class="tri" fill="#f4d3d3" d="M440.8,895.9L383.2,895.9L412.0,846.0Z"/>
<path class="ln" d="M388.0,895.9Q395.7,887.7 388.0,887.6 M426.4,895.9Q425.9,889.1 438.4,891.7 M400.0,866.8Q411.2,869.4 421.6,862.6"/>
<text x="412.0" y="842.0" class="num">78</text>
<path class="tri" fill="#f4d3d3" d="M512.8,895.9L455.2,895.9L484.0,846.0Z"/>
<path class="ln" d="M474.4,895.9Q479.9,875.0 481.6,850.2 M462.4,883.4Q474.2,873.6 476.8,858.5"/>
<text x="484.0" y="842.0" class="num">79</text>
<path class="tri" fill="#f4d3d3" d="M584.8,895.9L527.2,895.9L556.0,846.0Z"/>
<path class="ln" d="M551.2,895.9Q551.9,877.8 548.8,858.5 M532.0,895.9Q538.9,889.1 529.6,891.7"/>
<text x="556.0" y="842.0" class="num">80</text>
<text x="16.0" y="920" class="hdr">Blue tiles 81 to 160</text>
<path class="tri" fill="#d6e4f6" d="M80.8,997.9L23.2,997.9L52.0,948.0Z"/>
<path class="ln" d="M71.2,997.9Q66.7,989.7 76.0,989.6 M28.0,989.6Q42.2,975.6 47.2,956.3"/>
<text x="52.0" y="944.0" class="num">81</text>
<path class="tri" fill="#d6e4f6" d="M152.8,997.9L95.2,997.9L124.0,948.0Z"/>
<path class="ln" d="M102.4,985.4Q114.2,975.6 116.8,960.5 M131.2,960.5Q133.0,974.2 143.2,981.3"/>
<text x="124.0" y="944.0" class="num">82</text>
<path class="tri" fill="#d6e4f6" d="M224.8,997.9L167.2,997.9L196.0,948.0Z"/>
<path class="ln" d="M210.4,997.9Q207.4,986.9 215.2,981.3 M205.6,997.9Q190.3,991.1 169.6,993.7 M186.4,964.6Q196.0,969.9 205.6,964.6"/>
<text x="196.0" y="944.0" class="num">83</text>
<path class="tri" fill="#d6e4f6" d="M296.8,997.9L239.2,997.9L268.0,948.0Z"/>
<path class="ln" d="M287.2,997.9Q276.2,978.4 272.8,956.3 M272.8,997.9Q261.5,992.6 244.0,997.9"/>
<text x="268.0" y="944.0" class="num">84</text>
<path class="tri" fill="#d6e4f6" d="M368.8,997.9L311.2,997.9L340.0,948.0Z"/>
<path class="ln" d="M354.4,997.9Q352.2,988.3 361.6,985.4 M340.0,997.9Q332.7,988.3 318.4,985.4 M328.0,968.8Q339.2,971.4 349.6,964.6"/>
<text x="340.0" y="944.0" class="num">85</text>
<path class="tri" fill="#d6e4f6" d="M440.8,997.9L383.2,997.9L412.0,948.0Z"/>
<path class="ln" d="M431.2,997.9Q421.8,981.3 421.6,964.6 M388.0,989.6Q406.3,977.0 419.2,960.5"/>
<text x="412.0" y="944.0" class="num">86</text>
<path class="tri" fill="#d6e4f6" d="M512.8,997.9L455.2,997.9L484.0,948.0Z"/>
<path class="ln" d="M464.8,997.9Q473.4,982.7 472.0,968.8 M484.0,997.9Q492.2,989.7 508.0,989.6 M479.2,956.3Q489.7,974.2 505.6,985.4"/>
<text x="484.0" y="944.0" class="num">87</text>
<path class="tri" fill="#d6e4f6" d="M584.8,997.9L527.2,997.9L556.0,948.0Z"/>
<path class="ln" d="M575.2,997.9Q563.3,977.0 558.4,952.2 M546.4,997.9Q544.6,989.7 532.0,989.6"/>
<text x="556.0" y="944.0" class="num">88</text>
<path class="tri" fill="#d6e4f6" d="M80.8,1079.9L23.2,1079.9L52.0,1030.0Z"/>
<path class="ln" d="M37.6,1079.9Q38.9,1071.7 28.0,1071.6 M37.6,1054.9Q55.3,1063.3 76.0,1071.6"/>
<text x="52.0" y="1026.0" class="num">89</text>
<path class="tri" fill="#d6e4f6" d="M152.8,1079.9L95.2,1079.9L124.0,1030.0Z"/>
<path class="ln" d="M136.0,1050.8Q136.2,1061.8 148.0,1071.6"/>
<text x="124.0" y="1026.0" class="num">90</text>
<path class="tri" fill="#d6e4f6" d="M224.8,1079.9L167.2,1079.9L196.0,1030.0Z"/>
<path class="ln" d="M215.2,1079.9Q200.9,1074.6 191.2,1079.9 M205.6,1046.6Q206.6,1059.0 217.6,1067.4"/>
<text x="196.0" y="1026.0" class="num">91</text>
<path class="tri" fill="#d6e4f6" d="M296.8,1079.9L239.2,1079.9L268.0,1030.0Z"/>
<path class="ln" d="M253.6,1079.9Q270.4,1070.3 289.6,1067.4 M265.6,1034.2Q268.8,1044.9 272.8,1038.3 M256.0,1050.8Q266.4,1051.9 275.2,1042.5"/>
<text x="268.0" y="1026.0" class="num">92</text>
<path class="tri" fill="#d6e4f6" d="M368.8,1079.9L311.2,1079.9L340.0,1030.0Z"/>
<path class="ln" d="M320.8,1079.9Q342.4,1073.1 366.4,1075.7"/>
<text x="340.0" y="1026.0" class="num">93</text>
<path class="tri" fill="#d6e4f6" d="M440.8,1079.9L383.2,1079.9L412.0,1030.0Z"/>
<path class="ln" d="M416.8,1079.9Q407.9,1067.5 395.2,1059.1 M404.8,1042.5Q410.4,1046.3 414.4,1034.2"/>
<text x="412.0" y="1026.0" class="num">94</text>
<path class="tri" fill="#d6e4f6" d="M512.8,1079.9L455.2,1079.9L484.0,1030.0Z"/>
<path class="ln" d="M464.8,1079.9Q472.6,1066.1 469.6,1054.9 M498.4,1079.9Q488.9,1074.6 484.0,1079.9 M486.4,1034.2Q488.9,1049.1 496.0,1050.8"/>
<text x="484.0" y="1026.0" class="num">95</text>
<path class="tri" fill="#d6e4f6" d="M584.8,1079.9L527.2,1079.9L556.0,1030.0Z"/>
<path class="ln" d="M541.6,1079.9Q550.3,1059.0 553.6,1034.2 M568.0,1050.8Q569.1,1063.3 582.4,1075.7"/>
<text x="556.0" y="1026.0" class="num">96</text>
<path class="tri" fill="#d6e4f6" d="M80.8,1161.9L23.2,1161.9L52.0,1112.0Z"/>
<path class="ln" d="M42.4,1161.9Q49.6,1141.0 54.4,1116.2"/>
<text x="52.0" y="1108.0" class="num">97</text>
<path class="tri" fill="#d6e4f6" d="M152.8,1161.9L95.2,1161.9L124.0,1112.0Z"/>
<path class="ln" d="M97.6,1157.7Q123.2,1152.3 148.0,1153.6 M109.6,1136.9Q124.0,1139.6 138.4,1136.9 M116.8,1124.5Q124.0,1131.1 131.2,1124.5"/>
<text x="124.0" y="1108.0" class="num">98</text>
<path class="tri" fill="#d6e4f6" d="M224.8,1161.9L167.2,1161.9L196.0,1112.0Z"/>
<path class="ln" d="M220.0,1161.9Q199.3,1156.6 181.6,1161.9 M203.2,1124.5Q205.8,1139.6 217.6,1149.4"/>
<text x="196.0" y="1108.0" class="num">99</text>
<path class="tri" fill="#d6e4f6" d="M296.8,1161.9L239.2,1161.9L268.0,1112.0Z"/>
<path class="ln" d="M287.2,1161.9Q275.3,1141.0 270.4,1116.2 M268.0,1161.9Q260.7,1152.3 246.4,1149.4"/>
<text x="268.0" y="1108.0" class="num">100</text>
<path class="tri" fill="#d6e4f6" d="M368.8,1161.9L311.2,1161.9L340.0,1112.0Z"/>
<path class="ln" d="M316.0,1161.9Q322.9,1155.1 313.6,1157.7 M337.6,1116.2Q340.8,1126.9 344.8,1120.3"/>
<text x="340.0" y="1108.0" class="num">101</text>
<path class="tri" fill="#d6e4f6" d="M440.8,1161.9L383.2,1161.9L412.0,1112.0Z"/>
<path class="ln" d="M412.0,1161.9Q408.7,1145.3 402.4,1128.6 M404.8,1124.5Q415.3,1136.8 428.8,1141.1"/>
<text x="412.0" y="1108.0" class="num">102</text>
<path class="tri" fill="#d6e4f6" d="M512.8,1161.9L455.2,1161.9L484.0,1112.0Z"/>
<path class="ln" d="M474.4,1161.9Q472.6,1153.7 460.0,1153.6 M467.2,1141.1Q479.9,1135.4 488.8,1120.3"/>
<text x="484.0" y="1108.0" class="num">103</text>
<path class="tri" fill="#d6e4f6" d="M584.8,1161.9L527.2,1161.9L556.0,1112.0Z"/>
<path class="ln" d="M560.8,1161.9Q566.6,1155.1 582.4,1157.7 M541.6,1161.9Q556.0,1148.1 570.4,1136.9"/>
<text x="556.0" y="1108.0" class="num">104</text>
<path class="tri" fill="#d6e4f6" d="M80.8,1243.9L23.2,1243.9L52.0,1194.0Z"/>
<path class="ln" d="M40.0,1214.8Q56.9,1227.3 78.4,1239.7"/>
<text x="52.0" y="1190.0" class="num">105</text>
<path class="tri" fill="#d6e4f6" d="M152.8,1243.9L95.2,1243.9L124.0,1194.0Z"/>
<path class="ln" d="M138.4,1243.9Q124.0,1230.1 109.6,1218.9 M109.6,1243.9Q112.6,1232.9 104.8,1227.3"/>
<text x="124.0" y="1190.0" class="num">106</text>
<path class="tri" fill="#d6e4f6" d="M224.8,1243.9L167.2,1243.9L196.0,1194.0Z"/>
<path class="ln" d="M181.6,1218.9Q200.1,1228.7 222.4,1239.7 M188.8,1206.5Q195.2,1211.7 200.8,1202.3"/>
<text x="196.0" y="1190.0" class="num">107</text>
<path class="tri" fill="#d6e4f6" d="M296.8,1243.9L239.2,1243.9L268.0,1194.0Z"/>
<path class="ln" d="M292.0,1243.9Q285.1,1237.1 294.4,1239.7 M258.4,1243.9Q260.7,1228.7 256.0,1214.8 M280.0,1214.8Q277.0,1220.2 282.4,1218.9"/>
<text x="268.0" y="1190.0" class="num">108</text>
<path class="tri" fill="#d6e4f6" d="M368.8,1243.9L311.2,1243.9L340.0,1194.0Z"/>
<path class="ln" d="M349.6,1243.9Q344.1,1223.0 342.4,1198.2 M335.2,1243.9Q333.5,1230.1 325.6,1218.9"/>
<text x="340.0" y="1190.0" class="num">109</text>
<path class="tri" fill="#d6e4f6" d="M440.8,1243.9L383.2,1243.9L412.0,1194.0Z"/>
<path class="ln" d="M397.6,1243.9Q402.2,1230.1 397.6,1218.9 M402.4,1210.6Q412.8,1217.4 424.0,1214.8"/>
<text x="412.0" y="1190.0" class="num">110</text>
<path class="tri" fill="#d6e4f6" d="M512.8,1243.9L455.2,1243.9L484.0,1194.0Z"/>
<path class="ln" d="M460.0,1243.9Q475.0,1223.0 481.6,1198.2 M493.6,1243.9Q490.5,1227.3 493.6,1210.6"/>
<text x="484.0" y="1190.0" class="num">111</text>
<path class="tri" fill="#d6e4f6" d="M584.8,1243.9L527.2,1243.9L556.0,1194.0Z"/>
<path class="ln" d="M536.8,1243.9Q556.8,1234.3 577.6,1231.4"/>
<text x="556.0" y="1190.0" class="num">112</text>
<path class="tri" fill="#d6e4f6" d="M80.8,1325.9L23.2,1325.9L52.0,1276.0Z"/>
<path class="ln" d="M56.8,1325.9Q59.3,1313.5 68.8,1305.1 M42.4,1325.9Q43.0,1313.5 35.2,1305.1 M49.6,1280.2Q53.6,1292.3 59.2,1288.5"/>
<text x="52.0" y="1272.0" class="num">113</text>
<path class="tri" fill="#d6e4f6" d="M152.8,1325.9L95.2,1325.9L124.0,1276.0Z"/>
<path class="ln" d="M97.6,1321.7Q123.2,1316.3 148.0,1317.6 M116.8,1288.5Q126.4,1299.4 138.4,1300.9"/>
<text x="124.0" y="1272.0" class="num">114</text>
<path class="tri" fill="#d6e4f6" d="M224.8,1325.9L167.2,1325.9L196.0,1276.0Z"/>
<path class="ln" d="M210.4,1325.9Q198.4,1307.8 188.8,1288.5 M186.4,1325.9Q184.6,1317.7 172.0,1317.6"/>
<text x="196.0" y="1272.0" class="num">115</text>
<path class="tri" fill="#d6e4f6" d="M296.8,1325.9L239.2,1325.9L268.0,1276.0Z"/>
<path class="ln" d="M244.0,1325.9Q259.0,1305.0 265.6,1280.2 M282.4,1325.9Q280.2,1316.3 289.6,1313.4 M268.0,1325.9Q274.5,1314.9 287.2,1309.3"/>
<text x="268.0" y="1272.0" class="num">116</text>
<path class="tri" fill="#d6e4f6" d="M368.8,1325.9L311.2,1325.9L340.0,1276.0Z"/>
<path class="ln" d="M330.4,1325.9Q329.4,1316.3 318.4,1313.4 M342.4,1280.2Q343.3,1292.3 347.2,1288.5"/>
<text x="340.0" y="1272.0" class="num">117</text>
<path class="tri" fill="#d6e4f6" d="M440.8,1325.9L383.2,1325.9L412.0,1276.0Z"/>
<path class="ln" d="M426.4,1325.9Q412.0,1320.6 397.6,1325.9 M385.6,1321.7Q399.8,1307.8 402.4,1292.6"/>
<text x="412.0" y="1272.0" class="num">118</text>
<path class="tri" fill="#d6e4f6" d="M512.8,1325.9L455.2,1325.9L484.0,1276.0Z"/>
<path class="ln" d="M498.4,1325.9Q496.2,1316.3 505.6,1313.4 M488.8,1325.9Q479.1,1314.9 464.8,1309.3 M467.2,1305.1Q484.8,1307.8 503.2,1309.3"/>
<text x="484.0" y="1272.0" class="num">119</text>
<path class="tri" fill="#d6e4f6" d="M584.8,1325.9L527.2,1325.9L556.0,1276.0Z"/>
<path class="ln" d="M551.2,1325.9Q547.8,1314.9 536.8,1309.3"/>
<text x="556.0" y="1272.0" class="num">120</text>
<path class="tri" fill="#d6e4f6" d="M80.8,1407.9L23.2,1407.9L52.0,1358.0Z"/>
<path class="ln" d="M56.8,1407.9Q55.3,1388.4 56.8,1366.3 M32.8,1391.3Q46.3,1381.4 54.4,1362.2"/>
<text x="52.0" y="1354.0" class="num">121</text>
<path class="tri" fill="#d6e4f6" d="M152.8,1407.9L95.2,1407.9L124.0,1358.0Z"/>
<path class="ln" d="M148.0,1407.9Q137.1,1394.1 138.4,1382.9 M104.8,1407.9Q118.3,1387.0 126.4,1362.2"/>
<text x="124.0" y="1354.0" class="num">122</text>
<path class="tri" fill="#d6e4f6" d="M224.8,1407.9L167.2,1407.9L196.0,1358.0Z"/>
<path class="ln" d="M193.6,1362.2Q196.8,1372.9 200.8,1366.3 M176.8,1391.3Q194.4,1388.4 210.4,1382.9"/>
<text x="196.0" y="1354.0" class="num">123</text>
<path class="tri" fill="#d6e4f6" d="M296.8,1407.9L239.2,1407.9L268.0,1358.0Z"/>
<path class="ln" d="M277.6,1407.9Q263.9,1398.3 246.4,1395.4 M265.6,1362.2Q268.0,1371.5 270.4,1362.2"/>
<text x="268.0" y="1354.0" class="num">124</text>
<path class="tri" fill="#d6e4f6" d="M368.8,1407.9L311.2,1407.9L340.0,1358.0Z"/>
<path class="ln" d="M354.4,1407.9Q353.9,1401.1 366.4,1403.7 M325.6,1407.9Q329.4,1395.5 323.2,1387.1 M332.8,1370.5Q345.7,1387.0 364.0,1399.6"/>
<text x="340.0" y="1354.0" class="num">125</text>
<path class="tri" fill="#d6e4f6" d="M440.8,1407.9L383.2,1407.9L412.0,1358.0Z"/>
<path class="ln" d="M402.4,1407.9Q402.2,1396.9 392.8,1391.3"/>
<text x="412.0" y="1354.0" class="num">126</text>
<path class="tri" fill="#d6e4f6" d="M512.8,1407.9L455.2,1407.9L484.0,1358.0Z"/>
<path class="ln" d="M503.2,1407.9Q497.9,1398.3 505.6,1395.4 M479.2,1407.9Q477.5,1394.1 469.6,1382.9 M488.8,1366.3Q490.5,1379.9 498.4,1382.9"/>
<text x="484.0" y="1354.0" class="num">127</text>
<path class="tri" fill="#d6e4f6" d="M584.8,1407.9L527.2,1407.9L556.0,1358.0Z"/>
<path class="ln" d="M580.0,1407.9Q568.2,1392.7 568.0,1378.8 M556.0,1407.9Q551.9,1392.7 544.0,1378.8 M541.6,1407.9Q542.1,1401.1 529.6,1403.7"/>
<text x="556.0" y="1354.0" class="num">128</text>
<path class="tri" fill="#d6e4f6" d="M80.8,1489.9L23.2,1489.9L52.0,1440.0Z"/>
<path class="ln" d="M66.4,1489.9Q54.4,1471.8 44.8,1452.5 M52.0,1489.9Q44.7,1480.3 30.4,1477.4 M49.6,1444.2Q60.2,1467.6 78.4,1485.7"/>
<text x="52.0" y="1436.0" class="num">129</text>
<path class="tri" fill="#d6e4f6" d="M152.8,1489.9L95.2,1489.9L124.0,1440.0Z"/>
<path class="ln" d="M128.8,1489.9Q118.3,1480.3 102.4,1477.4 M104.8,1473.3Q118.3,1463.4 126.4,1444.2"/>
<text x="124.0" y="1436.0" class="num">130</text>
<path class="tri" fill="#d6e4f6" d="M224.8,1489.9L167.2,1489.9L196.0,1440.0Z"/>
<path class="ln" d="M210.4,1489.9Q196.0,1484.6 181.6,1489.9 M174.4,1477.4Q183.8,1471.8 181.6,1464.9"/>
<text x="196.0" y="1436.0" class="num">131</text>
<path class="tri" fill="#d6e4f6" d="M296.8,1489.9L239.2,1489.9L268.0,1440.0Z"/>
<path class="ln" d="M292.0,1489.9Q275.3,1469.0 265.6,1444.2 M287.2,1489.9Q267.2,1480.3 246.4,1477.4"/>
<text x="268.0" y="1436.0" class="num">132</text>
<path class="tri" fill="#d6e4f6" d="M368.8,1489.9L311.2,1489.9L340.0,1440.0Z"/>
<path class="ln" d="M344.8,1489.9Q349.0,1480.3 361.6,1477.4 M340.0,1489.9Q335.1,1476.1 325.6,1464.9 M335.2,1448.3Q344.1,1463.4 356.8,1469.1"/>
<text x="340.0" y="1436.0" class="num">133</text>
<path class="tri" fill="#d6e4f6" d="M440.8,1489.9L383.2,1489.9L412.0,1440.0Z"/>
<path class="ln" d="M402.4,1489.9Q403.8,1484.6 397.6,1489.9 M404.8,1452.5Q418.5,1470.4 438.4,1485.7"/>
<text x="412.0" y="1436.0" class="num">134</text>
<path class="tri" fill="#d6e4f6" d="M512.8,1489.9L455.2,1489.9L484.0,1440.0Z"/>
<path class="ln" d="M488.8,1489.9Q494.6,1483.1 510.4,1485.7 M469.6,1489.9Q472.6,1478.9 464.8,1473.3 M476.8,1452.5Q489.7,1469.0 508.0,1481.6"/>
<text x="484.0" y="1436.0" class="num">135</text>
<path class="tri" fill="#d6e4f6" d="M584.8,1489.9L527.2,1489.9L556.0,1440.0Z"/>
<path class="ln" d="M556.0,1489.9Q548.7,1480.3 534.4,1477.4 M541.6,1464.9Q558.4,1471.8 577.6,1477.4"/>
<text x="556.0" y="1436.0" class="num">136</text>
<path class="tri" fill="#d6e4f6" d="M80.8,1571.9L23.2,1571.9L52.0,1522.0Z"/>
<path class="ln" d="M76.0,1571.9Q61.0,1551.0 54.4,1526.2 M61.6,1571.9Q49.6,1559.5 35.2,1551.1"/>
<text x="52.0" y="1518.0" class="num">137</text>
<path class="tri" fill="#d6e4f6" d="M152.8,1571.9L95.2,1571.9L124.0,1522.0Z"/>
<path class="ln" d="M133.6,1571.9Q133.0,1559.5 140.8,1551.1 M114.4,1571.9Q115.8,1558.1 109.6,1546.9"/>
<text x="124.0" y="1518.0" class="num">138</text>
<path class="tri" fill="#d6e4f6" d="M224.8,1571.9L167.2,1571.9L196.0,1522.0Z"/>
<path class="ln" d="M220.0,1571.9Q210.7,1560.9 215.2,1555.3 M200.8,1571.9Q191.9,1559.5 179.2,1551.1 M188.8,1534.5Q196.8,1542.5 205.6,1538.6"/>
<text x="196.0" y="1518.0" class="num">139</text>
<path class="tri" fill="#d6e4f6" d="M296.8,1571.9L239.2,1571.9L268.0,1522.0Z"/>
<path class="ln" d="M272.8,1571.9Q272.1,1553.8 275.2,1534.5 M263.2,1530.3Q268.0,1538.3 272.8,1530.3"/>
<text x="268.0" y="1518.0" class="num">140</text>
<path class="tri" fill="#d6e4f6" d="M368.8,1571.9L311.2,1571.9L340.0,1522.0Z"/>
<path class="ln" d="M335.2,1571.9Q335.1,1566.6 330.4,1571.9 M364.0,1563.6Q357.1,1562.3 366.4,1567.7"/>
<text x="340.0" y="1518.0" class="num">141</text>
<path class="tri" fill="#d6e4f6" d="M440.8,1571.9L383.2,1571.9L412.0,1522.0Z"/>
<path class="ln" d="M407.2,1571.9Q402.2,1563.7 388.0,1563.6 M407.2,1530.3Q416.1,1545.4 428.8,1551.1"/>
<text x="412.0" y="1518.0" class="num">142</text>
<path class="tri" fill="#d6e4f6" d="M512.8,1571.9L455.2,1571.9L484.0,1522.0Z"/>
<path class="ln" d="M498.4,1571.9Q490.5,1552.4 488.8,1530.3 M469.6,1571.9Q475.8,1555.3 474.4,1538.6 M481.6,1526.2Q484.0,1535.5 486.4,1526.2"/>
<text x="484.0" y="1518.0" class="num">143</text>
<path class="tri" fill="#d6e4f6" d="M584.8,1571.9L527.2,1571.9L556.0,1522.0Z"/>
<path class="ln" d="M565.6,1571.9Q567.4,1563.7 580.0,1563.6 M536.8,1555.3Q556.0,1555.3 575.2,1555.3"/>
<text x="556.0" y="1518.0" class="num">144</text>
<path class="tri" fill="#d6e4f6" d="M80.8,1653.9L23.2,1653.9L52.0,1604.0Z"/>
<path class="ln" d="M76.0,1653.9Q64.2,1638.7 64.0,1624.8 M32.8,1653.9Q37.3,1645.7 28.0,1645.6 M47.2,1653.9Q43.8,1642.9 32.8,1637.3"/>
<text x="52.0" y="1600.0" class="num">145</text>
<path class="tri" fill="#d6e4f6" d="M152.8,1653.9L95.2,1653.9L124.0,1604.0Z"/>
<path class="ln" d="M148.0,1653.9Q135.4,1637.3 133.6,1620.6 M112.0,1624.8Q122.4,1625.9 131.2,1616.5"/>
<text x="124.0" y="1600.0" class="num">146</text>
<path class="tri" fill="#d6e4f6" d="M224.8,1653.9L167.2,1653.9L196.0,1604.0Z"/>
<path class="ln" d="M186.4,1653.9Q197.6,1640.1 210.4,1628.9 M191.2,1612.3Q196.0,1620.3 200.8,1612.3"/>
<text x="196.0" y="1600.0" class="num">147</text>
<path class="tri" fill="#d6e4f6" d="M296.8,1653.9L239.2,1653.9L268.0,1604.0Z"/>
<path class="ln" d="M253.6,1653.9Q270.4,1644.3 289.6,1641.4 M241.6,1649.7Q259.8,1631.6 270.4,1608.2"/>
<text x="268.0" y="1600.0" class="num">148</text>
<path class="tri" fill="#d6e4f6" d="M368.8,1653.9L311.2,1653.9L340.0,1604.0Z"/>
<path class="ln" d="M335.2,1653.9Q344.9,1642.9 359.2,1637.3 M323.2,1633.1Q340.0,1634.4 356.8,1633.1"/>
<text x="340.0" y="1600.0" class="num">149</text>
<path class="tri" fill="#d6e4f6" d="M440.8,1653.9L383.2,1653.9L412.0,1604.0Z"/>
<path class="ln" d="M388.0,1653.9Q394.9,1647.1 385.6,1649.7 M426.4,1653.9Q419.3,1635.8 419.2,1616.5"/>
<text x="412.0" y="1600.0" class="num">150</text>
<path class="tri" fill="#d6e4f6" d="M512.8,1653.9L455.2,1653.9L484.0,1604.0Z"/>
<path class="ln" d="M508.0,1653.9Q493.8,1648.6 488.8,1653.9 M484.0,1653.9Q482.4,1634.4 479.2,1612.3"/>
<text x="484.0" y="1600.0" class="num">151</text>
<path class="tri" fill="#d6e4f6" d="M584.8,1653.9L527.2,1653.9L556.0,1604.0Z"/>
<path class="ln" d="M541.6,1653.9Q542.1,1647.1 529.6,1649.7 M536.8,1637.3Q557.6,1640.1 580.0,1645.6"/>
<text x="556.0" y="1600.0" class="num">152</text>
<path class="tri" fill="#d6e4f6" d="M80.8,1735.9L23.2,1735.9L52.0,1686.0Z"/>
<path class="ln" d="M66.4,1735.9Q62.6,1723.5 68.8,1715.1 M40.0,1706.8Q52.0,1710.8 64.0,1706.8"/>
<text x="52.0" y="1682.0" class="num">153</text>
<path class="tri" fill="#d6e4f6" d="M152.8,1735.9L95.2,1735.9L124.0,1686.0Z"/>
<path class="ln" d="M109.6,1735.9Q126.4,1726.3 145.6,1723.4 M121.6,1690.2Q124.0,1699.5 126.4,1690.2 M107.2,1715.1Q120.7,1710.8 131.2,1698.5"/>
<text x="124.0" y="1682.0" class="num">154</text>
<path class="tri" fill="#d6e4f6" d="M224.8,1735.9L167.2,1735.9L196.0,1686.0Z"/>
<path class="ln" d="M210.4,1735.9Q196.0,1730.6 181.6,1735.9 M198.4,1690.2Q203.3,1709.4 215.2,1719.3"/>
<text x="196.0" y="1682.0" class="num">155</text>
<path class="tri" fill="#d6e4f6" d="M296.8,1735.9L239.2,1735.9L268.0,1686.0Z"/>
<path class="ln" d="M272.8,1735.9Q278.6,1729.1 294.4,1731.7 M258.4,1735.9Q259.0,1723.5 251.2,1715.1"/>
<text x="268.0" y="1682.0" class="num">156</text>
<path class="tri" fill="#d6e4f6" d="M368.8,1735.9L311.2,1735.9L340.0,1686.0Z"/>
<path class="ln" d="M364.0,1735.9Q354.7,1730.6 359.2,1735.9 M316.0,1727.6Q334.3,1715.0 347.2,1698.5"/>
<text x="340.0" y="1682.0" class="num">157</text>
<path class="tri" fill="#d6e4f6" d="M440.8,1735.9L383.2,1735.9L412.0,1686.0Z"/>
<path class="ln" d="M392.8,1735.9Q400.6,1722.1 397.6,1710.9 M407.2,1735.9Q417.7,1726.3 433.6,1723.4 M409.6,1690.2Q416.9,1707.9 428.8,1715.1"/>
<text x="412.0" y="1682.0" class="num">158</text>
<path class="tri" fill="#d6e4f6" d="M512.8,1735.9L455.2,1735.9L484.0,1686.0Z"/>
<path class="ln" d="M484.0,1735.9Q492.2,1727.7 508.0,1727.6 M481.6,1690.2Q485.6,1702.3 491.2,1698.5 M462.4,1723.4Q474.2,1713.6 476.8,1698.5"/>
<text x="484.0" y="1682.0" class="num">159</text>
<path class="tri" fill="#d6e4f6" d="M584.8,1735.9L527.2,1735.9L556.0,1686.0Z"/>
<path class="ln" d="M575.2,1735.9Q571.5,1729.1 582.4,1731.7 M546.4,1735.9Q543.8,1729.1 529.6,1731.7 M544.0,1706.8Q558.4,1715.0 575.2,1719.3"/>
<text x="556.0" y="1682.0" class="num">160</text>
</svg>