<svg xmlns="http://www.w3.org/2000/svg" width="608" height="1794" viewBox="0 0 608 1794" font-family="sans-serif">
<style>.tri{stroke:#666;stroke-width:.8;}.ln{fill:none;stroke:#ffffff;stroke-width:1.4;stroke-linecap:round}.halo{fill:none;stroke:#333;stroke-width:2.6;stroke-linecap:round;opacity:.5}.num{font-size:9px;fill:#111;text-anchor:middle;font-weight:bold}.hdr{font-size:15px;fill:#000;font-weight:bold}.ttl{font-size:16px;fill:#000;font-weight:bold}</style>
<rect x="0" y="0" width="608" height="1794" fill="#fff"/>
<text x="16.0" y="24" class="ttl">Diamond Dilemma, all 160 tiles, WHITE lines (Jaap's sheet order)</text>
<text x="16.0" y="60" class="hdr">Silver tiles 1 to 32</text>
<path class="tri" fill="#e9e9e9" d="M80.8,137.9L23.2,137.9L52.0,88.0Z"/>
<path class="halo" d="M52.0,137.9Q60.2,129.7 76.0,129.6 M35.2,117.1Q48.7,112.8 59.2,100.5"/>
<path class="ln" d="M52.0,137.9Q60.2,129.7 76.0,129.6 M35.2,117.1Q48.7,112.8 59.2,100.5"/>
<text x="52.0" y="84.0" class="num">1</text>
<path class="tri" fill="#e9e9e9" d="M152.8,137.9L95.2,137.9L124.0,88.0Z"/>
<path class="halo" d="M100.0,137.9Q120.7,124.1 138.4,112.9"/>
<path class="ln" d="M100.0,137.9Q120.7,124.1 138.4,112.9"/>
<text x="124.0" y="84.0" class="num">2</text>
<path class="tri" fill="#e9e9e9" d="M224.8,137.9L167.2,137.9L196.0,88.0Z"/>
<path class="halo" d="M181.6,112.9Q193.6,111.4 203.2,100.5"/>
<path class="ln" d="M181.6,112.9Q193.6,111.4 203.2,100.5"/>
<text x="196.0" y="84.0" class="num">3</text>
<path class="tri" fill="#e9e9e9" d="M296.8,137.9L239.2,137.9L268.0,88.0Z"/>
<path class="halo" d="M292.0,137.9Q269.6,132.6 248.8,137.9"/>
<path class="ln" d="M292.0,137.9Q269.6,132.6 248.8,137.9"/>
<text x="268.0" y="84.0" class="num">4</text>
<path class="tri" fill="#e9e9e9" d="M368.8,137.9L311.2,137.9L340.0,88.0Z"/>
<path class="halo" d="M318.4,125.4Q340.8,125.5 364.0,129.6 M337.6,92.2Q341.6,104.3 347.2,100.5"/>
<path class="ln" d="M318.4,125.4Q340.8,125.5 364.0,129.6 M337.6,92.2Q341.6,104.3 347.2,100.5"/>
<text x="340.0" y="84.0" class="num">5</text>
<path class="tri" fill="#e9e9e9" d="M440.8,137.9L383.2,137.9L412.0,88.0Z"/>
<path class="halo" d="M416.8,137.9Q421.0,128.3 433.6,125.4 M397.6,137.9Q412.0,124.1 426.4,112.9"/>
<path class="ln" d="M416.8,137.9Q421.0,128.3 433.6,125.4 M397.6,137.9Q412.0,124.1 426.4,112.9"/>
<text x="412.0" y="84.0" class="num">6</text>
<path class="tri" fill="#e9e9e9" d="M512.8,137.9L455.2,137.9L484.0,88.0Z"/>
<path class="halo" d="M493.6,137.9Q484.0,121.3 474.4,104.6"/>
<path class="ln" d="M493.6,137.9Q484.0,121.3 474.4,104.6"/>
<text x="484.0" y="84.0" class="num">7</text>
<path class="tri" fill="#e9e9e9" d="M584.8,137.9L527.2,137.9L556.0,88.0Z"/>
<path class="halo" d="M532.0,129.6Q556.0,126.9 580.0,129.6 M548.8,100.5Q556.8,108.5 565.6,104.6"/>
<path class="ln" d="M532.0,129.6Q556.0,126.9 580.0,129.6 M548.8,100.5Q556.8,108.5 565.6,104.6"/>
<text x="556.0" y="84.0" class="num">8</text>
<path class="tri" fill="#e9e9e9" d="M80.8,219.9L23.2,219.9L52.0,170.0Z"/>
<path class="halo" d="M35.2,199.1Q43.0,196.2 42.4,186.6"/>
<path class="ln" d="M35.2,199.1Q43.0,196.2 42.4,186.6"/>
<text x="52.0" y="166.0" class="num">9</text>
<path class="tri" fill="#e9e9e9" d="M152.8,219.9L95.2,219.9L124.0,170.0Z"/>
<path class="halo" d="M138.4,219.9Q136.2,210.3 145.6,207.4 M114.4,186.6Q123.2,190.5 131.2,182.5"/>
<path class="ln" d="M138.4,219.9Q136.2,210.3 145.6,207.4 M114.4,186.6Q123.2,190.5 131.2,182.5"/>
<text x="124.0" y="166.0" class="num">10</text>
<path class="tri" fill="#e9e9e9" d="M224.8,219.9L167.2,219.9L196.0,170.0Z"/>
<path class="halo" d="M215.2,219.9Q198.4,204.7 184.0,190.8 M181.6,219.9Q183.8,210.3 174.4,207.4"/>
<path class="ln" d="M215.2,219.9Q198.4,204.7 184.0,190.8 M181.6,219.9Q183.8,210.3 174.4,207.4"/>
<text x="196.0" y="166.0" class="num">11</text>
<path class="tri" fill="#e9e9e9" d="M296.8,219.9L239.2,219.9L268.0,170.0Z"/>
<path class="halo" d="M260.8,182.5Q270.4,193.4 282.4,194.9"/>
<path class="ln" d="M260.8,182.5Q270.4,193.4 282.4,194.9"/>
<text x="268.0" y="166.0" class="num">12</text>
<path class="tri" fill="#e9e9e9" d="M368.8,219.9L311.2,219.9L340.0,170.0Z"/>
<path class="halo" d="M318.4,207.4Q330.2,197.6 332.8,182.5"/>
<path class="ln" d="M318.4,207.4Q330.2,197.6 332.8,182.5"/>
<text x="340.0" y="166.0" class="num">13</text>
<path class="tri" fill="#e9e9e9" d="M440.8,219.9L383.2,219.9L412.0,170.0Z"/>
<path class="halo" d="M421.6,219.9Q410.4,206.1 397.6,194.9"/>
<path class="ln" d="M421.6,219.9Q410.4,206.1 397.6,194.9"/>
<text x="412.0" y="166.0" class="num">14</text>
<path class="tri" fill="#e9e9e9" d="M512.8,219.9L455.2,219.9L484.0,170.0Z"/>
<path class="halo" d="M493.6,219.9Q492.2,206.1 498.4,194.9 M474.4,219.9Q475.8,206.1 469.6,194.9"/>
<path class="ln" d="M493.6,219.9Q492.2,206.1 498.4,194.9 M474.4,219.9Q475.8,206.1 469.6,194.9"/>
<text x="484.0" y="166.0" class="num">15</text>
<path class="tri" fill="#e9e9e9" d="M584.8,219.9L527.2,219.9L556.0,170.0Z"/>
<path class="halo" d="M565.6,219.9Q552.7,214.6 536.8,219.9"/>
<path class="ln" d="M565.6,219.9Q552.7,214.6 536.8,219.9"/>
<text x="556.0" y="166.0" class="num">16</text>
<path class="tri" fill="#e9e9e9" d="M80.8,301.9L23.2,301.9L52.0,252.0Z"/>
<path class="halo" d="M37.6,301.9Q52.0,288.1 66.4,276.9"/>
<path class="ln" d="M37.6,301.9Q52.0,288.1 66.4,276.9"/>
<text x="52.0" y="248.0" class="num">17</text>
<path class="tri" fill="#e9e9e9" d="M152.8,301.9L95.2,301.9L124.0,252.0Z"/>
<path class="halo" d="M124.0,301.9Q119.1,288.1 109.6,276.9 M112.0,272.8Q124.8,278.2 138.4,276.9"/>
<path class="ln" d="M124.0,301.9Q119.1,288.1 109.6,276.9 M112.0,272.8Q124.8,278.2 138.4,276.9"/>
<text x="124.0" y="248.0" class="num">18</text>
<path class="tri" fill="#e9e9e9" d="M224.8,301.9L167.2,301.9L196.0,252.0Z"/>
<path class="halo" d="M210.4,301.9Q206.6,289.5 212.8,281.1 M196.0,301.9Q187.8,293.7 172.0,293.6 M186.4,268.6Q196.0,273.9 205.6,268.6"/>
<path class="ln" d="M210.4,301.9Q206.6,289.5 212.8,281.1 M196.0,301.9Q187.8,293.7 172.0,293.6 M186.4,268.6Q196.0,273.9 205.6,268.6"/>
<text x="196.0" y="248.0" class="num">19</text>
<path class="tri" fill="#e9e9e9" d="M296.8,301.9L239.2,301.9L268.0,252.0Z"/>
<path class="halo" d="M268.0,301.9Q270.4,283.8 275.2,264.5"/>
<path class="ln" d="M268.0,301.9Q270.4,283.8 275.2,264.5"/>
<text x="268.0" y="248.0" class="num">20</text>
<path class="tri" fill="#e9e9e9" d="M368.8,301.9L311.2,301.9L340.0,252.0Z"/>
<path class="halo" d="M325.6,301.9Q326.9,293.7 316.0,293.6 M337.6,256.2Q341.6,268.3 347.2,264.5"/>
<path class="ln" d="M325.6,301.9Q326.9,293.7 316.0,293.6 M337.6,256.2Q341.6,268.3 347.2,264.5"/>
<text x="340.0" y="248.0" class="num">21</text>
<path class="tri" fill="#e9e9e9" d="M440.8,301.9L383.2,301.9L412.0,252.0Z"/>
<path class="halo" d="M397.6,301.9Q407.9,281.0 414.4,256.2"/>
<path class="ln" d="M397.6,301.9Q407.9,281.0 414.4,256.2"/>
<text x="412.0" y="248.0" class="num">22</text>
<path class="tri" fill="#e9e9e9" d="M512.8,301.9L455.2,301.9L484.0,252.0Z"/>
<path class="halo" d="M488.8,301.9Q485.6,296.6 484.0,301.9"/>
<path class="ln" d="M488.8,301.9Q485.6,296.6 484.0,301.9"/>
<text x="484.0" y="248.0" class="num">23</text>
<path class="tri" fill="#e9e9e9" d="M584.8,301.9L527.2,301.9L556.0,252.0Z"/>
<path class="halo" d="M548.8,264.5Q560.9,279.6 577.6,289.4"/>
<path class="ln" d="M548.8,264.5Q560.9,279.6 577.6,289.4"/>
<text x="556.0" y="248.0" class="num">24</text>
<path class="tri" fill="#e9e9e9" d="M80.8,383.9L23.2,383.9L52.0,334.0Z"/>
<path class="halo" d="M28.0,375.6Q50.4,370.1 71.2,367.3 M42.4,350.6Q52.0,355.9 61.6,350.6"/>
<path class="ln" d="M28.0,375.6Q50.4,370.1 71.2,367.3 M42.4,350.6Q52.0,355.9 61.6,350.6"/>
<text x="52.0" y="330.0" class="num">25</text>
<path class="tri" fill="#e9e9e9" d="M152.8,383.9L95.2,383.9L124.0,334.0Z"/>
<path class="halo" d="M109.6,383.9Q111.8,374.3 102.4,371.4"/>
<path class="ln" d="M109.6,383.9Q111.8,374.3 102.4,371.4"/>
<text x="124.0" y="330.0" class="num">26</text>
<path class="tri" fill="#e9e9e9" d="M224.8,383.9L167.2,383.9L196.0,334.0Z"/>
<path class="halo" d="M205.6,383.9Q206.6,374.3 217.6,371.4 M181.6,383.9Q184.6,372.9 176.8,367.3 M186.4,350.6Q193.6,351.7 198.4,338.2"/>
<path class="ln" d="M205.6,383.9Q206.6,374.3 217.6,371.4 M181.6,383.9Q184.6,372.9 176.8,367.3 M186.4,350.6Q193.6,351.7 198.4,338.2"/>
<text x="196.0" y="330.0" class="num">27</text>
<path class="tri" fill="#e9e9e9" d="M296.8,383.9L239.2,383.9L268.0,334.0Z"/>
<path class="halo" d="M287.2,383.9Q277.0,365.8 275.2,346.5 M253.6,383.9Q255.8,374.3 246.4,371.4"/>
<path class="ln" d="M287.2,383.9Q277.0,365.8 275.2,346.5 M253.6,383.9Q255.8,374.3 246.4,371.4"/>
<text x="268.0" y="330.0" class="num">28</text>
<path class="tri" fill="#e9e9e9" d="M368.8,383.9L311.2,383.9L340.0,334.0Z"/>
<path class="halo" d="M335.2,383.9Q333.5,370.1 325.6,358.9"/>
<path class="ln" d="M335.2,383.9Q333.5,370.1 325.6,358.9"/>
<text x="340.0" y="330.0" class="num">29</text>
<path class="tri" fill="#e9e9e9" d="M440.8,383.9L383.2,383.9L412.0,334.0Z"/>
<path class="halo" d="M421.6,383.9Q423.4,375.7 436.0,375.6 M402.4,383.9Q411.2,365.8 419.2,346.5"/>
<path class="ln" d="M421.6,383.9Q423.4,375.7 436.0,375.6 M402.4,383.9Q411.2,365.8 419.2,346.5"/>
<text x="412.0" y="330.0" class="num">30</text>
<path class="tri" fill="#e9e9e9" d="M512.8,383.9L455.2,383.9L484.0,334.0Z"/>
<path class="halo" d="M474.4,350.6Q484.0,355.9 493.6,350.6"/>
<path class="ln" d="M474.4,350.6Q484.0,355.9 493.6,350.6"/>
<text x="484.0" y="330.0" class="num">31</text>
<path class="tri" fill="#e9e9e9" d="M584.8,383.9L527.2,383.9L556.0,334.0Z"/>
<path class="halo" d="M563.2,346.5Q565.0,360.2 575.2,367.3"/>
<path class="ln" d="M563.2,346.5Q565.0,360.2 575.2,367.3"/>
<text x="556.0" y="330.0" class="num">32</text>
<text x="16.0" y="408" class="hdr">Red tiles 33 to 80</text>
<path class="tri" fill="#f4d3d3" d="M80.8,485.9L23.2,485.9L52.0,436.0Z"/>
<path class="halo" d="M42.4,485.9Q54.4,473.5 68.8,465.1 M37.6,485.9Q50.4,469.3 61.6,452.6"/>
<path class="ln" d="M42.4,485.9Q54.4,473.5 68.8,465.1 M37.6,485.9Q50.4,469.3 61.6,452.6"/>
<text x="52.0" y="432.0" class="num">33</text>
<path class="tri" fill="#f4d3d3" d="M152.8,485.9L95.2,485.9L124.0,436.0Z"/>
<path class="halo" d="M107.2,465.1Q119.9,459.4 128.8,444.3"/>
<path class="ln" d="M107.2,465.1Q119.9,459.4 128.8,444.3"/>
<text x="124.0" y="432.0" class="num">34</text>
<path class="tri" fill="#f4d3d3" d="M224.8,485.9L167.2,485.9L196.0,436.0Z"/>
<path class="halo" d="M205.6,485.9Q190.3,479.1 169.6,481.7 M172.0,477.6Q192.7,469.3 210.4,460.9"/>
<path class="ln" d="M205.6,485.9Q190.3,479.1 169.6,481.7 M172.0,477.6Q192.7,469.3 210.4,460.9"/>
<text x="196.0" y="432.0" class="num">35</text>
<path class="tri" fill="#f4d3d3" d="M296.8,485.9L239.2,485.9L268.0,436.0Z"/>
<path class="halo" d="M258.4,485.9Q272.1,476.3 289.6,473.4 M248.8,485.9Q255.8,473.5 251.2,465.1"/>
<path class="ln" d="M258.4,485.9Q272.1,476.3 289.6,473.4 M248.8,485.9Q255.8,473.5 251.2,465.1"/>
<text x="268.0" y="432.0" class="num">36</text>
<path class="tri" fill="#f4d3d3" d="M368.8,485.9L311.2,485.9L340.0,436.0Z"/>
<path class="halo" d="M364.0,485.9Q355.5,476.3 361.6,473.4 M316.0,477.6Q329.4,465.0 332.8,448.5"/>
<path class="ln" d="M364.0,485.9Q355.5,476.3 361.6,473.4 M316.0,477.6Q329.4,465.0 332.8,448.5"/>
<text x="340.0" y="432.0" class="num">37</text>
<path class="tri" fill="#f4d3d3" d="M440.8,485.9L383.2,485.9L412.0,436.0Z"/>
<path class="halo" d="M407.2,485.9Q416.9,474.9 431.2,469.3"/>
<path class="ln" d="M407.2,485.9Q416.9,474.9 431.2,469.3"/>
<text x="412.0" y="432.0" class="num">38</text>
<path class="tri" fill="#f4d3d3" d="M512.8,485.9L455.2,485.9L484.0,436.0Z"/>
<path class="halo" d="M508.0,485.9Q497.9,473.5 500.8,465.1 M484.0,485.9Q475.8,480.6 460.0,485.9 M474.4,452.6Q483.2,456.5 491.2,448.5"/>
<path class="ln" d="M508.0,485.9Q497.9,473.5 500.8,465.1 M484.0,485.9Q475.8,480.6 460.0,485.9 M474.4,452.6Q483.2,456.5 491.2,448.5"/>
<text x="484.0" y="432.0" class="num">39</text>
<path class="tri" fill="#f4d3d3" d="M584.8,485.9L527.2,485.9L556.0,436.0Z"/>
<path class="halo" d="M570.4,485.9Q558.4,467.8 548.8,448.5 M546.4,485.9Q549.5,469.3 546.4,452.6"/>
<path class="ln" d="M570.4,485.9Q558.4,467.8 548.8,448.5 M546.4,485.9Q549.5,469.3 546.4,452.6"/>
<text x="556.0" y="432.0" class="num">40</text>
<path class="tri" fill="#f4d3d3" d="M80.8,567.9L23.2,567.9L52.0,518.0Z"/>
<path class="halo" d="M76.0,567.9Q53.6,556.9 32.8,551.3 M64.0,538.8Q62.6,547.0 71.2,551.3"/>
<path class="ln" d="M76.0,567.9Q53.6,556.9 32.8,551.3 M64.0,538.8Q62.6,547.0 71.2,551.3"/>
<text x="52.0" y="514.0" class="num">41</text>
<path class="tri" fill="#f4d3d3" d="M152.8,567.9L95.2,567.9L124.0,518.0Z"/>
<path class="halo" d="M109.6,567.9Q126.4,558.3 145.6,555.4"/>
<path class="ln" d="M109.6,567.9Q126.4,558.3 145.6,555.4"/>
<text x="124.0" y="514.0" class="num">42</text>
<path class="tri" fill="#f4d3d3" d="M224.8,567.9L167.2,567.9L196.0,518.0Z"/>
<path class="halo" d="M172.0,559.6Q191.9,549.8 208.0,538.8 M176.8,551.3Q187.0,544.2 188.8,530.5"/>
<path class="ln" d="M172.0,559.6Q191.9,549.8 208.0,538.8 M176.8,551.3Q187.0,544.2 188.8,530.5"/>
<text x="196.0" y="514.0" class="num">43</text>
<path class="tri" fill="#f4d3d3" d="M296.8,567.9L239.2,567.9L268.0,518.0Z"/>
<path class="halo" d="M258.4,534.6Q273.7,549.8 294.4,563.7"/>
<path class="ln" d="M258.4,534.6Q273.7,549.8 294.4,563.7"/>
<text x="268.0" y="514.0" class="num">44</text>
<path class="tri" fill="#f4d3d3" d="M368.8,567.9L311.2,567.9L340.0,518.0Z"/>
<path class="halo" d="M359.2,567.9Q350.6,552.7 352.0,538.8 M330.4,567.9Q329.4,558.3 318.4,555.4 M328.0,538.8Q337.6,538.5 344.8,526.3"/>
<path class="ln" d="M359.2,567.9Q350.6,552.7 352.0,538.8 M330.4,567.9Q329.4,558.3 318.4,555.4 M328.0,538.8Q337.6,538.5 344.8,526.3"/>
<text x="340.0" y="514.0" class="num">45</text>
<path class="tri" fill="#f4d3d3" d="M440.8,567.9L383.2,567.9L412.0,518.0Z"/>
<path class="halo" d="M416.8,567.9Q421.0,558.3 433.6,555.4 M397.6,567.9Q411.2,552.7 424.0,538.8"/>
<path class="ln" d="M416.8,567.9Q421.0,558.3 433.6,555.4 M397.6,567.9Q411.2,552.7 424.0,538.8"/>
<text x="412.0" y="514.0" class="num">46</text>
<path class="tri" fill="#f4d3d3" d="M512.8,567.9L455.2,567.9L484.0,518.0Z"/>
<path class="halo" d="M488.8,567.9Q488.9,551.3 493.6,534.6 M474.4,534.6Q479.1,537.1 479.2,526.3"/>
<path class="ln" d="M488.8,567.9Q488.9,551.3 493.6,534.6 M474.4,534.6Q479.1,537.1 479.2,526.3"/>
<text x="484.0" y="514.0" class="num">47</text>
<path class="tri" fill="#f4d3d3" d="M584.8,567.9L527.2,567.9L556.0,518.0Z"/>
<path class="halo" d="M556.0,567.9Q550.3,555.5 539.2,547.1 M560.8,526.3Q564.2,542.8 575.2,551.3"/>
<path class="ln" d="M556.0,567.9Q550.3,555.5 539.2,547.1 M560.8,526.3Q564.2,542.8 575.2,551.3"/>
<text x="556.0" y="514.0" class="num">48</text>
<path class="tri" fill="#f4d3d3" d="M80.8,649.9L23.2,649.9L52.0,600.0Z"/>
<path class="halo" d="M61.6,649.9Q48.7,638.9 32.8,633.3 M47.2,649.9Q43.0,640.3 30.4,637.4 M59.2,612.5Q60.2,624.8 68.8,629.1"/>
<path class="ln" d="M61.6,649.9Q48.7,638.9 32.8,633.3 M47.2,649.9Q43.0,640.3 30.4,637.4 M59.2,612.5Q60.2,624.8 68.8,629.1"/>
<text x="52.0" y="596.0" class="num">49</text>
<path class="tri" fill="#f4d3d3" d="M152.8,649.9L95.2,649.9L124.0,600.0Z"/>
<path class="halo" d="M136.0,620.8Q133.8,627.6 140.8,629.1"/>
<path class="ln" d="M136.0,620.8Q133.8,627.6 140.8,629.1"/>
<text x="124.0" y="596.0" class="num">50</text>
<path class="tri" fill="#f4d3d3" d="M224.8,649.9L167.2,649.9L196.0,600.0Z"/>
<path class="halo" d="M191.2,649.9Q200.9,638.9 215.2,633.3 M176.8,649.9Q181.3,641.7 172.0,641.6 M193.6,604.2Q199.3,619.1 208.0,620.8"/>
<path class="ln" d="M191.2,649.9Q200.9,638.9 215.2,633.3 M176.8,649.9Q181.3,641.7 172.0,641.6 M193.6,604.2Q199.3,619.1 208.0,620.8"/>
<text x="196.0" y="596.0" class="num">51</text>
<path class="tri" fill="#f4d3d3" d="M296.8,649.9L239.2,649.9L268.0,600.0Z"/>
<path class="halo" d="M287.2,649.9Q267.2,640.3 246.4,637.4 M272.8,649.9Q261.5,641.7 244.0,641.6 M258.4,616.6Q273.7,631.8 294.4,645.7"/>
<path class="ln" d="M287.2,649.9Q267.2,640.3 246.4,637.4 M272.8,649.9Q261.5,641.7 244.0,641.6 M258.4,616.6Q273.7,631.8 294.4,645.7"/>
<text x="268.0" y="596.0" class="num">52</text>
<path class="tri" fill="#f4d3d3" d="M368.8,649.9L311.2,649.9L340.0,600.0Z"/>
<path class="halo" d="M354.4,649.9Q342.4,631.8 332.8,612.5 M349.6,649.9Q337.6,637.5 323.2,629.1"/>
<path class="ln" d="M354.4,649.9Q342.4,631.8 332.8,612.5 M349.6,649.9Q337.6,637.5 323.2,629.1"/>
<text x="340.0" y="596.0" class="num">53</text>
<path class="tri" fill="#f4d3d3" d="M440.8,649.9L383.2,649.9L412.0,600.0Z"/>
<path class="halo" d="M431.2,649.9Q417.7,629.0 409.6,604.2 M416.8,649.9Q405.5,641.7 388.0,641.6 M392.8,633.3Q400.6,630.4 397.6,624.9"/>
<path class="ln" d="M431.2,649.9Q417.7,629.0 409.6,604.2 M416.8,649.9Q405.5,641.7 388.0,641.6 M392.8,633.3Q400.6,630.4 397.6,624.9"/>
<text x="412.0" y="596.0" class="num">54</text>
<path class="tri" fill="#f4d3d3" d="M512.8,649.9L455.2,649.9L484.0,600.0Z"/>
<path class="halo" d="M457.6,645.7Q470.1,634.7 469.6,624.9 M474.4,616.6Q485.6,624.8 498.4,624.9 M479.2,608.3Q484.8,617.7 491.2,612.5"/>
<path class="ln" d="M457.6,645.7Q470.1,634.7 469.6,624.9 M474.4,616.6Q485.6,624.8 498.4,624.9 M479.2,608.3Q484.8,617.7 491.2,612.5"/>
<text x="484.0" y="596.0" class="num">55</text>
<path class="tri" fill="#f4d3d3" d="M584.8,649.9L527.2,649.9L556.0,600.0Z"/>
<path class="halo" d="M565.6,649.9Q567.4,641.7 580.0,641.6 M551.2,649.9Q552.7,630.4 551.2,608.3 M553.6,604.2Q557.6,616.3 563.2,612.5"/>
<path class="ln" d="M565.6,649.9Q567.4,641.7 580.0,641.6 M551.2,649.9Q552.7,630.4 551.2,608.3 M553.6,604.2Q557.6,616.3 563.2,612.5"/>
<text x="556.0" y="596.0" class="num">56</text>
<path class="tri" fill="#f4d3d3" d="M80.8,731.9L23.2,731.9L52.0,682.0Z"/>
<path class="halo" d="M47.2,731.9Q56.1,719.5 68.8,711.1 M49.6,686.2Q53.6,698.3 59.2,694.5"/>
<path class="ln" d="M47.2,731.9Q56.1,719.5 68.8,711.1 M49.6,686.2Q53.6,698.3 59.2,694.5"/>
<text x="52.0" y="678.0" class="num">57</text>
<path class="tri" fill="#f4d3d3" d="M152.8,731.9L95.2,731.9L124.0,682.0Z"/>
<path class="halo" d="M143.2,731.9Q135.4,718.1 138.4,706.9 M109.6,731.9Q110.1,725.1 97.6,727.7"/>
<path class="ln" d="M143.2,731.9Q135.4,718.1 138.4,706.9 M109.6,731.9Q110.1,725.1 97.6,727.7"/>
<text x="124.0" y="678.0" class="num">58</text>
<path class="tri" fill="#f4d3d3" d="M224.8,731.9L167.2,731.9L196.0,682.0Z"/>
<path class="halo" d="M169.6,727.7Q195.2,722.3 220.0,723.6 M184.0,702.8Q195.2,705.4 205.6,698.6"/>
<path class="ln" d="M169.6,727.7Q195.2,722.3 220.0,723.6 M184.0,702.8Q195.2,705.4 205.6,698.6"/>
<text x="196.0" y="678.0" class="num">59</text>
<path class="tri" fill="#f4d3d3" d="M296.8,731.9L239.2,731.9L268.0,682.0Z"/>
<path class="halo" d="M292.0,731.9Q285.1,725.1 294.4,727.7 M287.2,731.9Q279.4,718.1 282.4,706.9 M282.4,731.9Q273.7,711.0 270.4,686.2"/>
<path class="ln" d="M292.0,731.9Q285.1,725.1 294.4,727.7 M287.2,731.9Q279.4,718.1 282.4,706.9 M282.4,731.9Q273.7,711.0 270.4,686.2"/>
<text x="268.0" y="678.0" class="num">60</text>
<path class="tri" fill="#f4d3d3" d="M368.8,731.9L311.2,731.9L340.0,682.0Z"/>
<path class="halo" d="M349.6,731.9Q340.8,713.8 332.8,694.5 M335.2,690.3Q340.0,698.3 344.8,690.3 M337.6,686.2Q340.0,695.5 342.4,686.2"/>
<path class="ln" d="M349.6,731.9Q340.8,713.8 332.8,694.5 M335.2,690.3Q340.0,698.3 344.8,690.3 M337.6,686.2Q340.0,695.5 342.4,686.2"/>
<text x="340.0" y="678.0" class="num">61</text>
<path class="tri" fill="#f4d3d3" d="M440.8,731.9L383.2,731.9L412.0,682.0Z"/>
<path class="halo" d="M416.8,731.9Q405.5,723.7 388.0,723.6 M392.8,715.3Q412.0,715.3 431.2,715.3"/>
<path class="ln" d="M416.8,731.9Q405.5,723.7 388.0,723.6 M392.8,715.3Q412.0,715.3 431.2,715.3"/>
<text x="412.0" y="678.0" class="num">62</text>
<path class="tri" fill="#f4d3d3" d="M512.8,731.9L455.2,731.9L484.0,682.0Z"/>
<path class="halo" d="M508.0,731.9Q499.5,722.3 505.6,719.4 M472.0,702.8Q481.6,702.5 488.8,690.3"/>
<path class="ln" d="M508.0,731.9Q499.5,722.3 505.6,719.4 M472.0,702.8Q481.6,702.5 488.8,690.3"/>
<text x="484.0" y="678.0" class="num">63</text>
<path class="tri" fill="#f4d3d3" d="M584.8,731.9L527.2,731.9L556.0,682.0Z"/>
<path class="halo" d="M570.4,731.9Q569.9,725.1 582.4,727.7 M565.6,731.9Q551.9,722.3 534.4,719.4 M551.2,690.3Q558.4,702.5 568.0,702.8"/>
<path class="ln" d="M570.4,731.9Q569.9,725.1 582.4,727.7 M565.6,731.9Q551.9,722.3 534.4,719.4 M551.2,690.3Q558.4,702.5 568.0,702.8"/>
<text x="556.0" y="678.0" class="num">64</text>
<path class="tri" fill="#f4d3d3" d="M80.8,813.9L23.2,813.9L52.0,764.0Z"/>
<path class="halo" d="M66.4,813.9Q51.2,801.5 35.2,793.1 M32.8,813.9Q36.5,807.1 25.6,809.7 M40.0,784.8Q54.4,793.0 71.2,797.3"/>
<path class="ln" d="M66.4,813.9Q51.2,801.5 35.2,793.1 M32.8,813.9Q36.5,807.1 25.6,809.7 M40.0,784.8Q54.4,793.0 71.2,797.3"/>
<text x="52.0" y="760.0" class="num">65</text>
<path class="tri" fill="#f4d3d3" d="M152.8,813.9L95.2,813.9L124.0,764.0Z"/>
<path class="halo" d="M128.8,813.9Q124.0,794.4 119.2,772.3 M109.6,813.9Q112.6,802.9 104.8,797.3"/>
<path class="ln" d="M128.8,813.9Q124.0,794.4 119.2,772.3 M109.6,813.9Q112.6,802.9 104.8,797.3"/>
<text x="124.0" y="760.0" class="num">66</text>
<path class="tri" fill="#f4d3d3" d="M224.8,813.9L167.2,813.9L196.0,764.0Z"/>
<path class="halo" d="M200.8,813.9Q206.6,807.1 222.4,809.7 M181.6,788.9Q199.3,797.3 220.0,805.6"/>
<path class="ln" d="M200.8,813.9Q206.6,807.1 222.4,809.7 M181.6,788.9Q199.3,797.3 220.0,805.6"/>
<text x="196.0" y="760.0" class="num">67</text>
<path class="tri" fill="#f4d3d3" d="M296.8,813.9L239.2,813.9L268.0,764.0Z"/>
<path class="halo" d="M277.6,813.9Q266.4,808.6 253.6,813.9 M248.8,813.9Q254.9,802.9 248.8,797.3"/>
<path class="ln" d="M277.6,813.9Q266.4,808.6 253.6,813.9 M248.8,813.9Q254.9,802.9 248.8,797.3"/>
<text x="268.0" y="760.0" class="num">68</text>
<path class="tri" fill="#f4d3d3" d="M368.8,813.9L311.2,813.9L340.0,764.0Z"/>
<path class="halo" d="M354.4,813.9Q335.9,807.1 313.6,809.7 M335.2,772.3Q347.3,793.0 366.4,809.7"/>
<path class="ln" d="M354.4,813.9Q335.9,807.1 313.6,809.7 M335.2,772.3Q347.3,793.0 366.4,809.7"/>
<text x="340.0" y="760.0" class="num">69</text>
<path class="tri" fill="#f4d3d3" d="M440.8,813.9L383.2,813.9L412.0,764.0Z"/>
<path class="halo" d="M412.0,813.9Q419.3,804.3 433.6,801.4 M397.6,813.9Q398.9,805.7 388.0,805.6 M392.8,797.3Q408.7,791.6 421.6,780.6"/>
<path class="ln" d="M412.0,813.9Q419.3,804.3 433.6,801.4 M397.6,813.9Q398.9,805.7 388.0,805.6 M392.8,797.3Q408.7,791.6 421.6,780.6"/>
<text x="412.0" y="760.0" class="num">70</text>
<path class="tri" fill="#f4d3d3" d="M512.8,813.9L455.2,813.9L484.0,764.0Z"/>
<path class="halo" d="M460.0,813.9Q481.6,801.5 500.8,793.1 M472.0,784.8Q482.4,785.9 491.2,776.5"/>
<path class="ln" d="M460.0,813.9Q481.6,801.5 500.8,793.1 M472.0,784.8Q482.4,785.9 491.2,776.5"/>
<text x="484.0" y="760.0" class="num">71</text>
<path class="tri" fill="#f4d3d3" d="M584.8,813.9L527.2,813.9L556.0,764.0Z"/>
<path class="halo" d="M570.4,813.9Q566.6,801.5 572.8,793.1 M536.8,797.3Q553.6,793.0 568.0,784.8"/>
<path class="ln" d="M570.4,813.9Q566.6,801.5 572.8,793.1 M536.8,797.3Q553.6,793.0 568.0,784.8"/>
<text x="556.0" y="760.0" class="num">72</text>
<path class="tri" fill="#f4d3d3" d="M80.8,895.9L23.2,895.9L52.0,846.0Z"/>
<path class="halo" d="M66.4,895.9Q51.2,883.5 35.2,875.1 M64.0,866.8Q62.6,875.0 71.2,879.3"/>
<path class="ln" d="M66.4,895.9Q51.2,883.5 35.2,875.1 M64.0,866.8Q62.6,875.0 71.2,879.3"/>
<text x="52.0" y="842.0" class="num">73</text>
<path class="tri" fill="#f4d3d3" d="M152.8,895.9L95.2,895.9L124.0,846.0Z"/>
<path class="halo" d="M114.4,862.6Q123.2,866.5 131.2,858.5 M143.2,879.3Q138.7,882.1 148.0,887.6"/>
<path class="ln" d="M114.4,862.6Q123.2,866.5 131.2,858.5 M143.2,879.3Q138.7,882.1 148.0,887.6"/>
<text x="124.0" y="842.0" class="num">74</text>
<path class="tri" fill="#f4d3d3" d="M224.8,895.9L167.2,895.9L196.0,846.0Z"/>
<path class="halo" d="M200.8,895.9Q205.0,886.3 217.6,883.4 M191.2,895.9Q200.9,884.9 215.2,879.3 M172.0,895.9Q183.8,880.7 184.0,866.8"/>
<path class="ln" d="M200.8,895.9Q205.0,886.3 217.6,883.4 M191.2,895.9Q200.9,884.9 215.2,879.3 M172.0,895.9Q183.8,880.7 184.0,866.8"/>
<text x="196.0" y="842.0" class="num">75</text>
<path class="tri" fill="#f4d3d3" d="M296.8,895.9L239.2,895.9L268.0,846.0Z"/>
<path class="halo" d="M263.2,895.9Q260.7,883.5 251.2,875.1 M260.8,858.5Q271.3,870.8 284.8,875.1"/>
<path class="ln" d="M263.2,895.9Q260.7,883.5 251.2,875.1 M260.8,858.5Q271.3,870.8 284.8,875.1"/>
<text x="268.0" y="842.0" class="num">76</text>
<path class="tri" fill="#f4d3d3" d="M368.8,895.9L311.2,895.9L340.0,846.0Z"/>
<path class="halo" d="M335.2,895.9Q329.4,889.1 313.6,891.7"/>
<path class="ln" d="M335.2,895.9Q329.4,889.1 313.6,891.7"/>
<text x="340.0" y="842.0" class="num">77</text>
<path class="tri" fill="#f4d3d3" d="M440.8,895.9L383.2,895.9L412.0,846.0Z"/>
<path class="halo" d="M407.2,895.9Q412.8,877.8 419.2,858.5"/>
<path class="ln" d="M407.2,895.9Q412.8,877.8 419.2,858.5"/>
<text x="412.0" y="842.0" class="num">78</text>
<path class="tri" fill="#f4d3d3" d="M512.8,895.9L455.2,895.9L484.0,846.0Z"/>
<path class="halo" d="M464.8,895.9Q471.8,883.5 467.2,875.1 M500.8,875.1Q497.9,880.7 508.0,887.6"/>
<path class="ln" d="M464.8,895.9Q471.8,883.5 467.2,875.1 M500.8,875.1Q497.9,880.7 508.0,887.6"/>
<text x="484.0" y="842.0" class="num">79</text>
<path class="tri" fill="#f4d3d3" d="M584.8,895.9L527.2,895.9L556.0,846.0Z"/>
<path class="halo" d="M544.0,866.8Q550.3,866.5 551.2,854.3"/>
<path class="ln" d="M544.0,866.8Q550.3,866.5 551.2,854.3"/>
<text x="556.0" y="842.0" class="num">80</text>
<text x="16.0" y="920" class="hdr">Blue tiles 81 to 160</text>
<path class="tri" fill="#d6e4f6" d="M80.8,997.9L23.2,997.9L52.0,948.0Z"/>
<path class="halo" d="M32.8,997.9Q54.4,991.1 78.4,993.7 M40.0,968.8Q48.7,967.1 54.4,952.2"/>
<path class="ln" d="M32.8,997.9Q54.4,991.1 78.4,993.7 M40.0,968.8Q48.7,967.1 54.4,952.2"/>
<text x="52.0" y="944.0" class="num">81</text>
<path class="tri" fill="#d6e4f6" d="M152.8,997.9L95.2,997.9L124.0,948.0Z"/>
<path class="halo" d="M109.6,997.9Q110.9,992.6 100.0,997.9 M107.2,977.1Q121.6,974.2 133.6,964.6 M114.4,964.6Q121.6,965.7 126.4,952.2"/>
<path class="ln" d="M109.6,997.9Q110.9,992.6 100.0,997.9 M107.2,977.1Q121.6,974.2 133.6,964.6 M114.4,964.6Q121.6,965.7 126.4,952.2"/>
<text x="124.0" y="944.0" class="num">82</text>
<path class="tri" fill="#d6e4f6" d="M224.8,997.9L167.2,997.9L196.0,948.0Z"/>
<path class="halo" d="M215.2,997.9Q196.0,986.9 176.8,981.3 M176.8,997.9Q181.3,989.7 172.0,989.6 M179.2,977.1Q195.2,977.0 210.4,972.9"/>
<path class="ln" d="M215.2,997.9Q196.0,986.9 176.8,981.3 M176.8,997.9Q181.3,989.7 172.0,989.6 M179.2,977.1Q195.2,977.0 210.4,972.9"/>
<text x="196.0" y="944.0" class="num">83</text>
<path class="tri" fill="#d6e4f6" d="M296.8,997.9L239.2,997.9L268.0,948.0Z"/>
<path class="halo" d="M268.0,997.9Q270.4,979.8 275.2,960.5 M253.6,997.9Q254.9,989.7 244.0,989.6"/>
<path class="ln" d="M268.0,997.9Q270.4,979.8 275.2,960.5 M253.6,997.9Q254.9,989.7 244.0,989.6"/>
<text x="268.0" y="944.0" class="num">84</text>
<path class="tri" fill="#d6e4f6" d="M368.8,997.9L311.2,997.9L340.0,948.0Z"/>
<path class="halo" d="M364.0,997.9Q353.9,985.5 356.8,977.1"/>
<path class="ln" d="M364.0,997.9Q353.9,985.5 356.8,977.1"/>
<text x="340.0" y="944.0" class="num">85</text>
<path class="tri" fill="#d6e4f6" d="M440.8,997.9L383.2,997.9L412.0,948.0Z"/>
<path class="halo" d="M390.4,985.4Q399.8,979.8 397.6,972.9 M431.2,981.3Q426.7,984.1 436.0,989.6"/>
<path class="ln" d="M390.4,985.4Q399.8,979.8 397.6,972.9 M431.2,981.3Q426.7,984.1 436.0,989.6"/>
<text x="412.0" y="944.0" class="num">86</text>
<path class="tri" fill="#d6e4f6" d="M512.8,997.9L455.2,997.9L484.0,948.0Z"/>
<path class="halo" d="M474.4,997.9Q472.6,992.6 460.0,997.9 M462.4,985.4Q471.8,979.8 469.6,972.9"/>
<path class="ln" d="M474.4,997.9Q472.6,992.6 460.0,997.9 M462.4,985.4Q471.8,979.8 469.6,972.9"/>
<text x="484.0" y="944.0" class="num">87</text>
<path class="tri" fill="#d6e4f6" d="M584.8,997.9L527.2,997.9L556.0,948.0Z"/>
<path class="halo" d="M570.4,997.9Q566.6,985.5 572.8,977.1 M532.0,997.9Q538.9,991.1 529.6,993.7 M541.6,972.9Q552.7,969.9 560.8,956.3"/>
<path class="ln" d="M570.4,997.9Q566.6,985.5 572.8,977.1 M532.0,997.9Q538.9,991.1 529.6,993.7 M541.6,972.9Q552.7,969.9 560.8,956.3"/>
<text x="556.0" y="944.0" class="num">88</text>
<path class="tri" fill="#d6e4f6" d="M80.8,1079.9L23.2,1079.9L52.0,1030.0Z"/>
<path class="halo" d="M47.2,1079.9Q57.7,1070.3 73.6,1067.4"/>
<path class="ln" d="M47.2,1079.9Q57.7,1070.3 73.6,1067.4"/>
<text x="52.0" y="1026.0" class="num">89</text>
<path class="tri" fill="#d6e4f6" d="M152.8,1079.9L95.2,1079.9L124.0,1030.0Z"/>
<path class="halo" d="M104.8,1079.9Q126.4,1073.1 150.4,1075.7 M109.6,1054.9Q120.7,1051.9 128.8,1038.3"/>
<path class="ln" d="M104.8,1079.9Q126.4,1073.1 150.4,1075.7 M109.6,1054.9Q120.7,1051.9 128.8,1038.3"/>
<text x="124.0" y="1026.0" class="num">90</text>
<path class="tri" fill="#d6e4f6" d="M224.8,1079.9L167.2,1079.9L196.0,1030.0Z"/>
<path class="halo" d="M210.4,1079.9Q209.9,1073.1 222.4,1075.7 M172.0,1079.9Q187.0,1059.0 193.6,1034.2"/>
<path class="ln" d="M210.4,1079.9Q209.9,1073.1 222.4,1075.7 M172.0,1079.9Q187.0,1059.0 193.6,1034.2"/>
<text x="196.0" y="1026.0" class="num">91</text>
<path class="tri" fill="#d6e4f6" d="M296.8,1079.9L239.2,1079.9L268.0,1030.0Z"/>
<path class="halo" d="M244.0,1071.6Q268.0,1068.9 292.0,1071.6 M248.8,1063.3Q255.8,1061.8 251.2,1059.1"/>
<path class="ln" d="M244.0,1071.6Q268.0,1068.9 292.0,1071.6 M248.8,1063.3Q255.8,1061.8 251.2,1059.1"/>
<text x="268.0" y="1026.0" class="num">92</text>
<path class="tri" fill="#d6e4f6" d="M368.8,1079.9L311.2,1079.9L340.0,1030.0Z"/>
<path class="halo" d="M335.2,1079.9Q346.5,1071.7 364.0,1071.6 M330.4,1079.9Q327.8,1073.1 313.6,1075.7 M335.2,1038.3Q339.2,1044.9 342.4,1034.2"/>
<path class="ln" d="M335.2,1079.9Q346.5,1071.7 364.0,1071.6 M330.4,1079.9Q327.8,1073.1 313.6,1075.7 M335.2,1038.3Q339.2,1044.9 342.4,1034.2"/>
<text x="340.0" y="1026.0" class="num">93</text>
<path class="tri" fill="#d6e4f6" d="M440.8,1079.9L383.2,1079.9L412.0,1030.0Z"/>
<path class="halo" d="M407.2,1079.9Q403.8,1068.9 392.8,1063.3 M397.6,1054.9Q415.3,1063.3 436.0,1071.6 M402.4,1046.6Q412.8,1053.4 424.0,1050.8"/>
<path class="ln" d="M407.2,1079.9Q403.8,1068.9 392.8,1063.3 M397.6,1054.9Q415.3,1063.3 436.0,1071.6 M402.4,1046.6Q412.8,1053.4 424.0,1050.8"/>
<text x="412.0" y="1026.0" class="num">94</text>
<path class="tri" fill="#d6e4f6" d="M512.8,1079.9L455.2,1079.9L484.0,1030.0Z"/>
<path class="halo" d="M457.6,1075.7Q477.5,1060.4 491.2,1042.5 M503.2,1063.3Q499.5,1067.5 510.4,1075.7"/>
<path class="ln" d="M457.6,1075.7Q477.5,1060.4 491.2,1042.5 M503.2,1063.3Q499.5,1067.5 510.4,1075.7"/>
<text x="484.0" y="1026.0" class="num">95</text>
<path class="tri" fill="#d6e4f6" d="M584.8,1079.9L527.2,1079.9L556.0,1030.0Z"/>
<path class="halo" d="M534.4,1067.4Q556.0,1066.1 577.6,1067.4 M548.8,1042.5Q556.8,1050.5 565.6,1046.6"/>
<path class="ln" d="M534.4,1067.4Q556.0,1066.1 577.6,1067.4 M548.8,1042.5Q556.8,1050.5 565.6,1046.6"/>
<text x="556.0" y="1026.0" class="num">96</text>
<path class="tri" fill="#d6e4f6" d="M80.8,1161.9L23.2,1161.9L52.0,1112.0Z"/>
<path class="halo" d="M28.0,1153.6Q51.2,1149.5 73.6,1149.4 M32.8,1145.3Q52.0,1145.3 71.2,1145.3"/>
<path class="ln" d="M28.0,1153.6Q51.2,1149.5 73.6,1149.4 M32.8,1145.3Q52.0,1145.3 71.2,1145.3"/>
<text x="52.0" y="1108.0" class="num">97</text>
<path class="tri" fill="#d6e4f6" d="M152.8,1161.9L95.2,1161.9L124.0,1112.0Z"/>
<path class="halo" d="M138.4,1161.9Q137.9,1155.1 150.4,1157.7 M128.8,1161.9Q118.3,1152.3 102.4,1149.4 M121.6,1116.2Q124.8,1126.9 128.8,1120.3"/>
<path class="ln" d="M138.4,1161.9Q137.9,1155.1 150.4,1157.7 M128.8,1161.9Q118.3,1152.3 102.4,1149.4 M121.6,1116.2Q124.8,1126.9 128.8,1120.3"/>
<text x="124.0" y="1108.0" class="num">98</text>
<path class="tri" fill="#d6e4f6" d="M224.8,1161.9L167.2,1161.9L196.0,1112.0Z"/>
<path class="halo" d="M172.0,1161.9Q178.9,1155.1 169.6,1157.7 M176.8,1145.3Q191.1,1136.8 200.8,1120.3"/>
<path class="ln" d="M172.0,1161.9Q178.9,1155.1 169.6,1157.7 M176.8,1145.3Q191.1,1136.8 200.8,1120.3"/>
<text x="196.0" y="1108.0" class="num">99</text>
<path class="tri" fill="#d6e4f6" d="M296.8,1161.9L239.2,1161.9L268.0,1112.0Z"/>
<path class="halo" d="M282.4,1161.9Q281.1,1153.7 292.0,1153.6 M244.0,1153.6Q258.2,1139.6 263.2,1120.3"/>
<path class="ln" d="M282.4,1161.9Q281.1,1153.7 292.0,1153.6 M244.0,1153.6Q258.2,1139.6 263.2,1120.3"/>
<text x="268.0" y="1108.0" class="num">100</text>
<path class="tri" fill="#d6e4f6" d="M368.8,1161.9L311.2,1161.9L340.0,1112.0Z"/>
<path class="halo" d="M344.8,1161.9Q340.0,1142.4 335.2,1120.3"/>
<path class="ln" d="M344.8,1161.9Q340.0,1142.4 335.2,1120.3"/>
<text x="340.0" y="1108.0" class="num">101</text>
<path class="tri" fill="#d6e4f6" d="M440.8,1161.9L383.2,1161.9L412.0,1112.0Z"/>
<path class="halo" d="M421.6,1161.9Q421.8,1150.9 431.2,1145.3 M388.0,1161.9Q406.3,1143.8 419.2,1124.5"/>
<path class="ln" d="M421.6,1161.9Q421.8,1150.9 431.2,1145.3 M388.0,1161.9Q406.3,1143.8 419.2,1124.5"/>
<text x="412.0" y="1108.0" class="num">102</text>
<path class="tri" fill="#d6e4f6" d="M512.8,1161.9L455.2,1161.9L484.0,1112.0Z"/>
<path class="halo" d="M508.0,1161.9Q488.9,1145.3 474.4,1128.6 M488.8,1161.9Q479.1,1150.9 464.8,1145.3 M481.6,1116.2Q488.1,1132.5 498.4,1136.9"/>
<path class="ln" d="M508.0,1161.9Q488.9,1145.3 474.4,1128.6 M488.8,1161.9Q479.1,1150.9 464.8,1145.3 M481.6,1116.2Q488.1,1132.5 498.4,1136.9"/>
<text x="484.0" y="1108.0" class="num">103</text>
<path class="tri" fill="#d6e4f6" d="M584.8,1161.9L527.2,1161.9L556.0,1112.0Z"/>
<path class="halo" d="M546.4,1161.9Q555.2,1143.8 563.2,1124.5 M532.0,1161.9Q547.0,1141.0 553.6,1116.2"/>
<path class="ln" d="M546.4,1161.9Q555.2,1143.8 563.2,1124.5 M532.0,1161.9Q547.0,1141.0 553.6,1116.2"/>
<text x="556.0" y="1108.0" class="num">104</text>
<path class="tri" fill="#d6e4f6" d="M80.8,1243.9L23.2,1243.9L52.0,1194.0Z"/>
<path class="halo" d="M61.6,1243.9Q58.5,1227.3 61.6,1210.6 M47.2,1243.9Q42.2,1235.7 28.0,1235.6 M37.6,1218.9Q49.6,1217.4 59.2,1206.5"/>
<path class="ln" d="M61.6,1243.9Q58.5,1227.3 61.6,1210.6 M47.2,1243.9Q42.2,1235.7 28.0,1235.6 M37.6,1218.9Q49.6,1217.4 59.2,1206.5"/>
<text x="52.0" y="1190.0" class="num">105</text>
<path class="tri" fill="#d6e4f6" d="M152.8,1243.9L95.2,1243.9L124.0,1194.0Z"/>
<path class="halo" d="M128.8,1243.9Q130.5,1230.1 138.4,1218.9 M119.2,1243.9Q123.2,1223.0 126.4,1198.2"/>
<path class="ln" d="M128.8,1243.9Q130.5,1230.1 138.4,1218.9 M119.2,1243.9Q123.2,1223.0 126.4,1198.2"/>
<text x="124.0" y="1190.0" class="num">106</text>
<path class="tri" fill="#d6e4f6" d="M224.8,1243.9L167.2,1243.9L196.0,1194.0Z"/>
<path class="halo" d="M196.0,1243.9Q204.2,1235.7 220.0,1235.6 M181.6,1243.9Q190.3,1223.0 193.6,1198.2 M205.6,1210.6Q204.2,1218.8 210.4,1218.9"/>
<path class="ln" d="M196.0,1243.9Q204.2,1235.7 220.0,1235.6 M181.6,1243.9Q190.3,1223.0 193.6,1198.2 M205.6,1210.6Q204.2,1218.8 210.4,1218.9"/>
<text x="196.0" y="1190.0" class="num">107</text>
<path class="tri" fill="#d6e4f6" d="M296.8,1243.9L239.2,1243.9L268.0,1194.0Z"/>
<path class="halo" d="M287.2,1243.9Q280.2,1231.5 284.8,1223.1 M263.2,1243.9Q269.6,1227.3 277.6,1210.6"/>
<path class="ln" d="M287.2,1243.9Q280.2,1231.5 284.8,1223.1 M263.2,1243.9Q269.6,1227.3 277.6,1210.6"/>
<text x="268.0" y="1190.0" class="num">108</text>
<path class="tri" fill="#d6e4f6" d="M368.8,1243.9L311.2,1243.9L340.0,1194.0Z"/>
<path class="halo" d="M330.4,1243.9Q344.9,1235.7 364.0,1235.6 M325.6,1243.9Q326.9,1235.7 316.0,1235.6 M335.2,1202.3Q341.6,1213.1 349.6,1210.6"/>
<path class="ln" d="M330.4,1243.9Q344.9,1235.7 364.0,1235.6 M325.6,1243.9Q326.9,1235.7 316.0,1235.6 M335.2,1202.3Q341.6,1213.1 349.6,1210.6"/>
<text x="340.0" y="1190.0" class="num">109</text>
<path class="tri" fill="#d6e4f6" d="M440.8,1243.9L383.2,1243.9L412.0,1194.0Z"/>
<path class="halo" d="M416.8,1243.9Q419.3,1231.5 428.8,1223.1 M392.8,1243.9Q407.1,1224.4 416.8,1202.3 M390.4,1231.4Q403.0,1220.2 407.2,1202.3"/>
<path class="ln" d="M416.8,1243.9Q419.3,1231.5 428.8,1223.1 M392.8,1243.9Q407.1,1224.4 416.8,1202.3 M390.4,1231.4Q403.0,1220.2 407.2,1202.3"/>
<text x="412.0" y="1190.0" class="num">110</text>
<path class="tri" fill="#d6e4f6" d="M512.8,1243.9L455.2,1243.9L484.0,1194.0Z"/>
<path class="halo" d="M508.0,1243.9Q485.6,1232.9 464.8,1227.3 M476.8,1206.5Q485.6,1215.9 496.0,1214.8"/>
<path class="ln" d="M508.0,1243.9Q485.6,1232.9 464.8,1227.3 M476.8,1206.5Q485.6,1215.9 496.0,1214.8"/>
<text x="484.0" y="1190.0" class="num">111</text>
<path class="tri" fill="#d6e4f6" d="M584.8,1243.9L527.2,1243.9L556.0,1194.0Z"/>
<path class="halo" d="M570.4,1243.9Q567.4,1232.9 575.2,1227.3 M565.6,1243.9Q550.3,1237.1 529.6,1239.7 M548.8,1206.5Q555.2,1211.7 560.8,1202.3"/>
<path class="ln" d="M570.4,1243.9Q567.4,1232.9 575.2,1227.3 M565.6,1243.9Q550.3,1237.1 529.6,1239.7 M548.8,1206.5Q555.2,1211.7 560.8,1202.3"/>
<text x="556.0" y="1190.0" class="num">112</text>
<path class="tri" fill="#d6e4f6" d="M80.8,1325.9L23.2,1325.9L52.0,1276.0Z"/>
<path class="halo" d="M76.0,1325.9Q56.1,1310.7 40.0,1296.8 M64.0,1296.8Q62.6,1305.0 71.2,1309.3"/>
<path class="ln" d="M76.0,1325.9Q56.1,1310.7 40.0,1296.8 M64.0,1296.8Q62.6,1305.0 71.2,1309.3"/>
<text x="52.0" y="1272.0" class="num">113</text>
<path class="tri" fill="#d6e4f6" d="M152.8,1325.9L95.2,1325.9L124.0,1276.0Z"/>
<path class="halo" d="M138.4,1325.9Q128.9,1320.6 124.0,1325.9 M119.2,1284.3Q129.7,1302.2 145.6,1313.4 M121.6,1280.2Q124.0,1289.5 126.4,1280.2"/>
<path class="ln" d="M138.4,1325.9Q128.9,1320.6 124.0,1325.9 M119.2,1284.3Q129.7,1302.2 145.6,1313.4 M121.6,1280.2Q124.0,1289.5 126.4,1280.2"/>
<text x="124.0" y="1272.0" class="num">114</text>
<path class="tri" fill="#d6e4f6" d="M224.8,1325.9L167.2,1325.9L196.0,1276.0Z"/>
<path class="halo" d="M169.6,1321.7Q194.4,1314.9 217.6,1313.4 M179.2,1305.1Q196.8,1307.8 215.2,1309.3"/>
<path class="ln" d="M169.6,1321.7Q194.4,1314.9 217.6,1313.4 M179.2,1305.1Q196.8,1307.8 215.2,1309.3"/>
<text x="196.0" y="1272.0" class="num">115</text>
<path class="tri" fill="#d6e4f6" d="M296.8,1325.9L239.2,1325.9L268.0,1276.0Z"/>
<path class="halo" d="M258.4,1325.9Q272.9,1317.7 292.0,1317.6 M253.6,1325.9Q254.1,1319.1 241.6,1321.7 M246.4,1313.4Q262.3,1302.2 272.8,1284.3"/>
<path class="ln" d="M258.4,1325.9Q272.9,1317.7 292.0,1317.6 M253.6,1325.9Q254.1,1319.1 241.6,1321.7 M246.4,1313.4Q262.3,1302.2 272.8,1284.3"/>
<text x="268.0" y="1272.0" class="num">116</text>
<path class="tri" fill="#d6e4f6" d="M368.8,1325.9L311.2,1325.9L340.0,1276.0Z"/>
<path class="halo" d="M349.6,1325.9Q335.1,1317.7 316.0,1317.6 M335.2,1325.9Q329.4,1319.1 313.6,1321.7"/>
<path class="ln" d="M349.6,1325.9Q335.1,1317.7 316.0,1317.6 M335.2,1325.9Q329.4,1319.1 313.6,1321.7"/>
<text x="340.0" y="1272.0" class="num">117</text>
<path class="tri" fill="#d6e4f6" d="M440.8,1325.9L383.2,1325.9L412.0,1276.0Z"/>
<path class="halo" d="M395.2,1305.1Q413.6,1309.3 433.6,1313.4 M407.2,1284.3Q413.6,1295.1 421.6,1292.6"/>
<path class="ln" d="M395.2,1305.1Q413.6,1309.3 433.6,1313.4 M407.2,1284.3Q413.6,1295.1 421.6,1292.6"/>
<text x="412.0" y="1272.0" class="num">118</text>
<path class="tri" fill="#d6e4f6" d="M512.8,1325.9L455.2,1325.9L484.0,1276.0Z"/>
<path class="halo" d="M493.6,1325.9Q485.6,1306.4 479.2,1284.3 M464.8,1325.9Q472.6,1312.1 469.6,1300.9"/>
<path class="ln" d="M493.6,1325.9Q485.6,1306.4 479.2,1284.3 M464.8,1325.9Q472.6,1312.1 469.6,1300.9"/>
<text x="484.0" y="1272.0" class="num">119</text>
<path class="tri" fill="#d6e4f6" d="M584.8,1325.9L527.2,1325.9L556.0,1276.0Z"/>
<path class="halo" d="M570.4,1325.9Q565.0,1310.7 568.0,1296.8 M565.6,1325.9Q550.3,1319.1 529.6,1321.7"/>
<path class="ln" d="M570.4,1325.9Q565.0,1310.7 568.0,1296.8 M565.6,1325.9Q550.3,1319.1 529.6,1321.7"/>
<text x="556.0" y="1272.0" class="num">120</text>
<path class="tri" fill="#d6e4f6" d="M80.8,1407.9L23.2,1407.9L52.0,1358.0Z"/>
<path class="halo" d="M71.2,1407.9Q67.5,1401.1 78.4,1403.7 M47.2,1407.9Q56.1,1395.5 68.8,1387.1"/>
<path class="ln" d="M71.2,1407.9Q67.5,1401.1 78.4,1403.7 M47.2,1407.9Q56.1,1395.5 68.8,1387.1"/>
<text x="52.0" y="1354.0" class="num">121</text>
<path class="tri" fill="#d6e4f6" d="M152.8,1407.9L95.2,1407.9L124.0,1358.0Z"/>
<path class="halo" d="M148.0,1407.9Q127.3,1402.6 109.6,1407.9 M116.8,1370.5Q125.6,1379.9 136.0,1378.8"/>
<path class="ln" d="M148.0,1407.9Q127.3,1402.6 109.6,1407.9 M116.8,1370.5Q125.6,1379.9 136.0,1378.8"/>
<text x="124.0" y="1354.0" class="num">122</text>
<path class="tri" fill="#d6e4f6" d="M224.8,1407.9L167.2,1407.9L196.0,1358.0Z"/>
<path class="halo" d="M172.0,1407.9Q195.2,1398.3 217.6,1395.4 M184.0,1378.8Q188.7,1381.4 186.4,1374.6 M191.2,1366.3Q200.1,1381.4 212.8,1387.1"/>
<path class="ln" d="M172.0,1407.9Q195.2,1398.3 217.6,1395.4 M184.0,1378.8Q188.7,1381.4 186.4,1374.6 M191.2,1366.3Q200.1,1381.4 212.8,1387.1"/>
<text x="196.0" y="1354.0" class="num">123</text>
<path class="tri" fill="#d6e4f6" d="M296.8,1407.9L239.2,1407.9L268.0,1358.0Z"/>
<path class="halo" d="M268.0,1407.9Q272.1,1392.7 280.0,1378.8 M244.0,1407.9Q250.9,1401.1 241.6,1403.7 M248.8,1391.3Q264.7,1385.6 277.6,1374.6"/>
<path class="ln" d="M268.0,1407.9Q272.1,1392.7 280.0,1378.8 M244.0,1407.9Q250.9,1401.1 241.6,1403.7 M248.8,1391.3Q264.7,1385.6 277.6,1374.6"/>
<text x="268.0" y="1354.0" class="num">124</text>
<path class="tri" fill="#d6e4f6" d="M368.8,1407.9L311.2,1407.9L340.0,1358.0Z"/>
<path class="halo" d="M340.0,1407.9Q347.3,1398.3 361.6,1395.4 M320.8,1407.9Q326.1,1398.3 318.4,1395.4 M330.4,1374.6Q339.2,1378.5 347.2,1370.5"/>
<path class="ln" d="M340.0,1407.9Q347.3,1398.3 361.6,1395.4 M320.8,1407.9Q326.1,1398.3 318.4,1395.4 M330.4,1374.6Q339.2,1378.5 347.2,1370.5"/>
<text x="340.0" y="1354.0" class="num">125</text>
<path class="tri" fill="#d6e4f6" d="M440.8,1407.9L383.2,1407.9L412.0,1358.0Z"/>
<path class="halo" d="M421.6,1407.9Q423.4,1399.7 436.0,1399.6 M397.6,1407.9Q401.4,1395.5 395.2,1387.1 M400.0,1378.8Q411.2,1381.4 421.6,1374.6"/>
<path class="ln" d="M421.6,1407.9Q423.4,1399.7 436.0,1399.6 M397.6,1407.9Q401.4,1395.5 395.2,1387.1 M400.0,1378.8Q411.2,1381.4 421.6,1374.6"/>
<text x="412.0" y="1354.0" class="num">126</text>
<path class="tri" fill="#d6e4f6" d="M512.8,1407.9L455.2,1407.9L484.0,1358.0Z"/>
<path class="halo" d="M498.4,1407.9Q482.4,1396.9 464.8,1391.3 M474.4,1407.9Q471.8,1401.1 457.6,1403.7"/>
<path class="ln" d="M498.4,1407.9Q482.4,1396.9 464.8,1391.3 M474.4,1407.9Q471.8,1401.1 457.6,1403.7"/>
<text x="484.0" y="1354.0" class="num">127</text>
<path class="tri" fill="#d6e4f6" d="M584.8,1407.9L527.2,1407.9L556.0,1358.0Z"/>
<path class="halo" d="M575.2,1407.9Q571.5,1401.1 582.4,1403.7 M546.4,1407.9Q550.3,1389.8 548.8,1370.5"/>
<path class="ln" d="M575.2,1407.9Q571.5,1401.1 582.4,1403.7 M546.4,1407.9Q550.3,1389.8 548.8,1370.5"/>
<text x="556.0" y="1354.0" class="num">128</text>
<path class="tri" fill="#d6e4f6" d="M80.8,1489.9L23.2,1489.9L52.0,1440.0Z"/>
<path class="halo" d="M71.2,1489.9Q61.0,1471.8 59.2,1452.5"/>
<path class="ln" d="M71.2,1489.9Q61.0,1471.8 59.2,1452.5"/>
<text x="52.0" y="1436.0" class="num">129</text>
<path class="tri" fill="#d6e4f6" d="M152.8,1489.9L95.2,1489.9L124.0,1440.0Z"/>
<path class="halo" d="M143.2,1489.9Q127.3,1484.6 114.4,1489.9 M112.0,1460.8Q128.9,1473.3 150.4,1485.7"/>
<path class="ln" d="M143.2,1489.9Q127.3,1484.6 114.4,1489.9 M112.0,1460.8Q128.9,1473.3 150.4,1485.7"/>
<text x="124.0" y="1436.0" class="num">130</text>
<path class="tri" fill="#d6e4f6" d="M224.8,1489.9L167.2,1489.9L196.0,1440.0Z"/>
<path class="halo" d="M200.8,1489.9Q188.7,1483.1 169.6,1485.7"/>
<path class="ln" d="M200.8,1489.9Q188.7,1483.1 169.6,1485.7"/>
<text x="196.0" y="1436.0" class="num">131</text>
<path class="tri" fill="#d6e4f6" d="M296.8,1489.9L239.2,1489.9L268.0,1440.0Z"/>
<path class="halo" d="M292.0,1489.9Q285.1,1483.1 294.4,1485.7 M277.6,1489.9Q277.0,1477.5 284.8,1469.1 M253.6,1489.9Q254.9,1481.7 244.0,1481.6"/>
<path class="ln" d="M292.0,1489.9Q285.1,1483.1 294.4,1485.7 M277.6,1489.9Q277.0,1477.5 284.8,1469.1 M253.6,1489.9Q254.9,1481.7 244.0,1481.6"/>
<text x="268.0" y="1436.0" class="num">132</text>
<path class="tri" fill="#d6e4f6" d="M368.8,1489.9L311.2,1489.9L340.0,1440.0Z"/>
<path class="halo" d="M335.2,1489.9Q333.5,1484.6 325.6,1489.9 M313.6,1485.7Q340.0,1481.7 366.4,1485.7 M316.0,1481.6Q332.7,1466.2 342.4,1444.2"/>
<path class="ln" d="M335.2,1489.9Q333.5,1484.6 325.6,1489.9 M313.6,1485.7Q340.0,1481.7 366.4,1485.7 M316.0,1481.6Q332.7,1466.2 342.4,1444.2"/>
<text x="340.0" y="1436.0" class="num">133</text>
<path class="tri" fill="#d6e4f6" d="M440.8,1489.9L383.2,1489.9L412.0,1440.0Z"/>
<path class="halo" d="M416.8,1489.9Q416.9,1473.3 421.6,1456.6 M395.2,1469.1Q408.7,1464.8 419.2,1452.5 M402.4,1456.6Q407.9,1457.7 409.6,1444.2"/>
<path class="ln" d="M416.8,1489.9Q416.9,1473.3 421.6,1456.6 M395.2,1469.1Q408.7,1464.8 419.2,1452.5 M402.4,1456.6Q407.9,1457.7 409.6,1444.2"/>
<text x="412.0" y="1436.0" class="num">134</text>
<path class="tri" fill="#d6e4f6" d="M512.8,1489.9L455.2,1489.9L484.0,1440.0Z"/>
<path class="halo" d="M498.4,1489.9Q496.2,1480.3 505.6,1477.4 M474.4,1489.9Q485.6,1476.1 498.4,1464.9"/>
<path class="ln" d="M498.4,1489.9Q496.2,1480.3 505.6,1477.4 M474.4,1489.9Q485.6,1476.1 498.4,1464.9"/>
<text x="484.0" y="1436.0" class="num">135</text>
<path class="tri" fill="#d6e4f6" d="M584.8,1489.9L527.2,1489.9L556.0,1440.0Z"/>
<path class="halo" d="M541.6,1489.9Q542.9,1481.7 532.0,1481.6 M548.8,1452.5Q557.6,1461.9 568.0,1460.8"/>
<path class="ln" d="M541.6,1489.9Q542.9,1481.7 532.0,1481.6 M548.8,1452.5Q557.6,1461.9 568.0,1460.8"/>
<text x="556.0" y="1436.0" class="num">136</text>
<path class="tri" fill="#d6e4f6" d="M80.8,1571.9L23.2,1571.9L52.0,1522.0Z"/>
<path class="halo" d="M66.4,1571.9Q62.6,1559.5 68.8,1551.1 M52.0,1571.9Q44.7,1562.3 30.4,1559.4 M44.8,1534.5Q53.6,1543.9 64.0,1542.8"/>
<path class="ln" d="M66.4,1571.9Q62.6,1559.5 68.8,1551.1 M52.0,1571.9Q44.7,1562.3 30.4,1559.4 M44.8,1534.5Q53.6,1543.9 64.0,1542.8"/>
<text x="52.0" y="1518.0" class="num">137</text>
<path class="tri" fill="#d6e4f6" d="M152.8,1571.9L95.2,1571.9L124.0,1522.0Z"/>
<path class="halo" d="M124.0,1571.9Q125.6,1552.4 128.8,1530.3 M109.6,1571.9Q116.7,1553.8 116.8,1534.5"/>
<path class="ln" d="M124.0,1571.9Q125.6,1552.4 128.8,1530.3 M109.6,1571.9Q116.7,1553.8 116.8,1534.5"/>
<text x="124.0" y="1518.0" class="num">138</text>
<path class="tri" fill="#d6e4f6" d="M224.8,1571.9L167.2,1571.9L196.0,1522.0Z"/>
<path class="halo" d="M210.4,1571.9Q209.9,1565.1 222.4,1567.7 M172.0,1563.6Q182.9,1555.3 181.6,1546.9 M184.0,1542.8Q196.8,1548.2 210.4,1546.9"/>
<path class="ln" d="M210.4,1571.9Q209.9,1565.1 222.4,1567.7 M172.0,1563.6Q182.9,1555.3 181.6,1546.9 M184.0,1542.8Q196.8,1548.2 210.4,1546.9"/>
<text x="196.0" y="1518.0" class="num">139</text>
<path class="tri" fill="#d6e4f6" d="M296.8,1571.9L239.2,1571.9L268.0,1522.0Z"/>
<path class="halo" d="M241.6,1567.7Q265.6,1559.5 287.2,1555.3 M248.8,1555.3Q264.7,1549.6 277.6,1538.6 M256.0,1542.8Q264.7,1541.1 270.4,1526.2"/>
<path class="ln" d="M241.6,1567.7Q265.6,1559.5 287.2,1555.3 M248.8,1555.3Q264.7,1549.6 277.6,1538.6 M256.0,1542.8Q264.7,1541.1 270.4,1526.2"/>
<text x="268.0" y="1518.0" class="num">140</text>
<path class="tri" fill="#d6e4f6" d="M368.8,1571.9L311.2,1571.9L340.0,1522.0Z"/>
<path class="halo" d="M340.0,1571.9Q347.3,1562.3 361.6,1559.4 M320.8,1571.9Q329.4,1556.7 328.0,1542.8"/>
<path class="ln" d="M340.0,1571.9Q347.3,1562.3 361.6,1559.4 M320.8,1571.9Q329.4,1556.7 328.0,1542.8"/>
<text x="340.0" y="1518.0" class="num">141</text>
<path class="tri" fill="#d6e4f6" d="M440.8,1571.9L383.2,1571.9L412.0,1522.0Z"/>
<path class="halo" d="M412.0,1571.9Q411.2,1551.0 409.6,1526.2"/>
<path class="ln" d="M412.0,1571.9Q411.2,1551.0 409.6,1526.2"/>
<text x="412.0" y="1518.0" class="num">142</text>
<path class="tri" fill="#d6e4f6" d="M512.8,1571.9L455.2,1571.9L484.0,1522.0Z"/>
<path class="halo" d="M479.2,1571.9Q487.3,1558.1 498.4,1546.9 M474.4,1571.9Q474.2,1566.6 464.8,1571.9 M469.6,1546.9Q476.7,1545.4 476.8,1534.5"/>
<path class="ln" d="M479.2,1571.9Q487.3,1558.1 498.4,1546.9 M474.4,1571.9Q474.2,1566.6 464.8,1571.9 M469.6,1546.9Q476.7,1545.4 476.8,1534.5"/>
<text x="484.0" y="1518.0" class="num">143</text>
<path class="tri" fill="#d6e4f6" d="M584.8,1571.9L527.2,1571.9L556.0,1522.0Z"/>
<path class="halo" d="M532.0,1571.9Q542.1,1559.5 539.2,1551.1 M551.2,1530.3Q556.0,1538.3 560.8,1530.3"/>
<path class="ln" d="M532.0,1571.9Q542.1,1559.5 539.2,1551.1 M551.2,1530.3Q556.0,1538.3 560.8,1530.3"/>
<text x="556.0" y="1518.0" class="num">144</text>
<path class="tri" fill="#d6e4f6" d="M80.8,1653.9L23.2,1653.9L52.0,1604.0Z"/>
<path class="halo" d="M71.2,1653.9Q67.5,1647.1 78.4,1649.7 M61.6,1653.9Q54.4,1633.0 49.6,1608.2 M56.8,1653.9Q44.7,1647.1 25.6,1649.7"/>
<path class="ln" d="M71.2,1653.9Q67.5,1647.1 78.4,1649.7 M61.6,1653.9Q54.4,1633.0 49.6,1608.2 M56.8,1653.9Q44.7,1647.1 25.6,1649.7"/>
<text x="52.0" y="1600.0" class="num">145</text>
<path class="tri" fill="#d6e4f6" d="M152.8,1653.9L95.2,1653.9L124.0,1604.0Z"/>
<path class="halo" d="M104.8,1653.9Q125.6,1645.7 148.0,1645.6 M107.2,1633.1Q113.4,1633.0 109.6,1628.9 M119.2,1612.3Q124.0,1620.3 128.8,1612.3"/>
<path class="ln" d="M104.8,1653.9Q125.6,1645.7 148.0,1645.6 M107.2,1633.1Q113.4,1633.0 109.6,1628.9 M119.2,1612.3Q124.0,1620.3 128.8,1612.3"/>
<text x="124.0" y="1600.0" class="num">146</text>
<path class="tri" fill="#d6e4f6" d="M224.8,1653.9L167.2,1653.9L196.0,1604.0Z"/>
<path class="halo" d="M174.4,1641.4Q183.8,1635.8 181.6,1628.9"/>
<path class="ln" d="M174.4,1641.4Q183.8,1635.8 181.6,1628.9"/>
<text x="196.0" y="1600.0" class="num">147</text>
<path class="tri" fill="#d6e4f6" d="M296.8,1653.9L239.2,1653.9L268.0,1604.0Z"/>
<path class="halo" d="M292.0,1653.9Q270.4,1641.5 251.2,1633.1"/>
<path class="ln" d="M292.0,1653.9Q270.4,1641.5 251.2,1633.1"/>
<text x="268.0" y="1600.0" class="num">148</text>
<path class="tri" fill="#d6e4f6" d="M368.8,1653.9L311.2,1653.9L340.0,1604.0Z"/>
<path class="halo" d="M313.6,1649.7Q333.5,1634.4 347.2,1616.5"/>
<path class="ln" d="M313.6,1649.7Q333.5,1634.4 347.2,1616.5"/>
<text x="340.0" y="1600.0" class="num">149</text>
<path class="tri" fill="#d6e4f6" d="M440.8,1653.9L383.2,1653.9L412.0,1604.0Z"/>
<path class="halo" d="M436.0,1653.9Q424.2,1638.7 424.0,1624.8 M402.4,1653.9Q412.0,1637.3 421.6,1620.6"/>
<path class="ln" d="M436.0,1653.9Q424.2,1638.7 424.0,1624.8 M402.4,1653.9Q412.0,1637.3 421.6,1620.6"/>
<text x="412.0" y="1600.0" class="num">150</text>
<path class="tri" fill="#d6e4f6" d="M512.8,1653.9L455.2,1653.9L484.0,1604.0Z"/>
<path class="halo" d="M474.4,1653.9Q487.3,1642.9 503.2,1637.3 M460.0,1653.9Q480.7,1640.1 498.4,1628.9 M457.6,1649.7Q476.7,1633.0 488.8,1612.3"/>
<path class="ln" d="M474.4,1653.9Q487.3,1642.9 503.2,1637.3 M460.0,1653.9Q480.7,1640.1 498.4,1628.9 M457.6,1649.7Q476.7,1633.0 488.8,1612.3"/>
<text x="484.0" y="1600.0" class="num">151</text>
<path class="tri" fill="#d6e4f6" d="M584.8,1653.9L527.2,1653.9L556.0,1604.0Z"/>
<path class="halo" d="M560.8,1653.9Q556.8,1633.0 553.6,1608.2 M546.4,1653.9Q551.1,1634.4 551.2,1612.3"/>
<path class="ln" d="M560.8,1653.9Q556.8,1633.0 553.6,1608.2 M546.4,1653.9Q551.1,1634.4 551.2,1612.3"/>
<text x="556.0" y="1600.0" class="num">152</text>
<path class="tri" fill="#d6e4f6" d="M80.8,1735.9L23.2,1735.9L52.0,1686.0Z"/>
<path class="halo" d="M30.4,1723.4Q49.6,1717.8 66.4,1710.9 M35.2,1715.1Q47.9,1709.4 56.8,1694.3"/>
<path class="ln" d="M30.4,1723.4Q49.6,1717.8 66.4,1710.9 M35.2,1715.1Q47.9,1709.4 56.8,1694.3"/>
<text x="52.0" y="1682.0" class="num">153</text>
<path class="tri" fill="#d6e4f6" d="M152.8,1735.9L95.2,1735.9L124.0,1686.0Z"/>
<path class="halo" d="M148.0,1735.9Q124.0,1730.6 100.0,1735.9 M97.6,1731.7Q120.7,1722.1 140.8,1715.1"/>
<path class="ln" d="M148.0,1735.9Q124.0,1730.6 100.0,1735.9 M97.6,1731.7Q120.7,1722.1 140.8,1715.1"/>
<text x="124.0" y="1682.0" class="num">154</text>
<path class="tri" fill="#d6e4f6" d="M224.8,1735.9L167.2,1735.9L196.0,1686.0Z"/>
<path class="halo" d="M191.2,1735.9Q193.6,1715.0 193.6,1690.2 M186.4,1735.9Q189.5,1719.3 186.4,1702.6"/>
<path class="ln" d="M191.2,1735.9Q193.6,1715.0 193.6,1690.2 M186.4,1735.9Q189.5,1719.3 186.4,1702.6"/>
<text x="196.0" y="1682.0" class="num">155</text>
<path class="tri" fill="#d6e4f6" d="M296.8,1735.9L239.2,1735.9L268.0,1686.0Z"/>
<path class="halo" d="M253.6,1735.9Q267.2,1720.7 280.0,1706.8 M244.0,1727.6Q254.9,1719.3 253.6,1710.9"/>
<path class="ln" d="M253.6,1735.9Q267.2,1720.7 280.0,1706.8 M244.0,1727.6Q254.9,1719.3 253.6,1710.9"/>
<text x="268.0" y="1682.0" class="num">156</text>
<path class="tri" fill="#d6e4f6" d="M368.8,1735.9L311.2,1735.9L340.0,1686.0Z"/>
<path class="halo" d="M318.4,1723.4Q340.8,1723.5 364.0,1727.6 M332.8,1698.5Q339.2,1703.7 344.8,1694.3"/>
<path class="ln" d="M318.4,1723.4Q340.8,1723.5 364.0,1727.6 M332.8,1698.5Q339.2,1703.7 344.8,1694.3"/>
<text x="340.0" y="1682.0" class="num">157</text>
<path class="tri" fill="#d6e4f6" d="M440.8,1735.9L383.2,1735.9L412.0,1686.0Z"/>
<path class="halo" d="M426.4,1735.9Q412.8,1720.7 400.0,1706.8 M402.4,1702.6Q407.1,1705.1 407.2,1694.3"/>
<path class="ln" d="M426.4,1735.9Q412.8,1720.7 400.0,1706.8 M402.4,1702.6Q407.1,1705.1 407.2,1694.3"/>
<text x="412.0" y="1682.0" class="num">158</text>
<path class="tri" fill="#d6e4f6" d="M512.8,1735.9L455.2,1735.9L484.0,1686.0Z"/>
<path class="halo" d="M493.6,1735.9Q493.0,1723.5 500.8,1715.1 M484.0,1735.9Q480.7,1730.6 474.4,1735.9 M469.6,1710.9Q483.2,1712.2 496.0,1706.8"/>
<path class="ln" d="M493.6,1735.9Q493.0,1723.5 500.8,1715.1 M484.0,1735.9Q480.7,1730.6 474.4,1735.9 M469.6,1710.9Q483.2,1712.2 496.0,1706.8"/>
<text x="484.0" y="1682.0" class="num">159</text>
<path class="tri" fill="#d6e4f6" d="M584.8,1735.9L527.2,1735.9L556.0,1686.0Z"/>
<path class="halo" d="M529.6,1731.7Q552.7,1722.1 572.8,1715.1"/>
<path class="ln" d="M529.6,1731.7Q552.7,1722.1 572.8,1715.1"/>
<text x="556.0" y="1682.0" class="num">160</text>
</svg>